%TF.GenerationSoftware,KiCad,Pcbnew,9.0.3*%
%TF.CreationDate,2025-12-13T00:06:23+05:30*%
%TF.ProjectId,vga,7667612e-6b69-4636-9164-5f7063625858,rev?*%
%TF.SameCoordinates,Original*%
%TF.FileFunction,Copper,L3,Inr*%
%TF.FilePolarity,Positive*%
%FSLAX46Y46*%
G04 Gerber Fmt 4.6, Leading zero omitted, Abs format (unit mm)*
G04 Created by KiCad (PCBNEW 9.0.3) date 2025-12-13 00:06:23*
%MOMM*%
%LPD*%
G01*
G04 APERTURE LIST*
%TA.AperFunction,ComponentPad*%
%ADD10R,1.700000X1.700000*%
%TD*%
%TA.AperFunction,ComponentPad*%
%ADD11C,1.700000*%
%TD*%
%TA.AperFunction,ComponentPad*%
%ADD12R,1.600000X1.600000*%
%TD*%
%TA.AperFunction,ComponentPad*%
%ADD13C,1.600000*%
%TD*%
%TA.AperFunction,ViaPad*%
%ADD14C,0.600000*%
%TD*%
%TA.AperFunction,ViaPad*%
%ADD15C,0.800000*%
%TD*%
G04 APERTURE END LIST*
D10*
%TO.N,GND*%
%TO.C,J_PROG1*%
X92220000Y-92590000D03*
D11*
%TO.N,+3.3V*%
X94760000Y-92590000D03*
%TO.N,/SCK*%
X97300000Y-92590000D03*
%TO.N,/SDI*%
X99840000Y-92590000D03*
%TO.N,/SDO*%
X102380000Y-92590000D03*
%TO.N,/SS*%
X104920000Y-92590000D03*
%TD*%
D12*
%TO.N,/VGA_RED_OUT*%
%TO.C,J1*%
X88725000Y-52355331D03*
D13*
%TO.N,/VGA_GREEN_OUT*%
X91495000Y-52355331D03*
%TO.N,/VGA_BLUE_OUT*%
X94265000Y-52355331D03*
%TO.N,unconnected-(J1-Pad4)*%
X97035000Y-52355331D03*
%TO.N,GND*%
X99805000Y-52355331D03*
X102575000Y-52355331D03*
X105345000Y-52355331D03*
X108115000Y-52355331D03*
%TO.N,unconnected-(J1-Pad9)*%
X90110000Y-49515331D03*
%TO.N,unconnected-(J1-Pad10)*%
X92880000Y-49515331D03*
%TO.N,unconnected-(J1-Pad11)*%
X95650000Y-49515331D03*
%TO.N,unconnected-(J1-Pad12)*%
X98420000Y-49515331D03*
%TO.N,/HSYNC*%
X101190000Y-49515331D03*
%TO.N,/VSYNC*%
X103960000Y-49515331D03*
%TO.N,unconnected-(J1-Pad15)*%
X106730000Y-49515331D03*
%TD*%
D14*
%TO.N,VCCINT*%
X109320000Y-62340000D03*
X107520000Y-50640000D03*
X101520000Y-51140000D03*
X90420000Y-58740000D03*
%TO.N,+3.3V*%
X94120000Y-91440000D03*
%TO.N,VCCINT*%
X107420000Y-74040000D03*
X110720000Y-72871245D03*
%TO.N,Net-(U1A-IOT_78)*%
X96020000Y-56990000D03*
X108950331Y-54409669D03*
X107813413Y-63433413D03*
X103426511Y-65765000D03*
%TO.N,Net-(U1A-IOT_77)*%
X94420000Y-56990000D03*
X106346824Y-56078354D03*
X105764015Y-57947188D03*
X106304620Y-61624620D03*
%TO.N,Net-(U1A-IOT_76)*%
X92820000Y-56990000D03*
X104770764Y-58790764D03*
X104559817Y-56192198D03*
X104145000Y-65549879D03*
%TO.N,Net-(U1A-IOT_75)*%
X91220000Y-56990000D03*
X92062822Y-66066932D03*
%TO.N,Net-(U1A-IOT_74)*%
X89620000Y-56990000D03*
X91683603Y-66714000D03*
%TO.N,Net-(U1A-IOT_85_GBIN0)*%
X108820000Y-56990000D03*
X105570000Y-68003172D03*
X99231828Y-67865000D03*
X96970050Y-65548879D03*
%TO.N,Net-(U1A-IOT_84_GBIN1)*%
X105620000Y-56990000D03*
X97720000Y-65540000D03*
%TO.N,Net-(U1A-IOT_87)*%
X109420000Y-63340000D03*
X94612568Y-63308641D03*
%TO.N,Net-(U1A-IOT_79)*%
X97620000Y-56990000D03*
X102719999Y-65361351D03*
%TO.N,Net-(U1A-IOT_80)*%
X102770003Y-58389000D03*
X102595000Y-62693070D03*
%TO.N,Net-(U1A-IOT_81)*%
X102020000Y-58389000D03*
X101960642Y-63094781D03*
%TO.N,Net-(U1A-IOT_82)*%
X101385642Y-62396239D03*
X102420000Y-56990000D03*
%TO.N,Net-(U1A-IOT_83)*%
X104020000Y-56990000D03*
X100707989Y-65454680D03*
%TO.N,GND*%
X108100330Y-53559669D03*
X104710000Y-51710417D03*
X101620000Y-54240000D03*
D15*
%TO.N,/HSYNC*%
X105120000Y-50840000D03*
D14*
%TO.N,+3.3V*%
X111020000Y-75840000D03*
X86320000Y-80840000D03*
X110820000Y-70340000D03*
X101220000Y-87140000D03*
X108320000Y-86140000D03*
X100720000Y-62840000D03*
X86420000Y-68840000D03*
X106120000Y-59140000D03*
X93220000Y-87140000D03*
X95820000Y-62940000D03*
%TO.N,GND*%
X86220000Y-84540000D03*
X110920000Y-77240000D03*
X87220000Y-85740000D03*
X98720000Y-90440000D03*
X92720000Y-62940000D03*
X109020000Y-61340000D03*
X86420000Y-67940000D03*
X100720000Y-84640000D03*
X108920000Y-89640000D03*
X100720000Y-59140000D03*
%TO.N,VCCINT*%
X87720000Y-60340000D03*
X106420000Y-62940000D03*
X86320000Y-79340000D03*
X110920000Y-74340000D03*
X96020000Y-87240000D03*
%TO.N,/SDI*%
X105982836Y-87002837D03*
X105220000Y-84540000D03*
%TO.N,/SDO*%
X104420000Y-84440000D03*
X103420000Y-90940000D03*
%TO.N,/SCK*%
X106728072Y-84527500D03*
X98220000Y-91640000D03*
%TO.N,Net-(U1C-IOB_42_CBSEL0)*%
X100570000Y-87766101D03*
X102620000Y-86840000D03*
%TO.N,VCCPLL*%
X90720000Y-89540000D03*
%TD*%
%TA.AperFunction,Conductor*%
%TO.N,+3.3V*%
G36*
X89862800Y-58559685D02*
G01*
X89908555Y-58612489D01*
X89916569Y-58665981D01*
X89919500Y-58665981D01*
X89919500Y-58674108D01*
X89919500Y-58805892D01*
X89932763Y-58855391D01*
X89953608Y-58933187D01*
X89961475Y-58946812D01*
X90019500Y-59047314D01*
X90112686Y-59140500D01*
X90200610Y-59191263D01*
X90225944Y-59205890D01*
X90226814Y-59206392D01*
X90354108Y-59240500D01*
X90354110Y-59240500D01*
X90485890Y-59240500D01*
X90485892Y-59240500D01*
X90613186Y-59206392D01*
X90727314Y-59140500D01*
X90820500Y-59047314D01*
X90886392Y-58933186D01*
X90920500Y-58805892D01*
X90920500Y-58674108D01*
X90920500Y-58665981D01*
X90923517Y-58665981D01*
X90932060Y-58611161D01*
X90978435Y-58558901D01*
X91044239Y-58540000D01*
X100312824Y-58540000D01*
X100379863Y-58559685D01*
X100425618Y-58612489D01*
X100435562Y-58681647D01*
X100406537Y-58745203D01*
X100400505Y-58751681D01*
X100319502Y-58832683D01*
X100319500Y-58832686D01*
X100253608Y-58946812D01*
X100219500Y-59074108D01*
X100219500Y-59205891D01*
X100253608Y-59333187D01*
X100286554Y-59390250D01*
X100319500Y-59447314D01*
X100412686Y-59540500D01*
X100526814Y-59606392D01*
X100654108Y-59640500D01*
X100654110Y-59640500D01*
X100785890Y-59640500D01*
X100785892Y-59640500D01*
X100913186Y-59606392D01*
X101027314Y-59540500D01*
X101120500Y-59447314D01*
X101186392Y-59333186D01*
X101220500Y-59205892D01*
X101220500Y-59074108D01*
X101186392Y-58946814D01*
X101120500Y-58832686D01*
X101039495Y-58751681D01*
X101006010Y-58690358D01*
X101010994Y-58620666D01*
X101052866Y-58564733D01*
X101118330Y-58540316D01*
X101127176Y-58540000D01*
X101457660Y-58540000D01*
X101524699Y-58559685D01*
X101565047Y-58601999D01*
X101619500Y-58696314D01*
X101712686Y-58789500D01*
X101826814Y-58855392D01*
X101954108Y-58889500D01*
X101954110Y-58889500D01*
X102085890Y-58889500D01*
X102085892Y-58889500D01*
X102213186Y-58855392D01*
X102327314Y-58789500D01*
X102327316Y-58789497D01*
X102333000Y-58786216D01*
X102400900Y-58769743D01*
X102457002Y-58786216D01*
X102462687Y-58789498D01*
X102462689Y-58789500D01*
X102576817Y-58855392D01*
X102704111Y-58889500D01*
X102704113Y-58889500D01*
X102835893Y-58889500D01*
X102835895Y-58889500D01*
X102963189Y-58855392D01*
X103077317Y-58789500D01*
X103170503Y-58696314D01*
X103224956Y-58601999D01*
X103275524Y-58553784D01*
X103332343Y-58540000D01*
X104158201Y-58540000D01*
X104225240Y-58559685D01*
X104270995Y-58612489D01*
X104280939Y-58681647D01*
X104277979Y-58696077D01*
X104270264Y-58724872D01*
X104270264Y-58856656D01*
X104287318Y-58920303D01*
X104304372Y-58983951D01*
X104337318Y-59041014D01*
X104370264Y-59098078D01*
X104463450Y-59191264D01*
X104577578Y-59257156D01*
X104704872Y-59291264D01*
X104704874Y-59291264D01*
X104836654Y-59291264D01*
X104836656Y-59291264D01*
X104963950Y-59257156D01*
X105078078Y-59191264D01*
X105171264Y-59098078D01*
X105237156Y-58983950D01*
X105271264Y-58856656D01*
X105271264Y-58724872D01*
X105263552Y-58696090D01*
X105265215Y-58626245D01*
X105304377Y-58568382D01*
X105368605Y-58540877D01*
X105383327Y-58540000D01*
X111093502Y-58540000D01*
X111160541Y-58559685D01*
X111206296Y-58612489D01*
X111217489Y-58662247D01*
X111249349Y-60917912D01*
X111414470Y-72608598D01*
X111395734Y-72675909D01*
X111343581Y-72722405D01*
X111274570Y-72733324D01*
X111210611Y-72705199D01*
X111183095Y-72672349D01*
X111120500Y-72563931D01*
X111027314Y-72470745D01*
X110970250Y-72437799D01*
X110913187Y-72404853D01*
X110849539Y-72387799D01*
X110785892Y-72370745D01*
X110654108Y-72370745D01*
X110526812Y-72404853D01*
X110412686Y-72470745D01*
X110412683Y-72470747D01*
X110319502Y-72563928D01*
X110319500Y-72563931D01*
X110253608Y-72678057D01*
X110219500Y-72805353D01*
X110219500Y-72937136D01*
X110253608Y-73064432D01*
X110262090Y-73079123D01*
X110319500Y-73178559D01*
X110412686Y-73271745D01*
X110495357Y-73319475D01*
X110543573Y-73370042D01*
X110556796Y-73438649D01*
X110530828Y-73503514D01*
X110473914Y-73544042D01*
X110459725Y-73548026D01*
X110448823Y-73550398D01*
X110438627Y-73552890D01*
X110438624Y-73552891D01*
X110357916Y-73595899D01*
X110357913Y-73595901D01*
X110305104Y-73641660D01*
X110287160Y-73659242D01*
X110287154Y-73659249D01*
X110242511Y-73739059D01*
X110242509Y-73739064D01*
X110222826Y-73806096D01*
X110222825Y-73806101D01*
X110222825Y-73806102D01*
X110214500Y-73864000D01*
X110214500Y-74902981D01*
X110221622Y-74956612D01*
X110238513Y-75019091D01*
X110244919Y-75038788D01*
X110295472Y-75114410D01*
X110295748Y-75114823D01*
X110338948Y-75155646D01*
X110346528Y-75162809D01*
X110365818Y-75178923D01*
X110449681Y-75215407D01*
X110518346Y-75228324D01*
X110576786Y-75230846D01*
X111315858Y-75156938D01*
X111384521Y-75169855D01*
X111435303Y-75217844D01*
X111452182Y-75278572D01*
X111473453Y-76784538D01*
X111454717Y-76851849D01*
X111402564Y-76898345D01*
X111333553Y-76909264D01*
X111269594Y-76881139D01*
X111261784Y-76873970D01*
X111227316Y-76839502D01*
X111227314Y-76839500D01*
X111170250Y-76806554D01*
X111113187Y-76773608D01*
X111049539Y-76756554D01*
X110985892Y-76739500D01*
X110854108Y-76739500D01*
X110726812Y-76773608D01*
X110612686Y-76839500D01*
X110612683Y-76839502D01*
X110519502Y-76932683D01*
X110519500Y-76932686D01*
X110453608Y-77046812D01*
X110419500Y-77174108D01*
X110419500Y-77305891D01*
X110453608Y-77433187D01*
X110486554Y-77490250D01*
X110519500Y-77547314D01*
X110612686Y-77640500D01*
X110726814Y-77706392D01*
X110854108Y-77740500D01*
X110854110Y-77740500D01*
X110985890Y-77740500D01*
X110985892Y-77740500D01*
X111113186Y-77706392D01*
X111227314Y-77640500D01*
X111274423Y-77593390D01*
X111335744Y-77559906D01*
X111405435Y-77564890D01*
X111461369Y-77606761D01*
X111485787Y-77672225D01*
X111486091Y-77679321D01*
X111716824Y-94015219D01*
X111698088Y-94082530D01*
X111645935Y-94129026D01*
X111593786Y-94140966D01*
X92210751Y-94289496D01*
X92209801Y-94289500D01*
X85246966Y-94289500D01*
X85179927Y-94269815D01*
X85134172Y-94217011D01*
X85122984Y-94163405D01*
X85164277Y-91720247D01*
X91169500Y-91720247D01*
X91169500Y-93459752D01*
X91181131Y-93518229D01*
X91181132Y-93518230D01*
X91225447Y-93584552D01*
X91291769Y-93628867D01*
X91291770Y-93628868D01*
X91350247Y-93640499D01*
X91350250Y-93640500D01*
X91350252Y-93640500D01*
X93089750Y-93640500D01*
X93089751Y-93640499D01*
X93104568Y-93637552D01*
X93148229Y-93628868D01*
X93148229Y-93628867D01*
X93148231Y-93628867D01*
X93214552Y-93584552D01*
X93258867Y-93518231D01*
X93258867Y-93518229D01*
X93258868Y-93518229D01*
X93270499Y-93459752D01*
X93270500Y-93459750D01*
X93270500Y-93156048D01*
X93290185Y-93089009D01*
X93342989Y-93043254D01*
X93412147Y-93033310D01*
X93475703Y-93062335D01*
X93505938Y-93104264D01*
X93506694Y-93103879D01*
X93605375Y-93297550D01*
X93644728Y-93351716D01*
X94277037Y-92719408D01*
X94294075Y-92782993D01*
X94359901Y-92897007D01*
X94452993Y-92990099D01*
X94567007Y-93055925D01*
X94630590Y-93072962D01*
X93998282Y-93705269D01*
X93998282Y-93705270D01*
X94052449Y-93744624D01*
X94241782Y-93841095D01*
X94443870Y-93906757D01*
X94653754Y-93940000D01*
X94866246Y-93940000D01*
X95076127Y-93906757D01*
X95076130Y-93906757D01*
X95278217Y-93841095D01*
X95467554Y-93744622D01*
X95521716Y-93705270D01*
X95521717Y-93705270D01*
X94889408Y-93072962D01*
X94952993Y-93055925D01*
X95067007Y-92990099D01*
X95160099Y-92897007D01*
X95225925Y-92782993D01*
X95242962Y-92719409D01*
X95875270Y-93351717D01*
X95875270Y-93351716D01*
X95914622Y-93297554D01*
X96011095Y-93108217D01*
X96068343Y-92932026D01*
X96107780Y-92874351D01*
X96172139Y-92847152D01*
X96240985Y-92859066D01*
X96292461Y-92906310D01*
X96300835Y-92922891D01*
X96369058Y-93087596D01*
X96484024Y-93259657D01*
X96630342Y-93405975D01*
X96630345Y-93405977D01*
X96802402Y-93520941D01*
X96993580Y-93600130D01*
X97138052Y-93628867D01*
X97196530Y-93640499D01*
X97196534Y-93640500D01*
X97196535Y-93640500D01*
X97403466Y-93640500D01*
X97403467Y-93640499D01*
X97606420Y-93600130D01*
X97797598Y-93520941D01*
X97969655Y-93405977D01*
X98115977Y-93259655D01*
X98230941Y-93087598D01*
X98310130Y-92896420D01*
X98350500Y-92693465D01*
X98350500Y-92486535D01*
X98350499Y-92486530D01*
X98789500Y-92486530D01*
X98789500Y-92693469D01*
X98829868Y-92896412D01*
X98829870Y-92896420D01*
X98909058Y-93087596D01*
X99024024Y-93259657D01*
X99170342Y-93405975D01*
X99170345Y-93405977D01*
X99342402Y-93520941D01*
X99533580Y-93600130D01*
X99678052Y-93628867D01*
X99736530Y-93640499D01*
X99736534Y-93640500D01*
X99736535Y-93640500D01*
X99943466Y-93640500D01*
X99943467Y-93640499D01*
X100146420Y-93600130D01*
X100337598Y-93520941D01*
X100509655Y-93405977D01*
X100655977Y-93259655D01*
X100770941Y-93087598D01*
X100850130Y-92896420D01*
X100890500Y-92693465D01*
X100890500Y-92486535D01*
X100890499Y-92486530D01*
X101329500Y-92486530D01*
X101329500Y-92693469D01*
X101369868Y-92896412D01*
X101369870Y-92896420D01*
X101449058Y-93087596D01*
X101564024Y-93259657D01*
X101710342Y-93405975D01*
X101710345Y-93405977D01*
X101882402Y-93520941D01*
X102073580Y-93600130D01*
X102218052Y-93628867D01*
X102276530Y-93640499D01*
X102276534Y-93640500D01*
X102276535Y-93640500D01*
X102483466Y-93640500D01*
X102483467Y-93640499D01*
X102686420Y-93600130D01*
X102877598Y-93520941D01*
X103049655Y-93405977D01*
X103195977Y-93259655D01*
X103310941Y-93087598D01*
X103390130Y-92896420D01*
X103430500Y-92693465D01*
X103430500Y-92486535D01*
X103430499Y-92486530D01*
X103869500Y-92486530D01*
X103869500Y-92693469D01*
X103909868Y-92896412D01*
X103909870Y-92896420D01*
X103989058Y-93087596D01*
X104104024Y-93259657D01*
X104250342Y-93405975D01*
X104250345Y-93405977D01*
X104422402Y-93520941D01*
X104613580Y-93600130D01*
X104758052Y-93628867D01*
X104816530Y-93640499D01*
X104816534Y-93640500D01*
X104816535Y-93640500D01*
X105023466Y-93640500D01*
X105023467Y-93640499D01*
X105226420Y-93600130D01*
X105417598Y-93520941D01*
X105589655Y-93405977D01*
X105735977Y-93259655D01*
X105850941Y-93087598D01*
X105930130Y-92896420D01*
X105970500Y-92693465D01*
X105970500Y-92486535D01*
X105930130Y-92283580D01*
X105850941Y-92092402D01*
X105735977Y-91920345D01*
X105735975Y-91920342D01*
X105589657Y-91774024D01*
X105487689Y-91705892D01*
X105417598Y-91659059D01*
X105226420Y-91579870D01*
X105226412Y-91579868D01*
X105023469Y-91539500D01*
X105023465Y-91539500D01*
X104816535Y-91539500D01*
X104816530Y-91539500D01*
X104613587Y-91579868D01*
X104613579Y-91579870D01*
X104422403Y-91659058D01*
X104250342Y-91774024D01*
X104104024Y-91920342D01*
X103989058Y-92092403D01*
X103909870Y-92283579D01*
X103909868Y-92283587D01*
X103869500Y-92486530D01*
X103430499Y-92486530D01*
X103390130Y-92283580D01*
X103310941Y-92092402D01*
X103195977Y-91920345D01*
X103195975Y-91920342D01*
X103049657Y-91774024D01*
X102947689Y-91705892D01*
X102877598Y-91659059D01*
X102686420Y-91579870D01*
X102686412Y-91579868D01*
X102483469Y-91539500D01*
X102483465Y-91539500D01*
X102276535Y-91539500D01*
X102276530Y-91539500D01*
X102073587Y-91579868D01*
X102073579Y-91579870D01*
X101882403Y-91659058D01*
X101710342Y-91774024D01*
X101564024Y-91920342D01*
X101449058Y-92092403D01*
X101369870Y-92283579D01*
X101369868Y-92283587D01*
X101329500Y-92486530D01*
X100890499Y-92486530D01*
X100850130Y-92283580D01*
X100770941Y-92092402D01*
X100655977Y-91920345D01*
X100655975Y-91920342D01*
X100509657Y-91774024D01*
X100407689Y-91705892D01*
X100337598Y-91659059D01*
X100146420Y-91579870D01*
X100146412Y-91579868D01*
X99943469Y-91539500D01*
X99943465Y-91539500D01*
X99736535Y-91539500D01*
X99736530Y-91539500D01*
X99533587Y-91579868D01*
X99533579Y-91579870D01*
X99342403Y-91659058D01*
X99170342Y-91774024D01*
X99024024Y-91920342D01*
X98909058Y-92092403D01*
X98829870Y-92283579D01*
X98829868Y-92283587D01*
X98789500Y-92486530D01*
X98350499Y-92486530D01*
X98310130Y-92283580D01*
X98308475Y-92279586D01*
X98301001Y-92210121D01*
X98332271Y-92147639D01*
X98390939Y-92112352D01*
X98413186Y-92106392D01*
X98527314Y-92040500D01*
X98620500Y-91947314D01*
X98686392Y-91833186D01*
X98720500Y-91705892D01*
X98720500Y-91574108D01*
X98686392Y-91446814D01*
X98620500Y-91332686D01*
X98527314Y-91239500D01*
X98470250Y-91206554D01*
X98413187Y-91173608D01*
X98349539Y-91156554D01*
X98285892Y-91139500D01*
X98154108Y-91139500D01*
X98026812Y-91173608D01*
X97912686Y-91239500D01*
X97912683Y-91239502D01*
X97819502Y-91332683D01*
X97819500Y-91332686D01*
X97753609Y-91446812D01*
X97742371Y-91488752D01*
X97706005Y-91548413D01*
X97643158Y-91578941D01*
X97598405Y-91578275D01*
X97403469Y-91539500D01*
X97403465Y-91539500D01*
X97196535Y-91539500D01*
X97196530Y-91539500D01*
X96993587Y-91579868D01*
X96993579Y-91579870D01*
X96802403Y-91659058D01*
X96630342Y-91774024D01*
X96484024Y-91920342D01*
X96369057Y-92092403D01*
X96300835Y-92257108D01*
X96256994Y-92311511D01*
X96190700Y-92333576D01*
X96123000Y-92316297D01*
X96075390Y-92265159D01*
X96068343Y-92247973D01*
X96011095Y-92071782D01*
X95914624Y-91882449D01*
X95875270Y-91828282D01*
X95875269Y-91828282D01*
X95242962Y-92460590D01*
X95225925Y-92397007D01*
X95160099Y-92282993D01*
X95067007Y-92189901D01*
X94952993Y-92124075D01*
X94889409Y-92107037D01*
X95521716Y-91474728D01*
X95467550Y-91435375D01*
X95278217Y-91338904D01*
X95076129Y-91273242D01*
X94866246Y-91240000D01*
X94653754Y-91240000D01*
X94443872Y-91273242D01*
X94443869Y-91273242D01*
X94241782Y-91338904D01*
X94052439Y-91435380D01*
X93998282Y-91474727D01*
X93998282Y-91474728D01*
X94630591Y-92107037D01*
X94567007Y-92124075D01*
X94452993Y-92189901D01*
X94359901Y-92282993D01*
X94294075Y-92397007D01*
X94277037Y-92460591D01*
X93644728Y-91828282D01*
X93644727Y-91828282D01*
X93605380Y-91882439D01*
X93506694Y-92076121D01*
X93505678Y-92075603D01*
X93465212Y-92125813D01*
X93398916Y-92147872D01*
X93331218Y-92130588D01*
X93283612Y-92079447D01*
X93270500Y-92023951D01*
X93270500Y-91720249D01*
X93270499Y-91720247D01*
X93258868Y-91661770D01*
X93258867Y-91661769D01*
X93214552Y-91595447D01*
X93148230Y-91551132D01*
X93148229Y-91551131D01*
X93089752Y-91539500D01*
X93089748Y-91539500D01*
X91350252Y-91539500D01*
X91350247Y-91539500D01*
X91291770Y-91551131D01*
X91291769Y-91551132D01*
X91225447Y-91595447D01*
X91181132Y-91661769D01*
X91181131Y-91661770D01*
X91169500Y-91720247D01*
X85164277Y-91720247D01*
X85187028Y-90374108D01*
X98219500Y-90374108D01*
X98219500Y-90505891D01*
X98253608Y-90633187D01*
X98286554Y-90690250D01*
X98319500Y-90747314D01*
X98412686Y-90840500D01*
X98526814Y-90906392D01*
X98654108Y-90940500D01*
X98654110Y-90940500D01*
X98785890Y-90940500D01*
X98785892Y-90940500D01*
X98913186Y-90906392D01*
X98969103Y-90874108D01*
X102919500Y-90874108D01*
X102919500Y-91005891D01*
X102953608Y-91133187D01*
X102957253Y-91139500D01*
X103019500Y-91247314D01*
X103112686Y-91340500D01*
X103226814Y-91406392D01*
X103354108Y-91440500D01*
X103354110Y-91440500D01*
X103485890Y-91440500D01*
X103485892Y-91440500D01*
X103613186Y-91406392D01*
X103727314Y-91340500D01*
X103820500Y-91247314D01*
X103886392Y-91133186D01*
X103920500Y-91005892D01*
X103920500Y-90874108D01*
X103886392Y-90746814D01*
X103820500Y-90632686D01*
X103727314Y-90539500D01*
X103669100Y-90505890D01*
X103613187Y-90473608D01*
X103549539Y-90456554D01*
X103485892Y-90439500D01*
X103354108Y-90439500D01*
X103226812Y-90473608D01*
X103112686Y-90539500D01*
X103112683Y-90539502D01*
X103019502Y-90632683D01*
X103019500Y-90632686D01*
X102953608Y-90746812D01*
X102919500Y-90874108D01*
X98969103Y-90874108D01*
X99027314Y-90840500D01*
X99120500Y-90747314D01*
X99186392Y-90633186D01*
X99220500Y-90505892D01*
X99220500Y-90374108D01*
X99186392Y-90246814D01*
X99120500Y-90132686D01*
X99027314Y-90039500D01*
X98970250Y-90006554D01*
X98913187Y-89973608D01*
X98849539Y-89956554D01*
X98785892Y-89939500D01*
X98654108Y-89939500D01*
X98526812Y-89973608D01*
X98412686Y-90039500D01*
X98412683Y-90039502D01*
X98319502Y-90132683D01*
X98319500Y-90132686D01*
X98253608Y-90246812D01*
X98219500Y-90374108D01*
X85187028Y-90374108D01*
X85210861Y-88964003D01*
X90014500Y-88964003D01*
X90014500Y-90002980D01*
X90021621Y-90056607D01*
X90021622Y-90056612D01*
X90035079Y-90106391D01*
X90038513Y-90119091D01*
X90044919Y-90138788D01*
X90083087Y-90195883D01*
X90095748Y-90214823D01*
X90138947Y-90255645D01*
X90146528Y-90262809D01*
X90165818Y-90278923D01*
X90249681Y-90315407D01*
X90318346Y-90328324D01*
X90376786Y-90330846D01*
X91128786Y-90255646D01*
X91161972Y-90249543D01*
X91201145Y-90238952D01*
X91201373Y-90238891D01*
X91282085Y-90195881D01*
X91334889Y-90150126D01*
X91352843Y-90132535D01*
X91397490Y-90052718D01*
X91417175Y-89985679D01*
X91425500Y-89927781D01*
X91425500Y-89574108D01*
X108419500Y-89574108D01*
X108419500Y-89705891D01*
X108453608Y-89833187D01*
X108486554Y-89890250D01*
X108519500Y-89947314D01*
X108612686Y-90040500D01*
X108726814Y-90106392D01*
X108854108Y-90140500D01*
X108854110Y-90140500D01*
X108985890Y-90140500D01*
X108985892Y-90140500D01*
X109113186Y-90106392D01*
X109227314Y-90040500D01*
X109320500Y-89947314D01*
X109386392Y-89833186D01*
X109420500Y-89705892D01*
X109420500Y-89574108D01*
X109386392Y-89446814D01*
X109320500Y-89332686D01*
X109227314Y-89239500D01*
X109170250Y-89206554D01*
X109113187Y-89173608D01*
X109049539Y-89156554D01*
X108985892Y-89139500D01*
X108854108Y-89139500D01*
X108726812Y-89173608D01*
X108612686Y-89239500D01*
X108612683Y-89239502D01*
X108519502Y-89332683D01*
X108519500Y-89332686D01*
X108453608Y-89446812D01*
X108419500Y-89574108D01*
X91425500Y-89574108D01*
X91425500Y-88964000D01*
X91420803Y-88920316D01*
X91416897Y-88902364D01*
X91409602Y-88868825D01*
X91409348Y-88867789D01*
X91407110Y-88858627D01*
X91364100Y-88777915D01*
X91318345Y-88725111D01*
X91318339Y-88725104D01*
X91300757Y-88707160D01*
X91300756Y-88707159D01*
X91300754Y-88707157D01*
X91300752Y-88707156D01*
X91300750Y-88707154D01*
X91220940Y-88662511D01*
X91220935Y-88662509D01*
X91153903Y-88642826D01*
X91153899Y-88642825D01*
X91153898Y-88642825D01*
X91096000Y-88634500D01*
X90344000Y-88634500D01*
X90343992Y-88634500D01*
X90300313Y-88639197D01*
X90248825Y-88650397D01*
X90238627Y-88652890D01*
X90238624Y-88652891D01*
X90157916Y-88695899D01*
X90157913Y-88695901D01*
X90105104Y-88741660D01*
X90087160Y-88759242D01*
X90087154Y-88759249D01*
X90042511Y-88839059D01*
X90042509Y-88839064D01*
X90022826Y-88906096D01*
X90022825Y-88906101D01*
X90022825Y-88906102D01*
X90014502Y-88963992D01*
X90014500Y-88964003D01*
X85210861Y-88964003D01*
X85251425Y-86564000D01*
X95414500Y-86564000D01*
X95414500Y-87602981D01*
X95421622Y-87656612D01*
X95438513Y-87719091D01*
X95444919Y-87738788D01*
X95483087Y-87795883D01*
X95495748Y-87814823D01*
X95538947Y-87855645D01*
X95546528Y-87862809D01*
X95565818Y-87878923D01*
X95649681Y-87915407D01*
X95718346Y-87928324D01*
X95776786Y-87930846D01*
X96528786Y-87855646D01*
X96561972Y-87849543D01*
X96601145Y-87838952D01*
X96601373Y-87838891D01*
X96682085Y-87795881D01*
X96734889Y-87750126D01*
X96752843Y-87732535D01*
X96770925Y-87700209D01*
X100069500Y-87700209D01*
X100069500Y-87831993D01*
X100082075Y-87878923D01*
X100103608Y-87959288D01*
X100136554Y-88016351D01*
X100169500Y-88073415D01*
X100262686Y-88166601D01*
X100376814Y-88232493D01*
X100504108Y-88266601D01*
X100504110Y-88266601D01*
X100635890Y-88266601D01*
X100635892Y-88266601D01*
X100763186Y-88232493D01*
X100877314Y-88166601D01*
X100970500Y-88073415D01*
X101036392Y-87959287D01*
X101070500Y-87831993D01*
X101070500Y-87700209D01*
X101036392Y-87572915D01*
X100970500Y-87458787D01*
X100877314Y-87365601D01*
X100820250Y-87332655D01*
X100763187Y-87299709D01*
X100699539Y-87282655D01*
X100635892Y-87265601D01*
X100504108Y-87265601D01*
X100376812Y-87299709D01*
X100262686Y-87365601D01*
X100262683Y-87365603D01*
X100169502Y-87458784D01*
X100169500Y-87458787D01*
X100103608Y-87572913D01*
X100069500Y-87700209D01*
X96770925Y-87700209D01*
X96797490Y-87652718D01*
X96817175Y-87585679D01*
X96825500Y-87527781D01*
X96825500Y-86774108D01*
X102119500Y-86774108D01*
X102119500Y-86905891D01*
X102153608Y-87033187D01*
X102174128Y-87068728D01*
X102219500Y-87147314D01*
X102312686Y-87240500D01*
X102426814Y-87306392D01*
X102554108Y-87340500D01*
X102554110Y-87340500D01*
X102685890Y-87340500D01*
X102685892Y-87340500D01*
X102813186Y-87306392D01*
X102927314Y-87240500D01*
X103020500Y-87147314D01*
X103086392Y-87033186D01*
X103112179Y-86936945D01*
X105482336Y-86936945D01*
X105482336Y-87068728D01*
X105516444Y-87196024D01*
X105542121Y-87240497D01*
X105582336Y-87310151D01*
X105675522Y-87403337D01*
X105789650Y-87469229D01*
X105916944Y-87503337D01*
X105916946Y-87503337D01*
X106048726Y-87503337D01*
X106048728Y-87503337D01*
X106176022Y-87469229D01*
X106290150Y-87403337D01*
X106383336Y-87310151D01*
X106449228Y-87196023D01*
X106483336Y-87068729D01*
X106483336Y-86936945D01*
X106449228Y-86809651D01*
X106383336Y-86695523D01*
X106290150Y-86602337D01*
X106233086Y-86569391D01*
X106176023Y-86536445D01*
X106062779Y-86506102D01*
X106048728Y-86502337D01*
X105916944Y-86502337D01*
X105789648Y-86536445D01*
X105675522Y-86602337D01*
X105675519Y-86602339D01*
X105582338Y-86695520D01*
X105582336Y-86695523D01*
X105516444Y-86809649D01*
X105482336Y-86936945D01*
X103112179Y-86936945D01*
X103120500Y-86905892D01*
X103120500Y-86774108D01*
X103086392Y-86646814D01*
X103020500Y-86532686D01*
X102927314Y-86439500D01*
X102870250Y-86406554D01*
X102813187Y-86373608D01*
X102749539Y-86356554D01*
X102685892Y-86339500D01*
X102554108Y-86339500D01*
X102426812Y-86373608D01*
X102312686Y-86439500D01*
X102312683Y-86439502D01*
X102219502Y-86532683D01*
X102219500Y-86532686D01*
X102153608Y-86646812D01*
X102119500Y-86774108D01*
X96825500Y-86774108D01*
X96825500Y-86564000D01*
X96820803Y-86520316D01*
X96816892Y-86502337D01*
X96809602Y-86468825D01*
X96809348Y-86467789D01*
X96807110Y-86458627D01*
X96764100Y-86377915D01*
X96718345Y-86325111D01*
X96718339Y-86325104D01*
X96700757Y-86307160D01*
X96700756Y-86307159D01*
X96700754Y-86307157D01*
X96700752Y-86307156D01*
X96700750Y-86307154D01*
X96620940Y-86262511D01*
X96620935Y-86262509D01*
X96553903Y-86242826D01*
X96553899Y-86242825D01*
X96553898Y-86242825D01*
X96496000Y-86234500D01*
X95744000Y-86234500D01*
X95743992Y-86234500D01*
X95700313Y-86239197D01*
X95648825Y-86250397D01*
X95638627Y-86252890D01*
X95638624Y-86252891D01*
X95557916Y-86295899D01*
X95557913Y-86295901D01*
X95505104Y-86341660D01*
X95487160Y-86359242D01*
X95487154Y-86359249D01*
X95442511Y-86439059D01*
X95442509Y-86439064D01*
X95422826Y-86506096D01*
X95422825Y-86506101D01*
X95422825Y-86506102D01*
X95414500Y-86564000D01*
X85251425Y-86564000D01*
X85266465Y-85674108D01*
X86719500Y-85674108D01*
X86719500Y-85805891D01*
X86753608Y-85933187D01*
X86786554Y-85990250D01*
X86819500Y-86047314D01*
X86912686Y-86140500D01*
X87026814Y-86206392D01*
X87154108Y-86240500D01*
X87154110Y-86240500D01*
X87285890Y-86240500D01*
X87285892Y-86240500D01*
X87413186Y-86206392D01*
X87527314Y-86140500D01*
X87620500Y-86047314D01*
X87686392Y-85933186D01*
X87720500Y-85805892D01*
X87720500Y-85674108D01*
X87686392Y-85546814D01*
X87620500Y-85432686D01*
X87527314Y-85339500D01*
X87470250Y-85306554D01*
X87413187Y-85273608D01*
X87349539Y-85256554D01*
X87285892Y-85239500D01*
X87154108Y-85239500D01*
X87026812Y-85273608D01*
X86912686Y-85339500D01*
X86912683Y-85339502D01*
X86819502Y-85432683D01*
X86819500Y-85432686D01*
X86753608Y-85546812D01*
X86719500Y-85674108D01*
X85266465Y-85674108D01*
X85286747Y-84474108D01*
X85719500Y-84474108D01*
X85719500Y-84605891D01*
X85753608Y-84733187D01*
X85761766Y-84747316D01*
X85819500Y-84847314D01*
X85912686Y-84940500D01*
X86026814Y-85006392D01*
X86154108Y-85040500D01*
X86154110Y-85040500D01*
X86285890Y-85040500D01*
X86285892Y-85040500D01*
X86413186Y-85006392D01*
X86527314Y-84940500D01*
X86620500Y-84847314D01*
X86686392Y-84733186D01*
X86720500Y-84605892D01*
X86720500Y-84574108D01*
X100219500Y-84574108D01*
X100219500Y-84705892D01*
X100236554Y-84769539D01*
X100253608Y-84833187D01*
X100270938Y-84863203D01*
X100319500Y-84947314D01*
X100412686Y-85040500D01*
X100526814Y-85106392D01*
X100654108Y-85140500D01*
X100654110Y-85140500D01*
X100785890Y-85140500D01*
X100785892Y-85140500D01*
X100913186Y-85106392D01*
X101027314Y-85040500D01*
X101120500Y-84947314D01*
X101186392Y-84833186D01*
X101220500Y-84705892D01*
X101220500Y-84574108D01*
X101186392Y-84446814D01*
X101186389Y-84446808D01*
X101175520Y-84427982D01*
X101175519Y-84427981D01*
X101144415Y-84374108D01*
X103919500Y-84374108D01*
X103919500Y-84505891D01*
X103953608Y-84633187D01*
X103986554Y-84690250D01*
X104019500Y-84747314D01*
X104112686Y-84840500D01*
X104226814Y-84906392D01*
X104354108Y-84940500D01*
X104354110Y-84940500D01*
X104485890Y-84940500D01*
X104485892Y-84940500D01*
X104613186Y-84906392D01*
X104699038Y-84856824D01*
X104766934Y-84840352D01*
X104832961Y-84863203D01*
X104848717Y-84876531D01*
X104912686Y-84940500D01*
X105026814Y-85006392D01*
X105154108Y-85040500D01*
X105154110Y-85040500D01*
X105285890Y-85040500D01*
X105285892Y-85040500D01*
X105413186Y-85006392D01*
X105527314Y-84940500D01*
X105620500Y-84847314D01*
X105686392Y-84733186D01*
X105720500Y-84605892D01*
X105720500Y-84474108D01*
X105717151Y-84461608D01*
X106227572Y-84461608D01*
X106227572Y-84593392D01*
X106238235Y-84633186D01*
X106261680Y-84720687D01*
X106277055Y-84747316D01*
X106327572Y-84834814D01*
X106420758Y-84928000D01*
X106534886Y-84993892D01*
X106662180Y-85028000D01*
X106662182Y-85028000D01*
X106793962Y-85028000D01*
X106793964Y-85028000D01*
X106921258Y-84993892D01*
X107035386Y-84928000D01*
X107128572Y-84834814D01*
X107194464Y-84720686D01*
X107228572Y-84593392D01*
X107228572Y-84461608D01*
X107194464Y-84334314D01*
X107128572Y-84220186D01*
X107035386Y-84127000D01*
X106942909Y-84073608D01*
X106921259Y-84061108D01*
X106857611Y-84044054D01*
X106793964Y-84027000D01*
X106662180Y-84027000D01*
X106534884Y-84061108D01*
X106420758Y-84127000D01*
X106420755Y-84127002D01*
X106327574Y-84220183D01*
X106327572Y-84220186D01*
X106261680Y-84334312D01*
X106231536Y-84446814D01*
X106227572Y-84461608D01*
X105717151Y-84461608D01*
X105686392Y-84346814D01*
X105620500Y-84232686D01*
X105527314Y-84139500D01*
X105464903Y-84103467D01*
X105413187Y-84073608D01*
X105349539Y-84056554D01*
X105285892Y-84039500D01*
X105154108Y-84039500D01*
X105026811Y-84073608D01*
X104940961Y-84123174D01*
X104873061Y-84139645D01*
X104807034Y-84116793D01*
X104791281Y-84103467D01*
X104727316Y-84039502D01*
X104727314Y-84039500D01*
X104670250Y-84006554D01*
X104613187Y-83973608D01*
X104549539Y-83956554D01*
X104485892Y-83939500D01*
X104354108Y-83939500D01*
X104226812Y-83973608D01*
X104112686Y-84039500D01*
X104112683Y-84039502D01*
X104019502Y-84132683D01*
X104019500Y-84132686D01*
X103953608Y-84246812D01*
X103919500Y-84374108D01*
X101144415Y-84374108D01*
X101120500Y-84332686D01*
X101027314Y-84239500D01*
X100951016Y-84195449D01*
X100913187Y-84173608D01*
X100849539Y-84156554D01*
X100785892Y-84139500D01*
X100654108Y-84139500D01*
X100526812Y-84173608D01*
X100412686Y-84239500D01*
X100412683Y-84239502D01*
X100319502Y-84332683D01*
X100319500Y-84332686D01*
X100253608Y-84446812D01*
X100237778Y-84505892D01*
X100219500Y-84574108D01*
X86720500Y-84574108D01*
X86720500Y-84474108D01*
X86686392Y-84346814D01*
X86620500Y-84232686D01*
X86527314Y-84139500D01*
X86464903Y-84103467D01*
X86413187Y-84073608D01*
X86349539Y-84056554D01*
X86285892Y-84039500D01*
X86154108Y-84039500D01*
X86026812Y-84073608D01*
X85912686Y-84139500D01*
X85912683Y-84139502D01*
X85819502Y-84232683D01*
X85819500Y-84232686D01*
X85753608Y-84346812D01*
X85719500Y-84474108D01*
X85286747Y-84474108D01*
X85361162Y-80071199D01*
X85381976Y-80004504D01*
X85435546Y-79959648D01*
X85504863Y-79950875D01*
X85567919Y-79980970D01*
X85581957Y-79996948D01*
X85582104Y-79996822D01*
X85632424Y-80054895D01*
X85648399Y-80071199D01*
X85650010Y-80072843D01*
X85650011Y-80072844D01*
X85650013Y-80072845D01*
X85729823Y-80117488D01*
X85729827Y-80117490D01*
X85796866Y-80137175D01*
X85854764Y-80145500D01*
X85854768Y-80145500D01*
X86705897Y-80145500D01*
X86705903Y-80145500D01*
X86741200Y-80142446D01*
X86741204Y-80142445D01*
X86741207Y-80142445D01*
X86760383Y-80139101D01*
X86783167Y-80135129D01*
X86785078Y-80134787D01*
X86869082Y-80098628D01*
X86925503Y-80057416D01*
X86944856Y-80041376D01*
X86995978Y-79965542D01*
X87021162Y-79900369D01*
X87034265Y-79843364D01*
X87113598Y-78891364D01*
X87111253Y-78838996D01*
X87100475Y-78777187D01*
X87096346Y-78758627D01*
X87053336Y-78677915D01*
X87007581Y-78625111D01*
X87007575Y-78625104D01*
X86989993Y-78607160D01*
X86989992Y-78607159D01*
X86989990Y-78607157D01*
X86989988Y-78607156D01*
X86989986Y-78607154D01*
X86910176Y-78562511D01*
X86910171Y-78562509D01*
X86843139Y-78542826D01*
X86843135Y-78542825D01*
X86843134Y-78542825D01*
X86785236Y-78534500D01*
X85934097Y-78534500D01*
X85918969Y-78535808D01*
X85898792Y-78537554D01*
X85856931Y-78544853D01*
X85854925Y-78545212D01*
X85854923Y-78545212D01*
X85854922Y-78545213D01*
X85770918Y-78581372D01*
X85770916Y-78581373D01*
X85770912Y-78581375D01*
X85714516Y-78622569D01*
X85714491Y-78622588D01*
X85695144Y-78638623D01*
X85644020Y-78714460D01*
X85644018Y-78714465D01*
X85623638Y-78767205D01*
X85581112Y-78822643D01*
X85515365Y-78846289D01*
X85447272Y-78830635D01*
X85398451Y-78780652D01*
X85383993Y-78720417D01*
X85464212Y-73974108D01*
X106919500Y-73974108D01*
X106919500Y-74105891D01*
X106953608Y-74233187D01*
X106986554Y-74290250D01*
X107019500Y-74347314D01*
X107112686Y-74440500D01*
X107226814Y-74506392D01*
X107354108Y-74540500D01*
X107354110Y-74540500D01*
X107485890Y-74540500D01*
X107485892Y-74540500D01*
X107613186Y-74506392D01*
X107727314Y-74440500D01*
X107820500Y-74347314D01*
X107886392Y-74233186D01*
X107920500Y-74105892D01*
X107920500Y-73974108D01*
X107886392Y-73846814D01*
X107820500Y-73732686D01*
X107727314Y-73639500D01*
X107651795Y-73595899D01*
X107613187Y-73573608D01*
X107535868Y-73552891D01*
X107485892Y-73539500D01*
X107354108Y-73539500D01*
X107226812Y-73573608D01*
X107112686Y-73639500D01*
X107112683Y-73639502D01*
X107019502Y-73732683D01*
X107019500Y-73732686D01*
X106953608Y-73846812D01*
X106919500Y-73974108D01*
X85464212Y-73974108D01*
X85567311Y-67874108D01*
X85919500Y-67874108D01*
X85919500Y-68005891D01*
X85953608Y-68133187D01*
X85976200Y-68172316D01*
X86019500Y-68247314D01*
X86112686Y-68340500D01*
X86211521Y-68397563D01*
X86222097Y-68403669D01*
X86226814Y-68406392D01*
X86354108Y-68440500D01*
X86354110Y-68440500D01*
X86485890Y-68440500D01*
X86485892Y-68440500D01*
X86613186Y-68406392D01*
X86727314Y-68340500D01*
X86820500Y-68247314D01*
X86886392Y-68133186D01*
X86920500Y-68005892D01*
X86920500Y-67874108D01*
X86900404Y-67799108D01*
X98731328Y-67799108D01*
X98731328Y-67930891D01*
X98765436Y-68058187D01*
X98771716Y-68069064D01*
X98831328Y-68172314D01*
X98924514Y-68265500D01*
X99038642Y-68331392D01*
X99165936Y-68365500D01*
X99165938Y-68365500D01*
X99297718Y-68365500D01*
X99297720Y-68365500D01*
X99425014Y-68331392D01*
X99539142Y-68265500D01*
X99632328Y-68172314D01*
X99698220Y-68058186D01*
X99730616Y-67937280D01*
X105069500Y-67937280D01*
X105069500Y-68069063D01*
X105103608Y-68196359D01*
X105133029Y-68247316D01*
X105169500Y-68310486D01*
X105262686Y-68403672D01*
X105376814Y-68469564D01*
X105504108Y-68503672D01*
X105504110Y-68503672D01*
X105635890Y-68503672D01*
X105635892Y-68503672D01*
X105763186Y-68469564D01*
X105877314Y-68403672D01*
X105970500Y-68310486D01*
X106036392Y-68196358D01*
X106070500Y-68069064D01*
X106070500Y-67937280D01*
X106036392Y-67809986D01*
X105970500Y-67695858D01*
X105877314Y-67602672D01*
X105820250Y-67569726D01*
X105763187Y-67536780D01*
X105699539Y-67519726D01*
X105635892Y-67502672D01*
X105504108Y-67502672D01*
X105376812Y-67536780D01*
X105262686Y-67602672D01*
X105262683Y-67602674D01*
X105169502Y-67695855D01*
X105169500Y-67695858D01*
X105103608Y-67809984D01*
X105069500Y-67937280D01*
X99730616Y-67937280D01*
X99732328Y-67930892D01*
X99732328Y-67799108D01*
X99698220Y-67671814D01*
X99632328Y-67557686D01*
X99539142Y-67464500D01*
X99482078Y-67431554D01*
X99425015Y-67398608D01*
X99361367Y-67381554D01*
X99297720Y-67364500D01*
X99165936Y-67364500D01*
X99038640Y-67398608D01*
X98924514Y-67464500D01*
X98924511Y-67464502D01*
X98831330Y-67557683D01*
X98831328Y-67557686D01*
X98765436Y-67671812D01*
X98731328Y-67799108D01*
X86900404Y-67799108D01*
X86886392Y-67746814D01*
X86820500Y-67632686D01*
X86727314Y-67539500D01*
X86663526Y-67502672D01*
X86613187Y-67473608D01*
X86549539Y-67456554D01*
X86485892Y-67439500D01*
X86354108Y-67439500D01*
X86226812Y-67473608D01*
X86112686Y-67539500D01*
X86112683Y-67539502D01*
X86019502Y-67632683D01*
X86019500Y-67632686D01*
X85953608Y-67746812D01*
X85919500Y-67874108D01*
X85567311Y-67874108D01*
X85588032Y-66648108D01*
X91183103Y-66648108D01*
X91183103Y-66779891D01*
X91217211Y-66907187D01*
X91250157Y-66964250D01*
X91283103Y-67021314D01*
X91376289Y-67114500D01*
X91490417Y-67180392D01*
X91617711Y-67214500D01*
X91617713Y-67214500D01*
X91749493Y-67214500D01*
X91749495Y-67214500D01*
X91876789Y-67180392D01*
X91990917Y-67114500D01*
X92084103Y-67021314D01*
X92149995Y-66907186D01*
X92184103Y-66779892D01*
X92184103Y-66648108D01*
X92184103Y-66645962D01*
X92203788Y-66578923D01*
X92249886Y-66538977D01*
X92248969Y-66537388D01*
X92256008Y-66533324D01*
X92370136Y-66467432D01*
X92463322Y-66374246D01*
X92529214Y-66260118D01*
X92563322Y-66132824D01*
X92563322Y-66001040D01*
X92529214Y-65873746D01*
X92463322Y-65759618D01*
X92370136Y-65666432D01*
X92256008Y-65600540D01*
X92233967Y-65594634D01*
X92190562Y-65583004D01*
X92128714Y-65566432D01*
X91996930Y-65566432D01*
X91869634Y-65600540D01*
X91755508Y-65666432D01*
X91755505Y-65666434D01*
X91662324Y-65759615D01*
X91662322Y-65759618D01*
X91596430Y-65873744D01*
X91562322Y-66001040D01*
X91562322Y-66134969D01*
X91542637Y-66202008D01*
X91496537Y-66241953D01*
X91497456Y-66243544D01*
X91376289Y-66313500D01*
X91376286Y-66313502D01*
X91283105Y-66406683D01*
X91283103Y-66406686D01*
X91217211Y-66520812D01*
X91183103Y-66648108D01*
X85588032Y-66648108D01*
X85607724Y-65482987D01*
X96469550Y-65482987D01*
X96469550Y-65614771D01*
X96469818Y-65615770D01*
X96503658Y-65742066D01*
X96515081Y-65761850D01*
X96569550Y-65856193D01*
X96662736Y-65949379D01*
X96776864Y-66015271D01*
X96904158Y-66049379D01*
X96904160Y-66049379D01*
X97035940Y-66049379D01*
X97035942Y-66049379D01*
X97163236Y-66015271D01*
X97277364Y-65949379D01*
X97277365Y-65949377D01*
X97284402Y-65945315D01*
X97285221Y-65946734D01*
X97341492Y-65924974D01*
X97409939Y-65939006D01*
X97413822Y-65941156D01*
X97428060Y-65949376D01*
X97526814Y-66006392D01*
X97654108Y-66040500D01*
X97654110Y-66040500D01*
X97785890Y-66040500D01*
X97785892Y-66040500D01*
X97913186Y-66006392D01*
X98027314Y-65940500D01*
X98120500Y-65847314D01*
X98186392Y-65733186D01*
X98220500Y-65605892D01*
X98220500Y-65474108D01*
X98197639Y-65388788D01*
X100207489Y-65388788D01*
X100207489Y-65520571D01*
X100241597Y-65647867D01*
X100253605Y-65668665D01*
X100307489Y-65761994D01*
X100400675Y-65855180D01*
X100514803Y-65921072D01*
X100642097Y-65955180D01*
X100642099Y-65955180D01*
X100773879Y-65955180D01*
X100773881Y-65955180D01*
X100901175Y-65921072D01*
X101015303Y-65855180D01*
X101108489Y-65761994D01*
X101174381Y-65647866D01*
X101208489Y-65520572D01*
X101208489Y-65388788D01*
X101183482Y-65295459D01*
X102219499Y-65295459D01*
X102219499Y-65427242D01*
X102253607Y-65554538D01*
X102280167Y-65600540D01*
X102319499Y-65668665D01*
X102412685Y-65761851D01*
X102526813Y-65827743D01*
X102654107Y-65861851D01*
X102654109Y-65861851D01*
X102785888Y-65861851D01*
X102785891Y-65861851D01*
X102804592Y-65856840D01*
X102874438Y-65858503D01*
X102932301Y-65897665D01*
X102956456Y-65944519D01*
X102960119Y-65958186D01*
X103026011Y-66072314D01*
X103119197Y-66165500D01*
X103233325Y-66231392D01*
X103360619Y-66265500D01*
X103360621Y-66265500D01*
X103492401Y-66265500D01*
X103492403Y-66265500D01*
X103619697Y-66231392D01*
X103733825Y-66165500D01*
X103827011Y-66072314D01*
X103827014Y-66072307D01*
X103831961Y-66065863D01*
X103834250Y-66067620D01*
X103874727Y-66029013D01*
X103943332Y-66015778D01*
X103963647Y-66019441D01*
X104079108Y-66050379D01*
X104079111Y-66050379D01*
X104210890Y-66050379D01*
X104210892Y-66050379D01*
X104338186Y-66016271D01*
X104452314Y-65950379D01*
X104545500Y-65857193D01*
X104611392Y-65743065D01*
X104645500Y-65615771D01*
X104645500Y-65483987D01*
X104611392Y-65356693D01*
X104610813Y-65355691D01*
X104589875Y-65319425D01*
X104545500Y-65242565D01*
X104452314Y-65149379D01*
X104395250Y-65116433D01*
X104338187Y-65083487D01*
X104274539Y-65066433D01*
X104210892Y-65049379D01*
X104079108Y-65049379D01*
X103951812Y-65083487D01*
X103837686Y-65149379D01*
X103744496Y-65242568D01*
X103739554Y-65249010D01*
X103737270Y-65247257D01*
X103696745Y-65285885D01*
X103628136Y-65299095D01*
X103607852Y-65295434D01*
X103511104Y-65269511D01*
X103492403Y-65264500D01*
X103360619Y-65264500D01*
X103360617Y-65264500D01*
X103341915Y-65269511D01*
X103272065Y-65267846D01*
X103214204Y-65228681D01*
X103190052Y-65181829D01*
X103186391Y-65168165D01*
X103120499Y-65054037D01*
X103027313Y-64960851D01*
X102970249Y-64927905D01*
X102913186Y-64894959D01*
X102849538Y-64877905D01*
X102785891Y-64860851D01*
X102654107Y-64860851D01*
X102526811Y-64894959D01*
X102412685Y-64960851D01*
X102412682Y-64960853D01*
X102319501Y-65054034D01*
X102319499Y-65054037D01*
X102253607Y-65168163D01*
X102219499Y-65295459D01*
X101183482Y-65295459D01*
X101174381Y-65261494D01*
X101108489Y-65147366D01*
X101015303Y-65054180D01*
X100958239Y-65021234D01*
X100901176Y-64988288D01*
X100798785Y-64960853D01*
X100773881Y-64954180D01*
X100642097Y-64954180D01*
X100514801Y-64988288D01*
X100400675Y-65054180D01*
X100400672Y-65054182D01*
X100307491Y-65147363D01*
X100307489Y-65147366D01*
X100241597Y-65261492D01*
X100207489Y-65388788D01*
X98197639Y-65388788D01*
X98186392Y-65346814D01*
X98120500Y-65232686D01*
X98027314Y-65139500D01*
X97970250Y-65106554D01*
X97913187Y-65073608D01*
X97819029Y-65048379D01*
X97785892Y-65039500D01*
X97654108Y-65039500D01*
X97526814Y-65073608D01*
X97526813Y-65073608D01*
X97526811Y-65073609D01*
X97526810Y-65073609D01*
X97405648Y-65143563D01*
X97404831Y-65142148D01*
X97348522Y-65163907D01*
X97280080Y-65149857D01*
X97276250Y-65147736D01*
X97218473Y-65114378D01*
X97163237Y-65082487D01*
X97057599Y-65054182D01*
X97035942Y-65048379D01*
X96904158Y-65048379D01*
X96776862Y-65082487D01*
X96662736Y-65148379D01*
X96662733Y-65148381D01*
X96569552Y-65241562D01*
X96569550Y-65241565D01*
X96503658Y-65355691D01*
X96484486Y-65427243D01*
X96469550Y-65482987D01*
X85607724Y-65482987D01*
X85651818Y-62874108D01*
X92219500Y-62874108D01*
X92219500Y-63005892D01*
X92226740Y-63032913D01*
X92253608Y-63133187D01*
X92276375Y-63172619D01*
X92319500Y-63247314D01*
X92412686Y-63340500D01*
X92471633Y-63374533D01*
X92525944Y-63405890D01*
X92526814Y-63406392D01*
X92654108Y-63440500D01*
X92654110Y-63440500D01*
X92785890Y-63440500D01*
X92785892Y-63440500D01*
X92913186Y-63406392D01*
X93027314Y-63340500D01*
X93120500Y-63247314D01*
X93123136Y-63242749D01*
X94112068Y-63242749D01*
X94112068Y-63374532D01*
X94146176Y-63501828D01*
X94169350Y-63541965D01*
X94212068Y-63615955D01*
X94305254Y-63709141D01*
X94419382Y-63775033D01*
X94546676Y-63809141D01*
X94546678Y-63809141D01*
X94678458Y-63809141D01*
X94678460Y-63809141D01*
X94805754Y-63775033D01*
X94919882Y-63709141D01*
X95013068Y-63615955D01*
X95078960Y-63501827D01*
X95113068Y-63374533D01*
X95113068Y-63242749D01*
X95078960Y-63115455D01*
X95013068Y-63001327D01*
X94919882Y-62908141D01*
X94841055Y-62862630D01*
X94805755Y-62842249D01*
X94742107Y-62825195D01*
X94678460Y-62808141D01*
X94546676Y-62808141D01*
X94419380Y-62842249D01*
X94305254Y-62908141D01*
X94305251Y-62908143D01*
X94212070Y-63001324D01*
X94212068Y-63001327D01*
X94146176Y-63115453D01*
X94112068Y-63242749D01*
X93123136Y-63242749D01*
X93186392Y-63133186D01*
X93220500Y-63005892D01*
X93220500Y-62874108D01*
X93186392Y-62746814D01*
X93120500Y-62632686D01*
X93027314Y-62539500D01*
X92958694Y-62499882D01*
X92913187Y-62473608D01*
X92867015Y-62461236D01*
X92785892Y-62439500D01*
X92654108Y-62439500D01*
X92526812Y-62473608D01*
X92412686Y-62539500D01*
X92412683Y-62539502D01*
X92319502Y-62632683D01*
X92319500Y-62632686D01*
X92253608Y-62746812D01*
X92223203Y-62860288D01*
X92219500Y-62874108D01*
X85651818Y-62874108D01*
X85661008Y-62330347D01*
X100885142Y-62330347D01*
X100885142Y-62462131D01*
X100902196Y-62525778D01*
X100919250Y-62589426D01*
X100933136Y-62613476D01*
X100985142Y-62703553D01*
X101078328Y-62796739D01*
X101192456Y-62862631D01*
X101319750Y-62896739D01*
X101319752Y-62896739D01*
X101336145Y-62896739D01*
X101403184Y-62916424D01*
X101448939Y-62969228D01*
X101456693Y-63020762D01*
X101460142Y-63020762D01*
X101460142Y-63028889D01*
X101460142Y-63160673D01*
X101468957Y-63193570D01*
X101494250Y-63287968D01*
X101524578Y-63340497D01*
X101560142Y-63402095D01*
X101653328Y-63495281D01*
X101752163Y-63552344D01*
X101765803Y-63560219D01*
X101767456Y-63561173D01*
X101894750Y-63595281D01*
X101894752Y-63595281D01*
X102026532Y-63595281D01*
X102026534Y-63595281D01*
X102153828Y-63561173D01*
X102267956Y-63495281D01*
X102361142Y-63402095D01*
X102427034Y-63287967D01*
X102427700Y-63285481D01*
X102428836Y-63283617D01*
X102430146Y-63280455D01*
X102430638Y-63280659D01*
X102464061Y-63225821D01*
X102526907Y-63195288D01*
X102547476Y-63193570D01*
X102660890Y-63193570D01*
X102660892Y-63193570D01*
X102788186Y-63159462D01*
X102902314Y-63093570D01*
X102995500Y-63000384D01*
X103061392Y-62886256D01*
X103095500Y-62758962D01*
X103095500Y-62627178D01*
X103061392Y-62499884D01*
X103048892Y-62478234D01*
X105624845Y-62478234D01*
X105624845Y-63429374D01*
X105631530Y-63481363D01*
X105638439Y-63507786D01*
X105647399Y-63542050D01*
X105647405Y-63542073D01*
X105651370Y-63554795D01*
X105653061Y-63560222D01*
X105660905Y-63572386D01*
X105702627Y-63637087D01*
X105752607Y-63685904D01*
X105752608Y-63685905D01*
X105771624Y-63702332D01*
X105771625Y-63702332D01*
X105771627Y-63702334D01*
X105854877Y-63740198D01*
X105885194Y-63746421D01*
X105923309Y-63754246D01*
X105923312Y-63754246D01*
X105923320Y-63754248D01*
X105981709Y-63757736D01*
X106933709Y-63678403D01*
X106968637Y-63672427D01*
X107009850Y-63661649D01*
X107011718Y-63661151D01*
X107092430Y-63618141D01*
X107145234Y-63572386D01*
X107145236Y-63572383D01*
X107146667Y-63571144D01*
X107147147Y-63571698D01*
X107207249Y-63541965D01*
X107276683Y-63549759D01*
X107330880Y-63593855D01*
X107342744Y-63619579D01*
X107343913Y-63619095D01*
X107347020Y-63626598D01*
X107353074Y-63637083D01*
X107412913Y-63740727D01*
X107506099Y-63833913D01*
X107620227Y-63899805D01*
X107747521Y-63933913D01*
X107747523Y-63933913D01*
X107879303Y-63933913D01*
X107879305Y-63933913D01*
X108006599Y-63899805D01*
X108120727Y-63833913D01*
X108213913Y-63740727D01*
X108279805Y-63626599D01*
X108313913Y-63499305D01*
X108313913Y-63367521D01*
X108279805Y-63240227D01*
X108213913Y-63126099D01*
X108120727Y-63032913D01*
X108063663Y-62999967D01*
X108006600Y-62967021D01*
X107942952Y-62949967D01*
X107879305Y-62932913D01*
X107747521Y-62932913D01*
X107620225Y-62967021D01*
X107506099Y-63032913D01*
X107506096Y-63032915D01*
X107447526Y-63091486D01*
X107386203Y-63124971D01*
X107316511Y-63119987D01*
X107260578Y-63078115D01*
X107236161Y-63012651D01*
X107235845Y-63003805D01*
X107235845Y-62398905D01*
X107235845Y-62398901D01*
X107229160Y-62346912D01*
X107213287Y-62286211D01*
X107207629Y-62268053D01*
X107158065Y-62191192D01*
X107108083Y-62142371D01*
X107089063Y-62125942D01*
X107005814Y-62088077D01*
X107005812Y-62088076D01*
X107005811Y-62088076D01*
X107005810Y-62088075D01*
X106937382Y-62074028D01*
X106937366Y-62074026D01*
X106878984Y-62070539D01*
X106878983Y-62070539D01*
X106878982Y-62070539D01*
X106870707Y-62071228D01*
X106848448Y-62073083D01*
X106780006Y-62059032D01*
X106730025Y-62010209D01*
X106714375Y-61942114D01*
X106730768Y-61887510D01*
X106738795Y-61873608D01*
X106771012Y-61817806D01*
X106805120Y-61690512D01*
X106805120Y-61558728D01*
X106771012Y-61431434D01*
X106705120Y-61317306D01*
X106661922Y-61274108D01*
X108519500Y-61274108D01*
X108519500Y-61405892D01*
X108526344Y-61431434D01*
X108553608Y-61533187D01*
X108568356Y-61558730D01*
X108619500Y-61647314D01*
X108712686Y-61740500D01*
X108826814Y-61806392D01*
X108870930Y-61818212D01*
X108930590Y-61854577D01*
X108961119Y-61917424D01*
X108952824Y-61986799D01*
X108926521Y-62025665D01*
X108919500Y-62032685D01*
X108919500Y-62032686D01*
X108853608Y-62146812D01*
X108819500Y-62274108D01*
X108819500Y-62405891D01*
X108853608Y-62533187D01*
X108883633Y-62585191D01*
X108919500Y-62647314D01*
X109012686Y-62740500D01*
X109023619Y-62746812D01*
X109062295Y-62769143D01*
X109110510Y-62819710D01*
X109123732Y-62888317D01*
X109097764Y-62953182D01*
X109087976Y-62964210D01*
X109019500Y-63032686D01*
X108953608Y-63146812D01*
X108927902Y-63242751D01*
X108919500Y-63274108D01*
X108919500Y-63405892D01*
X108925791Y-63429369D01*
X108953608Y-63533187D01*
X108969766Y-63561173D01*
X109019500Y-63647314D01*
X109112686Y-63740500D01*
X109226814Y-63806392D01*
X109354108Y-63840500D01*
X109354110Y-63840500D01*
X109485890Y-63840500D01*
X109485892Y-63840500D01*
X109613186Y-63806392D01*
X109727314Y-63740500D01*
X109820500Y-63647314D01*
X109886392Y-63533186D01*
X109920500Y-63405892D01*
X109920500Y-63274108D01*
X109886392Y-63146814D01*
X109820500Y-63032686D01*
X109727314Y-62939500D01*
X109715610Y-62932743D01*
X109677703Y-62910856D01*
X109629488Y-62860288D01*
X109616267Y-62791681D01*
X109642236Y-62726817D01*
X109652008Y-62715805D01*
X109720500Y-62647314D01*
X109786392Y-62533186D01*
X109820500Y-62405892D01*
X109820500Y-62274108D01*
X109786392Y-62146814D01*
X109720500Y-62032686D01*
X109627314Y-61939500D01*
X109513186Y-61873608D01*
X109469067Y-61861786D01*
X109409408Y-61825421D01*
X109378880Y-61762574D01*
X109387175Y-61693198D01*
X109413480Y-61654333D01*
X109420500Y-61647314D01*
X109486392Y-61533186D01*
X109520500Y-61405892D01*
X109520500Y-61274108D01*
X109486392Y-61146814D01*
X109420500Y-61032686D01*
X109327314Y-60939500D01*
X109270250Y-60906554D01*
X109213187Y-60873608D01*
X109128206Y-60850838D01*
X109085892Y-60839500D01*
X108954108Y-60839500D01*
X108826812Y-60873608D01*
X108712686Y-60939500D01*
X108712683Y-60939502D01*
X108619502Y-61032683D01*
X108619500Y-61032686D01*
X108553608Y-61146812D01*
X108519500Y-61274108D01*
X106661922Y-61274108D01*
X106611934Y-61224120D01*
X106554870Y-61191174D01*
X106497807Y-61158228D01*
X106434159Y-61141174D01*
X106370512Y-61124120D01*
X106238728Y-61124120D01*
X106111432Y-61158228D01*
X105997306Y-61224120D01*
X105997303Y-61224122D01*
X105904122Y-61317303D01*
X105904120Y-61317306D01*
X105838228Y-61431432D01*
X105804120Y-61558728D01*
X105804120Y-61690511D01*
X105838228Y-61817807D01*
X105870445Y-61873608D01*
X105904120Y-61931934D01*
X105904122Y-61931936D01*
X105926187Y-61954001D01*
X105959672Y-62015324D01*
X105954688Y-62085016D01*
X105912816Y-62140949D01*
X105869881Y-62161646D01*
X105856690Y-62165096D01*
X105850712Y-62166660D01*
X105848974Y-62167123D01*
X105848969Y-62167125D01*
X105768261Y-62210133D01*
X105768258Y-62210135D01*
X105715449Y-62255894D01*
X105697505Y-62273476D01*
X105697499Y-62273483D01*
X105652856Y-62353293D01*
X105652854Y-62353298D01*
X105633171Y-62420330D01*
X105633170Y-62420335D01*
X105633170Y-62420336D01*
X105624845Y-62478234D01*
X103048892Y-62478234D01*
X102995500Y-62385756D01*
X102902314Y-62292570D01*
X102845250Y-62259624D01*
X102788187Y-62226678D01*
X102700008Y-62203051D01*
X102660892Y-62192570D01*
X102529108Y-62192570D01*
X102401812Y-62226678D01*
X102287686Y-62292570D01*
X102287683Y-62292572D01*
X102194502Y-62385753D01*
X102194500Y-62385756D01*
X102128607Y-62499884D01*
X102125500Y-62507388D01*
X102122998Y-62506352D01*
X102093544Y-62554667D01*
X102030695Y-62585191D01*
X101961320Y-62576890D01*
X101907446Y-62532400D01*
X101886177Y-62465847D01*
X101886142Y-62462906D01*
X101886142Y-62330349D01*
X101886142Y-62330347D01*
X101852034Y-62203053D01*
X101786142Y-62088925D01*
X101692956Y-61995739D01*
X101620664Y-61954001D01*
X101578829Y-61929847D01*
X101515181Y-61912793D01*
X101451534Y-61895739D01*
X101319750Y-61895739D01*
X101192454Y-61929847D01*
X101078328Y-61995739D01*
X101078325Y-61995741D01*
X100985144Y-62088922D01*
X100985142Y-62088925D01*
X100919250Y-62203051D01*
X100895264Y-62292570D01*
X100885142Y-62330347D01*
X85661008Y-62330347D01*
X85702861Y-59854096D01*
X86914500Y-59854096D01*
X86914500Y-60805236D01*
X86921185Y-60857224D01*
X86937054Y-60917912D01*
X86937060Y-60917935D01*
X86941025Y-60930657D01*
X86942716Y-60936084D01*
X86950560Y-60948248D01*
X86992282Y-61012949D01*
X87042262Y-61061766D01*
X87042263Y-61061767D01*
X87061279Y-61078194D01*
X87061280Y-61078194D01*
X87061282Y-61078196D01*
X87144532Y-61116060D01*
X87174849Y-61122283D01*
X87212964Y-61130108D01*
X87212967Y-61130108D01*
X87212975Y-61130110D01*
X87271364Y-61133598D01*
X88223364Y-61054265D01*
X88258292Y-61048289D01*
X88299505Y-61037511D01*
X88301373Y-61037013D01*
X88382085Y-60994003D01*
X88434889Y-60948248D01*
X88452843Y-60930657D01*
X88497490Y-60850840D01*
X88517175Y-60783801D01*
X88525500Y-60725903D01*
X88525500Y-59774763D01*
X88518815Y-59722774D01*
X88502942Y-59662073D01*
X88497284Y-59643915D01*
X88447720Y-59567054D01*
X88397738Y-59518233D01*
X88378718Y-59501804D01*
X88295469Y-59463939D01*
X88295467Y-59463938D01*
X88295466Y-59463938D01*
X88295465Y-59463937D01*
X88227037Y-59449890D01*
X88227021Y-59449888D01*
X88168642Y-59446401D01*
X88168639Y-59446401D01*
X88168637Y-59446401D01*
X87488626Y-59503068D01*
X87216617Y-59525736D01*
X87181715Y-59531709D01*
X87181706Y-59531711D01*
X87181702Y-59531712D01*
X87154777Y-59538753D01*
X87140367Y-59542522D01*
X87138629Y-59542985D01*
X87138624Y-59542987D01*
X87057916Y-59585995D01*
X87057913Y-59585997D01*
X87005104Y-59631756D01*
X86987160Y-59649338D01*
X86987154Y-59649345D01*
X86942511Y-59729155D01*
X86942509Y-59729160D01*
X86922826Y-59796192D01*
X86922825Y-59796197D01*
X86922825Y-59796198D01*
X86914500Y-59854096D01*
X85702861Y-59854096D01*
X85713808Y-59206391D01*
X85723011Y-58661904D01*
X85743825Y-58595207D01*
X85797395Y-58550351D01*
X85846993Y-58540000D01*
X89795761Y-58540000D01*
X89862800Y-58559685D01*
G37*
%TD.AperFunction*%
%TD*%
%TA.AperFunction,Conductor*%
%TO.N,VCCINT*%
G36*
X111363039Y-73759685D02*
G01*
X111408794Y-73812489D01*
X111420000Y-73864000D01*
X111420000Y-74827781D01*
X111400315Y-74894820D01*
X111347511Y-74940575D01*
X111308338Y-74951166D01*
X110556338Y-75026366D01*
X110487673Y-75013449D01*
X110436891Y-74965460D01*
X110420000Y-74902981D01*
X110420000Y-73864000D01*
X110439685Y-73796961D01*
X110492489Y-73751206D01*
X110544000Y-73740000D01*
X111296000Y-73740000D01*
X111363039Y-73759685D01*
G37*
%TD.AperFunction*%
%TD*%
%TA.AperFunction,Conductor*%
%TO.N,VCCINT*%
G36*
X96563039Y-86459685D02*
G01*
X96608794Y-86512489D01*
X96620000Y-86564000D01*
X96620000Y-87527781D01*
X96600315Y-87594820D01*
X96547511Y-87640575D01*
X96508338Y-87651166D01*
X95756338Y-87726366D01*
X95687673Y-87713449D01*
X95636891Y-87665460D01*
X95620000Y-87602981D01*
X95620000Y-86564000D01*
X95639685Y-86496961D01*
X95692489Y-86451206D01*
X95744000Y-86440000D01*
X96496000Y-86440000D01*
X96563039Y-86459685D01*
G37*
%TD.AperFunction*%
%TD*%
%TA.AperFunction,Conductor*%
%TO.N,VCCPLL*%
G36*
X91163039Y-88859685D02*
G01*
X91208794Y-88912489D01*
X91220000Y-88964000D01*
X91220000Y-89927781D01*
X91200315Y-89994820D01*
X91147511Y-90040575D01*
X91108338Y-90051166D01*
X90356338Y-90126366D01*
X90287673Y-90113449D01*
X90236891Y-90065460D01*
X90220000Y-90002981D01*
X90220000Y-88964000D01*
X90239685Y-88896961D01*
X90292489Y-88851206D01*
X90344000Y-88840000D01*
X91096000Y-88840000D01*
X91163039Y-88859685D01*
G37*
%TD.AperFunction*%
%TD*%
%TA.AperFunction,Conductor*%
%TO.N,VCCINT*%
G36*
X106964490Y-62289379D02*
G01*
X107014472Y-62338200D01*
X107030345Y-62398901D01*
X107030345Y-63350041D01*
X107010660Y-63417080D01*
X106957856Y-63462835D01*
X106916643Y-63473613D01*
X105964643Y-63552946D01*
X105896200Y-63538896D01*
X105846218Y-63490075D01*
X105830345Y-63429374D01*
X105830345Y-62478234D01*
X105850030Y-62411195D01*
X105902834Y-62365440D01*
X105944042Y-62354663D01*
X106896048Y-62275329D01*
X106964490Y-62289379D01*
G37*
%TD.AperFunction*%
%TD*%
%TA.AperFunction,Conductor*%
%TO.N,VCCINT*%
G36*
X88254145Y-59665241D02*
G01*
X88304127Y-59714062D01*
X88320000Y-59774763D01*
X88320000Y-60725903D01*
X88300315Y-60792942D01*
X88247511Y-60838697D01*
X88206298Y-60849475D01*
X87254298Y-60928808D01*
X87185855Y-60914758D01*
X87135873Y-60865937D01*
X87120000Y-60805236D01*
X87120000Y-59854096D01*
X87139685Y-59787057D01*
X87192489Y-59741302D01*
X87233697Y-59730525D01*
X88185703Y-59651191D01*
X88254145Y-59665241D01*
G37*
%TD.AperFunction*%
%TD*%
%TA.AperFunction,Conductor*%
%TO.N,VCCINT*%
G36*
X86852275Y-78759685D02*
G01*
X86898030Y-78812489D01*
X86908808Y-78874298D01*
X86829475Y-79826298D01*
X86804291Y-79891471D01*
X86747870Y-79932683D01*
X86705903Y-79940000D01*
X85854764Y-79940000D01*
X85787725Y-79920315D01*
X85741970Y-79867511D01*
X85731192Y-79805702D01*
X85810525Y-78853702D01*
X85835709Y-78788529D01*
X85892130Y-78747317D01*
X85934097Y-78740000D01*
X86785236Y-78740000D01*
X86852275Y-78759685D01*
G37*
%TD.AperFunction*%
%TD*%
M02*
