M48
; DRILL file {KiCad 9.0.3} date 2025-12-13T00:05:06+0530
; FORMAT={-:-/ absolute / metric / decimal}
; #@! TF.CreationDate,2025-12-13T00:05:06+05:30
; #@! TF.GenerationSoftware,Kicad,Pcbnew,9.0.3
; #@! TF.FileFunction,Plated,1,4,PTH
FMAT,2
METRIC
; #@! TA.AperFunction,Plated,PTH,ViaDrill
T1C0.300
; #@! TA.AperFunction,Plated,PTH,ViaDrill
T2C0.400
; #@! TA.AperFunction,Plated,PTH,ComponentDrill
T3C1.000
%
G90
G05
T1
X86.22Y-84.54
X86.32Y-79.34
X86.32Y-80.84
X86.42Y-67.94
X86.42Y-68.84
X87.22Y-85.74
X87.72Y-60.34
X89.62Y-56.99
X90.42Y-58.74
X90.72Y-89.54
X91.22Y-56.99
X91.684Y-66.714
X92.063Y-66.067
X92.72Y-62.94
X92.82Y-56.99
X93.22Y-87.14
X94.12Y-91.44
X94.42Y-56.99
X94.613Y-63.309
X95.82Y-62.94
X96.02Y-56.99
X96.02Y-87.24
X96.97Y-65.549
X97.62Y-56.99
X97.72Y-65.54
X98.22Y-91.64
X98.72Y-90.44
X99.232Y-67.865
X100.57Y-87.766
X100.708Y-65.455
X100.72Y-59.14
X100.72Y-62.84
X100.72Y-84.64
X101.22Y-87.14
X101.386Y-62.396
X101.52Y-51.14
X101.62Y-54.24
X101.961Y-63.095
X102.02Y-58.389
X102.42Y-56.99
X102.595Y-62.693
X102.62Y-86.84
X102.72Y-65.361
X102.77Y-58.389
X103.42Y-90.94
X103.427Y-65.765
X104.02Y-56.99
X104.145Y-65.55
X104.42Y-84.44
X104.56Y-56.192
X104.71Y-51.71
X104.771Y-58.791
X105.22Y-84.54
X105.57Y-68.003
X105.62Y-56.99
X105.764Y-57.947
X105.983Y-87.003
X106.12Y-59.14
X106.305Y-61.625
X106.347Y-56.078
X106.42Y-62.94
X106.728Y-84.527
X107.42Y-74.04
X107.52Y-50.64
X107.813Y-63.433
X108.1Y-53.56
X108.32Y-86.14
X108.82Y-56.99
X108.92Y-89.64
X108.95Y-54.41
X109.02Y-61.34
X109.32Y-62.34
X109.42Y-63.34
X110.72Y-72.871
X110.82Y-70.34
X110.92Y-74.34
X110.92Y-77.24
X111.02Y-75.84
T2
X105.12Y-50.84
T3
X88.725Y-52.355
X90.11Y-49.515
X91.495Y-52.355
X92.22Y-92.59
X92.88Y-49.515
X94.265Y-52.355
X94.76Y-92.59
X95.65Y-49.515
X97.035Y-52.355
X97.3Y-92.59
X98.42Y-49.515
X99.805Y-52.355
X99.84Y-92.59
X101.19Y-49.515
X102.38Y-92.59
X102.575Y-52.355
X103.96Y-49.515
X104.92Y-92.59
X105.345Y-52.355
X106.73Y-49.515
X108.115Y-52.355
M30
