%TF.GenerationSoftware,KiCad,Pcbnew,9.0.3*%
%TF.CreationDate,2025-12-13T00:06:23+05:30*%
%TF.ProjectId,vga,7667612e-6b69-4636-9164-5f7063625858,rev?*%
%TF.SameCoordinates,Original*%
%TF.FileFunction,Soldermask,Top*%
%TF.FilePolarity,Negative*%
%FSLAX46Y46*%
G04 Gerber Fmt 4.6, Leading zero omitted, Abs format (unit mm)*
G04 Created by KiCad (PCBNEW 9.0.3) date 2025-12-13 00:06:23*
%MOMM*%
%LPD*%
G01*
G04 APERTURE LIST*
G04 Aperture macros list*
%AMRoundRect*
0 Rectangle with rounded corners*
0 $1 Rounding radius*
0 $2 $3 $4 $5 $6 $7 $8 $9 X,Y pos of 4 corners*
0 Add a 4 corners polygon primitive as box body*
4,1,4,$2,$3,$4,$5,$6,$7,$8,$9,$2,$3,0*
0 Add four circle primitives for the rounded corners*
1,1,$1+$1,$2,$3*
1,1,$1+$1,$4,$5*
1,1,$1+$1,$6,$7*
1,1,$1+$1,$8,$9*
0 Add four rect primitives between the rounded corners*
20,1,$1+$1,$2,$3,$4,$5,0*
20,1,$1+$1,$4,$5,$6,$7,0*
20,1,$1+$1,$6,$7,$8,$9,0*
20,1,$1+$1,$8,$9,$2,$3,0*%
G04 Aperture macros list end*
%ADD10RoundRect,0.200000X0.275000X-0.200000X0.275000X0.200000X-0.275000X0.200000X-0.275000X-0.200000X0*%
%ADD11R,1.700000X1.700000*%
%ADD12C,1.700000*%
%ADD13R,1.600000X1.600000*%
%ADD14C,1.600000*%
%ADD15RoundRect,0.225000X0.250000X-0.225000X0.250000X0.225000X-0.250000X0.225000X-0.250000X-0.225000X0*%
%ADD16RoundRect,0.200000X-0.275000X0.200000X-0.275000X-0.200000X0.275000X-0.200000X0.275000X0.200000X0*%
%ADD17RoundRect,0.250000X0.475000X-0.250000X0.475000X0.250000X-0.475000X0.250000X-0.475000X-0.250000X0*%
%ADD18RoundRect,0.250000X-0.475000X0.250000X-0.475000X-0.250000X0.475000X-0.250000X0.475000X0.250000X0*%
%ADD19RoundRect,0.225000X-0.250000X0.225000X-0.250000X-0.225000X0.250000X-0.225000X0.250000X0.225000X0*%
%ADD20RoundRect,0.075000X-0.662500X-0.075000X0.662500X-0.075000X0.662500X0.075000X-0.662500X0.075000X0*%
%ADD21RoundRect,0.075000X-0.075000X-0.662500X0.075000X-0.662500X0.075000X0.662500X-0.075000X0.662500X0*%
G04 APERTURE END LIST*
D10*
%TO.C,R_R2*%
X89620000Y-56990000D03*
X89620000Y-55340000D03*
%TD*%
D11*
%TO.C,J_PROG1*%
X92220000Y-92590000D03*
D12*
X94760000Y-92590000D03*
X97300000Y-92590000D03*
X99840000Y-92590000D03*
X102380000Y-92590000D03*
X104920000Y-92590000D03*
%TD*%
D10*
%TO.C,R3*%
X100020000Y-89415000D03*
X100020000Y-87765000D03*
%TD*%
%TO.C,R1*%
X105220000Y-89415000D03*
X105220000Y-87765000D03*
%TD*%
%TO.C,R_G2*%
X96020000Y-56990000D03*
X96020000Y-55340000D03*
%TD*%
D13*
%TO.C,J1*%
X88725000Y-52355331D03*
D14*
X91495000Y-52355331D03*
X94265000Y-52355331D03*
X97035000Y-52355331D03*
X99805000Y-52355331D03*
X102575000Y-52355331D03*
X105345000Y-52355331D03*
X108115000Y-52355331D03*
X90110000Y-49515331D03*
X92880000Y-49515331D03*
X95650000Y-49515331D03*
X98420000Y-49515331D03*
X101190000Y-49515331D03*
X103960000Y-49515331D03*
X106730000Y-49515331D03*
%TD*%
D15*
%TO.C,C2*%
X89420000Y-61740000D03*
X89420000Y-60190000D03*
%TD*%
D16*
%TO.C,R6*%
X107220000Y-55340000D03*
X107220000Y-56990000D03*
%TD*%
D17*
%TO.C,C4*%
X92020000Y-61690000D03*
X92020000Y-59790000D03*
%TD*%
D15*
%TO.C,C3*%
X86220000Y-89390000D03*
X86220000Y-87840000D03*
%TD*%
D10*
%TO.C,R_G3*%
X94420000Y-56990000D03*
X94420000Y-55340000D03*
%TD*%
%TO.C,R_B2*%
X102420000Y-56990000D03*
X102420000Y-55340000D03*
%TD*%
D18*
%TO.C,C9*%
X107620000Y-59790000D03*
X107620000Y-61690000D03*
%TD*%
D10*
%TO.C,R_R1*%
X91220000Y-56990000D03*
X91220000Y-55340000D03*
%TD*%
%TO.C,R2*%
X102620000Y-89415000D03*
X102620000Y-87765000D03*
%TD*%
D19*
%TO.C,C8*%
X94620000Y-60140000D03*
X94620000Y-61690000D03*
%TD*%
D15*
%TO.C,C10*%
X105020000Y-61715000D03*
X105020000Y-60165000D03*
%TD*%
D16*
%TO.C,R4*%
X91820000Y-87765000D03*
X91820000Y-89415000D03*
%TD*%
D18*
%TO.C,C7*%
X97420000Y-59740000D03*
X97420000Y-61640000D03*
%TD*%
D19*
%TO.C,C12*%
X99820000Y-60140000D03*
X99820000Y-61690000D03*
%TD*%
D18*
%TO.C,C5*%
X89020000Y-87640000D03*
X89020000Y-89540000D03*
%TD*%
D20*
%TO.C,U1*%
X87807500Y-66302500D03*
X87807500Y-66802500D03*
X87807500Y-67302500D03*
X87807500Y-67802500D03*
X87807500Y-68302500D03*
X87807500Y-68802500D03*
X87807500Y-69302500D03*
X87807500Y-69802500D03*
X87807500Y-70302500D03*
X87807500Y-70802500D03*
X87807500Y-71302500D03*
X87807500Y-71802500D03*
X87807500Y-72302500D03*
X87807500Y-72802500D03*
X87807500Y-73302500D03*
X87807500Y-73802500D03*
X87807500Y-74302500D03*
X87807500Y-74802500D03*
X87807500Y-75302500D03*
X87807500Y-75802500D03*
X87807500Y-76302500D03*
X87807500Y-76802500D03*
X87807500Y-77302500D03*
X87807500Y-77802500D03*
X87807500Y-78302500D03*
X87807500Y-78802500D03*
X87807500Y-79302500D03*
X87807500Y-79802500D03*
X87807500Y-80302500D03*
X87807500Y-80802500D03*
X87807500Y-81302500D03*
X87807500Y-81802500D03*
X87807500Y-82302500D03*
X87807500Y-82802500D03*
X87807500Y-83302500D03*
X87807500Y-83802500D03*
D21*
X89720000Y-85715000D03*
X90220000Y-85715000D03*
X90720000Y-85715000D03*
X91220000Y-85715000D03*
X91720000Y-85715000D03*
X92220000Y-85715000D03*
X92720000Y-85715000D03*
X93220000Y-85715000D03*
X93720000Y-85715000D03*
X94220000Y-85715000D03*
X94720000Y-85715000D03*
X95220000Y-85715000D03*
X95720000Y-85715000D03*
X96220000Y-85715000D03*
X96720000Y-85715000D03*
X97220000Y-85715000D03*
X97720000Y-85715000D03*
X98220000Y-85715000D03*
X98720000Y-85715000D03*
X99220000Y-85715000D03*
X99720000Y-85715000D03*
X100220000Y-85715000D03*
X100720000Y-85715000D03*
X101220000Y-85715000D03*
X101720000Y-85715000D03*
X102220000Y-85715000D03*
X102720000Y-85715000D03*
X103220000Y-85715000D03*
X103720000Y-85715000D03*
X104220000Y-85715000D03*
X104720000Y-85715000D03*
X105220000Y-85715000D03*
X105720000Y-85715000D03*
X106220000Y-85715000D03*
X106720000Y-85715000D03*
X107220000Y-85715000D03*
D20*
X109132500Y-83802500D03*
X109132500Y-83302500D03*
X109132500Y-82802500D03*
X109132500Y-82302500D03*
X109132500Y-81802500D03*
X109132500Y-81302500D03*
X109132500Y-80802500D03*
X109132500Y-80302500D03*
X109132500Y-79802500D03*
X109132500Y-79302500D03*
X109132500Y-78802500D03*
X109132500Y-78302500D03*
X109132500Y-77802500D03*
X109132500Y-77302500D03*
X109132500Y-76802500D03*
X109132500Y-76302500D03*
X109132500Y-75802500D03*
X109132500Y-75302500D03*
X109132500Y-74802500D03*
X109132500Y-74302500D03*
X109132500Y-73802500D03*
X109132500Y-73302500D03*
X109132500Y-72802500D03*
X109132500Y-72302500D03*
X109132500Y-71802500D03*
X109132500Y-71302500D03*
X109132500Y-70802500D03*
X109132500Y-70302500D03*
X109132500Y-69802500D03*
X109132500Y-69302500D03*
X109132500Y-68802500D03*
X109132500Y-68302500D03*
X109132500Y-67802500D03*
X109132500Y-67302500D03*
X109132500Y-66802500D03*
X109132500Y-66302500D03*
D21*
X107220000Y-64390000D03*
X106720000Y-64390000D03*
X106220000Y-64390000D03*
X105720000Y-64390000D03*
X105220000Y-64390000D03*
X104720000Y-64390000D03*
X104220000Y-64390000D03*
X103720000Y-64390000D03*
X103220000Y-64390000D03*
X102720000Y-64390000D03*
X102220000Y-64390000D03*
X101720000Y-64390000D03*
X101220000Y-64390000D03*
X100720000Y-64390000D03*
X100220000Y-64390000D03*
X99720000Y-64390000D03*
X99220000Y-64390000D03*
X98720000Y-64390000D03*
X98220000Y-64390000D03*
X97720000Y-64390000D03*
X97220000Y-64390000D03*
X96720000Y-64390000D03*
X96220000Y-64390000D03*
X95720000Y-64390000D03*
X95220000Y-64390000D03*
X94720000Y-64390000D03*
X94220000Y-64390000D03*
X93720000Y-64390000D03*
X93220000Y-64390000D03*
X92720000Y-64390000D03*
X92220000Y-64390000D03*
X91720000Y-64390000D03*
X91220000Y-64390000D03*
X90720000Y-64390000D03*
X90220000Y-64390000D03*
X89720000Y-64390000D03*
%TD*%
D10*
%TO.C,R_R0*%
X92820000Y-56990000D03*
X92820000Y-55340000D03*
%TD*%
%TO.C,R_B3*%
X100820000Y-56990000D03*
X100820000Y-55340000D03*
%TD*%
D18*
%TO.C,C11*%
X102420000Y-59790000D03*
X102420000Y-61690000D03*
%TD*%
D19*
%TO.C,C6*%
X107620000Y-87840000D03*
X107620000Y-89390000D03*
%TD*%
D10*
%TO.C,R_B0*%
X105620000Y-56990000D03*
X105620000Y-55340000D03*
%TD*%
D19*
%TO.C,C14*%
X97420000Y-87815000D03*
X97420000Y-89365000D03*
%TD*%
D18*
%TO.C,C13*%
X94520000Y-87940000D03*
X94520000Y-89840000D03*
%TD*%
D10*
%TO.C,R_G1*%
X97620000Y-56990000D03*
X97620000Y-55340000D03*
%TD*%
D18*
%TO.C,C1*%
X110420000Y-87640000D03*
X110420000Y-89540000D03*
%TD*%
D10*
%TO.C,R_G0*%
X99220000Y-56990000D03*
X99220000Y-55340000D03*
%TD*%
%TO.C,R_R3*%
X88020000Y-56990000D03*
X88020000Y-55340000D03*
%TD*%
%TO.C,R_B1*%
X104020000Y-56990000D03*
X104020000Y-55340000D03*
%TD*%
D16*
%TO.C,R5*%
X108820000Y-55340000D03*
X108820000Y-56990000D03*
%TD*%
M02*
