%TF.GenerationSoftware,KiCad,Pcbnew,9.0.3*%
%TF.CreationDate,2025-12-13T00:06:23+05:30*%
%TF.ProjectId,vga,7667612e-6b69-4636-9164-5f7063625858,rev?*%
%TF.SameCoordinates,Original*%
%TF.FileFunction,Copper,L2,Inr*%
%TF.FilePolarity,Positive*%
%FSLAX46Y46*%
G04 Gerber Fmt 4.6, Leading zero omitted, Abs format (unit mm)*
G04 Created by KiCad (PCBNEW 9.0.3) date 2025-12-13 00:06:23*
%MOMM*%
%LPD*%
G01*
G04 APERTURE LIST*
%TA.AperFunction,ComponentPad*%
%ADD10R,1.700000X1.700000*%
%TD*%
%TA.AperFunction,ComponentPad*%
%ADD11C,1.700000*%
%TD*%
%TA.AperFunction,ComponentPad*%
%ADD12R,1.600000X1.600000*%
%TD*%
%TA.AperFunction,ComponentPad*%
%ADD13C,1.600000*%
%TD*%
%TA.AperFunction,ViaPad*%
%ADD14C,0.600000*%
%TD*%
%TA.AperFunction,ViaPad*%
%ADD15C,0.800000*%
%TD*%
G04 APERTURE END LIST*
D10*
%TO.N,GND*%
%TO.C,J_PROG1*%
X92220000Y-92590000D03*
D11*
%TO.N,+3.3V*%
X94760000Y-92590000D03*
%TO.N,/SCK*%
X97300000Y-92590000D03*
%TO.N,/SDI*%
X99840000Y-92590000D03*
%TO.N,/SDO*%
X102380000Y-92590000D03*
%TO.N,/SS*%
X104920000Y-92590000D03*
%TD*%
D12*
%TO.N,/VGA_RED_OUT*%
%TO.C,J1*%
X88725000Y-52355331D03*
D13*
%TO.N,/VGA_GREEN_OUT*%
X91495000Y-52355331D03*
%TO.N,/VGA_BLUE_OUT*%
X94265000Y-52355331D03*
%TO.N,unconnected-(J1-Pad4)*%
X97035000Y-52355331D03*
%TO.N,GND*%
X99805000Y-52355331D03*
X102575000Y-52355331D03*
X105345000Y-52355331D03*
X108115000Y-52355331D03*
%TO.N,unconnected-(J1-Pad9)*%
X90110000Y-49515331D03*
%TO.N,unconnected-(J1-Pad10)*%
X92880000Y-49515331D03*
%TO.N,unconnected-(J1-Pad11)*%
X95650000Y-49515331D03*
%TO.N,unconnected-(J1-Pad12)*%
X98420000Y-49515331D03*
%TO.N,/HSYNC*%
X101190000Y-49515331D03*
%TO.N,/VSYNC*%
X103960000Y-49515331D03*
%TO.N,unconnected-(J1-Pad15)*%
X106730000Y-49515331D03*
%TD*%
D14*
%TO.N,VCCINT*%
X109320000Y-62340000D03*
X107520000Y-50640000D03*
X101520000Y-51140000D03*
X90420000Y-58740000D03*
%TO.N,+3.3V*%
X94120000Y-91440000D03*
%TO.N,VCCINT*%
X107420000Y-74040000D03*
X110720000Y-72871245D03*
%TO.N,Net-(U1A-IOT_78)*%
X96020000Y-56990000D03*
X108950331Y-54409669D03*
X107813413Y-63433413D03*
X103426511Y-65765000D03*
%TO.N,Net-(U1A-IOT_77)*%
X94420000Y-56990000D03*
X106346824Y-56078354D03*
X105764015Y-57947188D03*
X106304620Y-61624620D03*
%TO.N,Net-(U1A-IOT_76)*%
X92820000Y-56990000D03*
X104770764Y-58790764D03*
X104559817Y-56192198D03*
X104145000Y-65549879D03*
%TO.N,Net-(U1A-IOT_75)*%
X91220000Y-56990000D03*
X92062822Y-66066932D03*
%TO.N,Net-(U1A-IOT_74)*%
X89620000Y-56990000D03*
X91683603Y-66714000D03*
%TO.N,Net-(U1A-IOT_85_GBIN0)*%
X108820000Y-56990000D03*
X105570000Y-68003172D03*
X99231828Y-67865000D03*
X96970050Y-65548879D03*
%TO.N,Net-(U1A-IOT_84_GBIN1)*%
X105620000Y-56990000D03*
X97720000Y-65540000D03*
%TO.N,Net-(U1A-IOT_87)*%
X109420000Y-63340000D03*
X94612568Y-63308641D03*
%TO.N,Net-(U1A-IOT_79)*%
X97620000Y-56990000D03*
X102719999Y-65361351D03*
%TO.N,Net-(U1A-IOT_80)*%
X102770003Y-58389000D03*
X102595000Y-62693070D03*
%TO.N,Net-(U1A-IOT_81)*%
X102020000Y-58389000D03*
X101960642Y-63094781D03*
%TO.N,Net-(U1A-IOT_82)*%
X101385642Y-62396239D03*
X102420000Y-56990000D03*
%TO.N,Net-(U1A-IOT_83)*%
X104020000Y-56990000D03*
X100707989Y-65454680D03*
%TO.N,GND*%
X108100330Y-53559669D03*
X104710000Y-51710417D03*
X101620000Y-54240000D03*
D15*
%TO.N,/HSYNC*%
X105120000Y-50840000D03*
D14*
%TO.N,+3.3V*%
X111020000Y-75840000D03*
X86320000Y-80840000D03*
X110820000Y-70340000D03*
X101220000Y-87140000D03*
X108320000Y-86140000D03*
X100720000Y-62840000D03*
X86420000Y-68840000D03*
X106120000Y-59140000D03*
X93220000Y-87140000D03*
X95820000Y-62940000D03*
%TO.N,GND*%
X86220000Y-84540000D03*
X110920000Y-77240000D03*
X87220000Y-85740000D03*
X98720000Y-90440000D03*
X92720000Y-62940000D03*
X109020000Y-61340000D03*
X86420000Y-67940000D03*
X100720000Y-84640000D03*
X108920000Y-89640000D03*
X100720000Y-59140000D03*
%TO.N,VCCINT*%
X87720000Y-60340000D03*
X106420000Y-62940000D03*
X86320000Y-79340000D03*
X110920000Y-74340000D03*
X96020000Y-87240000D03*
%TO.N,/SDI*%
X105982836Y-87002837D03*
X105220000Y-84540000D03*
%TO.N,/SDO*%
X104420000Y-84440000D03*
X103420000Y-90940000D03*
%TO.N,/SCK*%
X106728072Y-84527500D03*
X98220000Y-91640000D03*
%TO.N,Net-(U1C-IOB_42_CBSEL0)*%
X100570000Y-87766101D03*
X102620000Y-86840000D03*
%TO.N,VCCPLL*%
X90720000Y-89540000D03*
%TD*%
%TA.AperFunction,Conductor*%
%TO.N,GND*%
G36*
X111563404Y-45559898D02*
G01*
X111609358Y-45612529D01*
X111620758Y-45663706D01*
X111775218Y-70840499D01*
X111918311Y-94164741D01*
X111899039Y-94231898D01*
X111846516Y-94277976D01*
X111794314Y-94289500D01*
X85344000Y-94289500D01*
X85276961Y-94269815D01*
X85231206Y-94217011D01*
X85220000Y-94165500D01*
X85220000Y-91692155D01*
X90870000Y-91692155D01*
X90870000Y-92340000D01*
X91786988Y-92340000D01*
X91754075Y-92397007D01*
X91720000Y-92524174D01*
X91720000Y-92655826D01*
X91754075Y-92782993D01*
X91786988Y-92840000D01*
X90870000Y-92840000D01*
X90870000Y-93487844D01*
X90876401Y-93547372D01*
X90876403Y-93547379D01*
X90926645Y-93682086D01*
X90926649Y-93682093D01*
X91012809Y-93797187D01*
X91012812Y-93797190D01*
X91127906Y-93883350D01*
X91127913Y-93883354D01*
X91262620Y-93933596D01*
X91262627Y-93933598D01*
X91322155Y-93939999D01*
X91322172Y-93940000D01*
X91970000Y-93940000D01*
X91970000Y-93023012D01*
X92027007Y-93055925D01*
X92154174Y-93090000D01*
X92285826Y-93090000D01*
X92412993Y-93055925D01*
X92470000Y-93023012D01*
X92470000Y-93940000D01*
X93117828Y-93940000D01*
X93117844Y-93939999D01*
X93177372Y-93933598D01*
X93177379Y-93933596D01*
X93312086Y-93883354D01*
X93312093Y-93883350D01*
X93427187Y-93797190D01*
X93427190Y-93797187D01*
X93513350Y-93682093D01*
X93513354Y-93682086D01*
X93563596Y-93547379D01*
X93563598Y-93547372D01*
X93569999Y-93487844D01*
X93570000Y-93487827D01*
X93570000Y-93085564D01*
X93589685Y-93018525D01*
X93642489Y-92972770D01*
X93711647Y-92962826D01*
X93775203Y-92991851D01*
X93808561Y-93038112D01*
X93819248Y-93063914D01*
X93829059Y-93087598D01*
X93905701Y-93202302D01*
X93944024Y-93259657D01*
X94090342Y-93405975D01*
X94090345Y-93405977D01*
X94262402Y-93520941D01*
X94453580Y-93600130D01*
X94656530Y-93640499D01*
X94656534Y-93640500D01*
X94656535Y-93640500D01*
X94863466Y-93640500D01*
X94863467Y-93640499D01*
X95066420Y-93600130D01*
X95257598Y-93520941D01*
X95429655Y-93405977D01*
X95575977Y-93259655D01*
X95690941Y-93087598D01*
X95770130Y-92896420D01*
X95810500Y-92693465D01*
X95810500Y-92688543D01*
X96299499Y-92688543D01*
X96337947Y-92881829D01*
X96337950Y-92881839D01*
X96413364Y-93063907D01*
X96413371Y-93063920D01*
X96522860Y-93227781D01*
X96522863Y-93227785D01*
X96662214Y-93367136D01*
X96662218Y-93367139D01*
X96826079Y-93476628D01*
X96826092Y-93476635D01*
X97008160Y-93552049D01*
X97008165Y-93552051D01*
X97008169Y-93552051D01*
X97008170Y-93552052D01*
X97201456Y-93590500D01*
X97201459Y-93590500D01*
X97398543Y-93590500D01*
X97528582Y-93564632D01*
X97591835Y-93552051D01*
X97773914Y-93476632D01*
X97937782Y-93367139D01*
X98077139Y-93227782D01*
X98186632Y-93063914D01*
X98262051Y-92881835D01*
X98299520Y-92693469D01*
X98300500Y-92688543D01*
X98839499Y-92688543D01*
X98877947Y-92881829D01*
X98877950Y-92881839D01*
X98953364Y-93063907D01*
X98953371Y-93063920D01*
X99062860Y-93227781D01*
X99062863Y-93227785D01*
X99202214Y-93367136D01*
X99202218Y-93367139D01*
X99366079Y-93476628D01*
X99366092Y-93476635D01*
X99548160Y-93552049D01*
X99548165Y-93552051D01*
X99548169Y-93552051D01*
X99548170Y-93552052D01*
X99741456Y-93590500D01*
X99741459Y-93590500D01*
X99938543Y-93590500D01*
X100068582Y-93564632D01*
X100131835Y-93552051D01*
X100313914Y-93476632D01*
X100477782Y-93367139D01*
X100617139Y-93227782D01*
X100726632Y-93063914D01*
X100802051Y-92881835D01*
X100839520Y-92693469D01*
X100840500Y-92688543D01*
X101379499Y-92688543D01*
X101417947Y-92881829D01*
X101417950Y-92881839D01*
X101493364Y-93063907D01*
X101493371Y-93063920D01*
X101602860Y-93227781D01*
X101602863Y-93227785D01*
X101742214Y-93367136D01*
X101742218Y-93367139D01*
X101906079Y-93476628D01*
X101906092Y-93476635D01*
X102088160Y-93552049D01*
X102088165Y-93552051D01*
X102088169Y-93552051D01*
X102088170Y-93552052D01*
X102281456Y-93590500D01*
X102281459Y-93590500D01*
X102478543Y-93590500D01*
X102608582Y-93564632D01*
X102671835Y-93552051D01*
X102853914Y-93476632D01*
X103017782Y-93367139D01*
X103157139Y-93227782D01*
X103266632Y-93063914D01*
X103342051Y-92881835D01*
X103379520Y-92693469D01*
X103380500Y-92688543D01*
X103919499Y-92688543D01*
X103957947Y-92881829D01*
X103957950Y-92881839D01*
X104033364Y-93063907D01*
X104033371Y-93063920D01*
X104142860Y-93227781D01*
X104142863Y-93227785D01*
X104282214Y-93367136D01*
X104282218Y-93367139D01*
X104446079Y-93476628D01*
X104446092Y-93476635D01*
X104628160Y-93552049D01*
X104628165Y-93552051D01*
X104628169Y-93552051D01*
X104628170Y-93552052D01*
X104821456Y-93590500D01*
X104821459Y-93590500D01*
X105018543Y-93590500D01*
X105148582Y-93564632D01*
X105211835Y-93552051D01*
X105393914Y-93476632D01*
X105557782Y-93367139D01*
X105697139Y-93227782D01*
X105806632Y-93063914D01*
X105882051Y-92881835D01*
X105919520Y-92693469D01*
X105920500Y-92688543D01*
X105920500Y-92491456D01*
X105882052Y-92298170D01*
X105882051Y-92298169D01*
X105882051Y-92298165D01*
X105875767Y-92282993D01*
X105806635Y-92116092D01*
X105806628Y-92116079D01*
X105697139Y-91952218D01*
X105697136Y-91952214D01*
X105557785Y-91812863D01*
X105557781Y-91812860D01*
X105393920Y-91703371D01*
X105393907Y-91703364D01*
X105211839Y-91627950D01*
X105211829Y-91627947D01*
X105018543Y-91589500D01*
X105018541Y-91589500D01*
X104821459Y-91589500D01*
X104821457Y-91589500D01*
X104628170Y-91627947D01*
X104628160Y-91627950D01*
X104446092Y-91703364D01*
X104446079Y-91703371D01*
X104282218Y-91812860D01*
X104282214Y-91812863D01*
X104142863Y-91952214D01*
X104142860Y-91952218D01*
X104033371Y-92116079D01*
X104033364Y-92116092D01*
X103957950Y-92298160D01*
X103957947Y-92298170D01*
X103919500Y-92491456D01*
X103919500Y-92491459D01*
X103919500Y-92688541D01*
X103919500Y-92688543D01*
X103919499Y-92688543D01*
X103380500Y-92688543D01*
X103380500Y-92491456D01*
X103342052Y-92298170D01*
X103342051Y-92298169D01*
X103342051Y-92298165D01*
X103335767Y-92282993D01*
X103266635Y-92116092D01*
X103266628Y-92116079D01*
X103157139Y-91952218D01*
X103157136Y-91952214D01*
X103017785Y-91812863D01*
X103017781Y-91812860D01*
X102853920Y-91703371D01*
X102853907Y-91703364D01*
X102671839Y-91627950D01*
X102671829Y-91627947D01*
X102478543Y-91589500D01*
X102478541Y-91589500D01*
X102281459Y-91589500D01*
X102281457Y-91589500D01*
X102088170Y-91627947D01*
X102088160Y-91627950D01*
X101906092Y-91703364D01*
X101906079Y-91703371D01*
X101742218Y-91812860D01*
X101742214Y-91812863D01*
X101602863Y-91952214D01*
X101602860Y-91952218D01*
X101493371Y-92116079D01*
X101493364Y-92116092D01*
X101417950Y-92298160D01*
X101417947Y-92298170D01*
X101379500Y-92491456D01*
X101379500Y-92491459D01*
X101379500Y-92688541D01*
X101379500Y-92688543D01*
X101379499Y-92688543D01*
X100840500Y-92688543D01*
X100840500Y-92491456D01*
X100802052Y-92298170D01*
X100802051Y-92298169D01*
X100802051Y-92298165D01*
X100795767Y-92282993D01*
X100726635Y-92116092D01*
X100726628Y-92116079D01*
X100617139Y-91952218D01*
X100617136Y-91952214D01*
X100477785Y-91812863D01*
X100477781Y-91812860D01*
X100313920Y-91703371D01*
X100313907Y-91703364D01*
X100131839Y-91627950D01*
X100131829Y-91627947D01*
X99938543Y-91589500D01*
X99938541Y-91589500D01*
X99741459Y-91589500D01*
X99741457Y-91589500D01*
X99548170Y-91627947D01*
X99548160Y-91627950D01*
X99366092Y-91703364D01*
X99366079Y-91703371D01*
X99202218Y-91812860D01*
X99202214Y-91812863D01*
X99062863Y-91952214D01*
X99062860Y-91952218D01*
X98953371Y-92116079D01*
X98953364Y-92116092D01*
X98877950Y-92298160D01*
X98877947Y-92298170D01*
X98839500Y-92491456D01*
X98839500Y-92491459D01*
X98839500Y-92688541D01*
X98839500Y-92688543D01*
X98839499Y-92688543D01*
X98300500Y-92688543D01*
X98300500Y-92491456D01*
X98262052Y-92298170D01*
X98262051Y-92298169D01*
X98262051Y-92298165D01*
X98256010Y-92283580D01*
X98240460Y-92246038D01*
X98232991Y-92176569D01*
X98264267Y-92114090D01*
X98322926Y-92078812D01*
X98393886Y-92059799D01*
X98496613Y-92000489D01*
X98580489Y-91916613D01*
X98639799Y-91813886D01*
X98670500Y-91699309D01*
X98670500Y-91580691D01*
X98639799Y-91466114D01*
X98580489Y-91363387D01*
X98496613Y-91279511D01*
X98393886Y-91220201D01*
X98279309Y-91189500D01*
X98160691Y-91189500D01*
X98046114Y-91220201D01*
X98046112Y-91220201D01*
X98046112Y-91220202D01*
X97943387Y-91279511D01*
X97943384Y-91279513D01*
X97859513Y-91363384D01*
X97859511Y-91363387D01*
X97800201Y-91466112D01*
X97776949Y-91552891D01*
X97740583Y-91612552D01*
X97677736Y-91643080D01*
X97609722Y-91635358D01*
X97591835Y-91627949D01*
X97591831Y-91627948D01*
X97591829Y-91627947D01*
X97398543Y-91589500D01*
X97398541Y-91589500D01*
X97201459Y-91589500D01*
X97201457Y-91589500D01*
X97008170Y-91627947D01*
X97008160Y-91627950D01*
X96826092Y-91703364D01*
X96826079Y-91703371D01*
X96662218Y-91812860D01*
X96662214Y-91812863D01*
X96522863Y-91952214D01*
X96522860Y-91952218D01*
X96413371Y-92116079D01*
X96413364Y-92116092D01*
X96337950Y-92298160D01*
X96337947Y-92298170D01*
X96299500Y-92491456D01*
X96299500Y-92491459D01*
X96299500Y-92688541D01*
X96299500Y-92688543D01*
X96299499Y-92688543D01*
X95810500Y-92688543D01*
X95810500Y-92486535D01*
X95770130Y-92283580D01*
X95690941Y-92092402D01*
X95575977Y-91920345D01*
X95575975Y-91920342D01*
X95429657Y-91774024D01*
X95323916Y-91703371D01*
X95257598Y-91659059D01*
X95195135Y-91633186D01*
X95066420Y-91579870D01*
X95066412Y-91579868D01*
X94863469Y-91539500D01*
X94863465Y-91539500D01*
X94744500Y-91539500D01*
X94677461Y-91519815D01*
X94631706Y-91467011D01*
X94620500Y-91415500D01*
X94620500Y-91374110D01*
X94620500Y-91374108D01*
X94586392Y-91246814D01*
X94520500Y-91132686D01*
X94427314Y-91039500D01*
X94379895Y-91012123D01*
X94324173Y-90979951D01*
X94324172Y-90979950D01*
X94313191Y-90973610D01*
X94313188Y-90973609D01*
X94313187Y-90973608D01*
X94313186Y-90973608D01*
X94185892Y-90939500D01*
X94054108Y-90939500D01*
X93926812Y-90973608D01*
X93812686Y-91039500D01*
X93812683Y-91039502D01*
X93719502Y-91132683D01*
X93719500Y-91132686D01*
X93671045Y-91216613D01*
X93653608Y-91246814D01*
X93640256Y-91296645D01*
X93632608Y-91325187D01*
X93596242Y-91384848D01*
X93533395Y-91415376D01*
X93464020Y-91407081D01*
X93434868Y-91387350D01*
X93434288Y-91388125D01*
X93312093Y-91296649D01*
X93312086Y-91296645D01*
X93177379Y-91246403D01*
X93177372Y-91246401D01*
X93117844Y-91240000D01*
X92470000Y-91240000D01*
X92470000Y-92156988D01*
X92412993Y-92124075D01*
X92285826Y-92090000D01*
X92154174Y-92090000D01*
X92027007Y-92124075D01*
X91970000Y-92156988D01*
X91970000Y-91240000D01*
X91322155Y-91240000D01*
X91262627Y-91246401D01*
X91262620Y-91246403D01*
X91127913Y-91296645D01*
X91127906Y-91296649D01*
X91012812Y-91382809D01*
X91012809Y-91382812D01*
X90926649Y-91497906D01*
X90926645Y-91497913D01*
X90876403Y-91632620D01*
X90876401Y-91632627D01*
X90870000Y-91692155D01*
X85220000Y-91692155D01*
X85220000Y-90880691D01*
X102969500Y-90880691D01*
X102969500Y-90999309D01*
X103000201Y-91113886D01*
X103059511Y-91216613D01*
X103143387Y-91300489D01*
X103246114Y-91359799D01*
X103360691Y-91390500D01*
X103360694Y-91390500D01*
X103479306Y-91390500D01*
X103479309Y-91390500D01*
X103593886Y-91359799D01*
X103696613Y-91300489D01*
X103780489Y-91216613D01*
X103839799Y-91113886D01*
X103870500Y-90999309D01*
X103870500Y-90880691D01*
X103839799Y-90766114D01*
X103780489Y-90663387D01*
X103696613Y-90579511D01*
X103593886Y-90520201D01*
X103479309Y-90489500D01*
X103360691Y-90489500D01*
X103246114Y-90520201D01*
X103246112Y-90520201D01*
X103246112Y-90520202D01*
X103143387Y-90579511D01*
X103143384Y-90579513D01*
X103059513Y-90663384D01*
X103059511Y-90663387D01*
X103000201Y-90766114D01*
X102969500Y-90880691D01*
X85220000Y-90880691D01*
X85220000Y-89474108D01*
X90219500Y-89474108D01*
X90219500Y-89605891D01*
X90253608Y-89733187D01*
X90286554Y-89790250D01*
X90319500Y-89847314D01*
X90412686Y-89940500D01*
X90526814Y-90006392D01*
X90654108Y-90040500D01*
X90654110Y-90040500D01*
X90785890Y-90040500D01*
X90785892Y-90040500D01*
X90913186Y-90006392D01*
X91027314Y-89940500D01*
X91120500Y-89847314D01*
X91186392Y-89733186D01*
X91220500Y-89605892D01*
X91220500Y-89474108D01*
X91186392Y-89346814D01*
X91120500Y-89232686D01*
X91027314Y-89139500D01*
X90970250Y-89106554D01*
X90913187Y-89073608D01*
X90849539Y-89056554D01*
X90785892Y-89039500D01*
X90654108Y-89039500D01*
X90526812Y-89073608D01*
X90412686Y-89139500D01*
X90412683Y-89139502D01*
X90319502Y-89232683D01*
X90319500Y-89232686D01*
X90253608Y-89346812D01*
X90219500Y-89474108D01*
X85220000Y-89474108D01*
X85220000Y-87074108D01*
X92719500Y-87074108D01*
X92719500Y-87205891D01*
X92753608Y-87333187D01*
X92771009Y-87363325D01*
X92819500Y-87447314D01*
X92912686Y-87540500D01*
X93026814Y-87606392D01*
X93154108Y-87640500D01*
X93154110Y-87640500D01*
X93285890Y-87640500D01*
X93285892Y-87640500D01*
X93413186Y-87606392D01*
X93527314Y-87540500D01*
X93620500Y-87447314D01*
X93686392Y-87333186D01*
X93720500Y-87205892D01*
X93720500Y-87174108D01*
X95519500Y-87174108D01*
X95519500Y-87305892D01*
X95526813Y-87333186D01*
X95553608Y-87433187D01*
X95561766Y-87447316D01*
X95619500Y-87547314D01*
X95712686Y-87640500D01*
X95826814Y-87706392D01*
X95954108Y-87740500D01*
X95954110Y-87740500D01*
X96085890Y-87740500D01*
X96085892Y-87740500D01*
X96211693Y-87706792D01*
X100119500Y-87706792D01*
X100119500Y-87825410D01*
X100150201Y-87939987D01*
X100209511Y-88042714D01*
X100293387Y-88126590D01*
X100396114Y-88185900D01*
X100510691Y-88216601D01*
X100510694Y-88216601D01*
X100629306Y-88216601D01*
X100629309Y-88216601D01*
X100743886Y-88185900D01*
X100846613Y-88126590D01*
X100930489Y-88042714D01*
X100989799Y-87939987D01*
X101020500Y-87825410D01*
X101020500Y-87764304D01*
X101040185Y-87697265D01*
X101092989Y-87651510D01*
X101145981Y-87643587D01*
X101145981Y-87640500D01*
X101285890Y-87640500D01*
X101285892Y-87640500D01*
X101413186Y-87606392D01*
X101527314Y-87540500D01*
X101620500Y-87447314D01*
X101686392Y-87333186D01*
X101720500Y-87205892D01*
X101720500Y-87074108D01*
X101686392Y-86946814D01*
X101620500Y-86832686D01*
X101568505Y-86780691D01*
X102169500Y-86780691D01*
X102169500Y-86899309D01*
X102200201Y-87013886D01*
X102259511Y-87116613D01*
X102343387Y-87200489D01*
X102446114Y-87259799D01*
X102560691Y-87290500D01*
X102560694Y-87290500D01*
X102679306Y-87290500D01*
X102679309Y-87290500D01*
X102793886Y-87259799D01*
X102896613Y-87200489D01*
X102980489Y-87116613D01*
X103039799Y-87013886D01*
X103058651Y-86943528D01*
X105532336Y-86943528D01*
X105532336Y-87062146D01*
X105563037Y-87176723D01*
X105622347Y-87279450D01*
X105706223Y-87363326D01*
X105808950Y-87422636D01*
X105923527Y-87453337D01*
X105923530Y-87453337D01*
X106042142Y-87453337D01*
X106042145Y-87453337D01*
X106156722Y-87422636D01*
X106259449Y-87363326D01*
X106343325Y-87279450D01*
X106402635Y-87176723D01*
X106433336Y-87062146D01*
X106433336Y-86943528D01*
X106402635Y-86828951D01*
X106343325Y-86726224D01*
X106259449Y-86642348D01*
X106156722Y-86583038D01*
X106042145Y-86552337D01*
X105923527Y-86552337D01*
X105808950Y-86583038D01*
X105808948Y-86583038D01*
X105808948Y-86583039D01*
X105706223Y-86642348D01*
X105706220Y-86642350D01*
X105622349Y-86726221D01*
X105622347Y-86726224D01*
X105563037Y-86828951D01*
X105532336Y-86943528D01*
X103058651Y-86943528D01*
X103070500Y-86899309D01*
X103070500Y-86780691D01*
X103039799Y-86666114D01*
X102980489Y-86563387D01*
X102896613Y-86479511D01*
X102793886Y-86420201D01*
X102679309Y-86389500D01*
X102560691Y-86389500D01*
X102446114Y-86420201D01*
X102446112Y-86420201D01*
X102446112Y-86420202D01*
X102343387Y-86479511D01*
X102343384Y-86479513D01*
X102259513Y-86563384D01*
X102259511Y-86563387D01*
X102200201Y-86666114D01*
X102169500Y-86780691D01*
X101568505Y-86780691D01*
X101527314Y-86739500D01*
X101470250Y-86706554D01*
X101413187Y-86673608D01*
X101296528Y-86642350D01*
X101285892Y-86639500D01*
X101154108Y-86639500D01*
X101026812Y-86673608D01*
X100912686Y-86739500D01*
X100912683Y-86739502D01*
X100819502Y-86832683D01*
X100819500Y-86832686D01*
X100753608Y-86946812D01*
X100719500Y-87074108D01*
X100719500Y-87191601D01*
X100699815Y-87258640D01*
X100647011Y-87304395D01*
X100595500Y-87315601D01*
X100510691Y-87315601D01*
X100396114Y-87346302D01*
X100396112Y-87346302D01*
X100396112Y-87346303D01*
X100293387Y-87405612D01*
X100293384Y-87405614D01*
X100209513Y-87489485D01*
X100209511Y-87489488D01*
X100180060Y-87540499D01*
X100150201Y-87592215D01*
X100119500Y-87706792D01*
X96211693Y-87706792D01*
X96213186Y-87706392D01*
X96327314Y-87640500D01*
X96420500Y-87547314D01*
X96486392Y-87433186D01*
X96520500Y-87305892D01*
X96520500Y-87174108D01*
X96486392Y-87046814D01*
X96420500Y-86932686D01*
X96327314Y-86839500D01*
X96225458Y-86780693D01*
X96213187Y-86773608D01*
X96149539Y-86756554D01*
X96085892Y-86739500D01*
X95954108Y-86739500D01*
X95826812Y-86773608D01*
X95712686Y-86839500D01*
X95712683Y-86839502D01*
X95619502Y-86932683D01*
X95619500Y-86932686D01*
X95553608Y-87046812D01*
X95534905Y-87116615D01*
X95519500Y-87174108D01*
X93720500Y-87174108D01*
X93720500Y-87074108D01*
X93686392Y-86946814D01*
X93620500Y-86832686D01*
X93527314Y-86739500D01*
X93470250Y-86706554D01*
X93413187Y-86673608D01*
X93296528Y-86642350D01*
X93285892Y-86639500D01*
X93154108Y-86639500D01*
X93026812Y-86673608D01*
X92912686Y-86739500D01*
X92912683Y-86739502D01*
X92819502Y-86832683D01*
X92819500Y-86832686D01*
X92753608Y-86946812D01*
X92719500Y-87074108D01*
X85220000Y-87074108D01*
X85220000Y-86074108D01*
X107819500Y-86074108D01*
X107819500Y-86205891D01*
X107853608Y-86333187D01*
X107886121Y-86389500D01*
X107919500Y-86447314D01*
X108012686Y-86540500D01*
X108126814Y-86606392D01*
X108254108Y-86640500D01*
X108254110Y-86640500D01*
X108385890Y-86640500D01*
X108385892Y-86640500D01*
X108513186Y-86606392D01*
X108627314Y-86540500D01*
X108720500Y-86447314D01*
X108786392Y-86333186D01*
X108820500Y-86205892D01*
X108820500Y-86074108D01*
X108786392Y-85946814D01*
X108720500Y-85832686D01*
X108627314Y-85739500D01*
X108570250Y-85706554D01*
X108513187Y-85673608D01*
X108449539Y-85656554D01*
X108385892Y-85639500D01*
X108254108Y-85639500D01*
X108126812Y-85673608D01*
X108012686Y-85739500D01*
X108012683Y-85739502D01*
X107919502Y-85832683D01*
X107919500Y-85832686D01*
X107853608Y-85946812D01*
X107819500Y-86074108D01*
X85220000Y-86074108D01*
X85220000Y-84380691D01*
X103969500Y-84380691D01*
X103969500Y-84499309D01*
X104000201Y-84613886D01*
X104059511Y-84716613D01*
X104143387Y-84800489D01*
X104246114Y-84859799D01*
X104360691Y-84890500D01*
X104360694Y-84890500D01*
X104479306Y-84890500D01*
X104479309Y-84890500D01*
X104593886Y-84859799D01*
X104696613Y-84800489D01*
X104696614Y-84800487D01*
X104703651Y-84796425D01*
X104704867Y-84798531D01*
X104758516Y-84777771D01*
X104826966Y-84791787D01*
X104856555Y-84813657D01*
X104859510Y-84816612D01*
X104859511Y-84816613D01*
X104943387Y-84900489D01*
X105046114Y-84959799D01*
X105160691Y-84990500D01*
X105160694Y-84990500D01*
X105279306Y-84990500D01*
X105279309Y-84990500D01*
X105393886Y-84959799D01*
X105496613Y-84900489D01*
X105580489Y-84816613D01*
X105639799Y-84713886D01*
X105670500Y-84599309D01*
X105670500Y-84480691D01*
X105667151Y-84468191D01*
X106277572Y-84468191D01*
X106277572Y-84586809D01*
X106308273Y-84701386D01*
X106367583Y-84804113D01*
X106451459Y-84887989D01*
X106554186Y-84947299D01*
X106668763Y-84978000D01*
X106668766Y-84978000D01*
X106787378Y-84978000D01*
X106787381Y-84978000D01*
X106901958Y-84947299D01*
X107004685Y-84887989D01*
X107088561Y-84804113D01*
X107147871Y-84701386D01*
X107178572Y-84586809D01*
X107178572Y-84468191D01*
X107147871Y-84353614D01*
X107088561Y-84250887D01*
X107004685Y-84167011D01*
X106901958Y-84107701D01*
X106787381Y-84077000D01*
X106668763Y-84077000D01*
X106554186Y-84107701D01*
X106554184Y-84107701D01*
X106554184Y-84107702D01*
X106451459Y-84167011D01*
X106451456Y-84167013D01*
X106367585Y-84250884D01*
X106367583Y-84250887D01*
X106308273Y-84353614D01*
X106277572Y-84468191D01*
X105667151Y-84468191D01*
X105639799Y-84366114D01*
X105580489Y-84263387D01*
X105496613Y-84179511D01*
X105393886Y-84120201D01*
X105279309Y-84089500D01*
X105160691Y-84089500D01*
X105046114Y-84120201D01*
X104943387Y-84179511D01*
X104943385Y-84179512D01*
X104936349Y-84183575D01*
X104935135Y-84181473D01*
X104881440Y-84202231D01*
X104812995Y-84188192D01*
X104783444Y-84166342D01*
X104696615Y-84079513D01*
X104696613Y-84079511D01*
X104593886Y-84020201D01*
X104479309Y-83989500D01*
X104360691Y-83989500D01*
X104246114Y-84020201D01*
X104246112Y-84020201D01*
X104246112Y-84020202D01*
X104143387Y-84079511D01*
X104143384Y-84079513D01*
X104059513Y-84163384D01*
X104059511Y-84163387D01*
X104000201Y-84266114D01*
X103969500Y-84380691D01*
X85220000Y-84380691D01*
X85220000Y-80774108D01*
X85819500Y-80774108D01*
X85819500Y-80905891D01*
X85853608Y-81033187D01*
X85886554Y-81090250D01*
X85919500Y-81147314D01*
X86012686Y-81240500D01*
X86126814Y-81306392D01*
X86254108Y-81340500D01*
X86254110Y-81340500D01*
X86385890Y-81340500D01*
X86385892Y-81340500D01*
X86513186Y-81306392D01*
X86627314Y-81240500D01*
X86720500Y-81147314D01*
X86786392Y-81033186D01*
X86820500Y-80905892D01*
X86820500Y-80774108D01*
X86786392Y-80646814D01*
X86720500Y-80532686D01*
X86627314Y-80439500D01*
X86570250Y-80406554D01*
X86513187Y-80373608D01*
X86449539Y-80356554D01*
X86385892Y-80339500D01*
X86254108Y-80339500D01*
X86126812Y-80373608D01*
X86012686Y-80439500D01*
X86012683Y-80439502D01*
X85919502Y-80532683D01*
X85919500Y-80532686D01*
X85853608Y-80646812D01*
X85819500Y-80774108D01*
X85220000Y-80774108D01*
X85220000Y-79274108D01*
X85819500Y-79274108D01*
X85819500Y-79405891D01*
X85853608Y-79533187D01*
X85886554Y-79590250D01*
X85919500Y-79647314D01*
X86012686Y-79740500D01*
X86126814Y-79806392D01*
X86254108Y-79840500D01*
X86254110Y-79840500D01*
X86385890Y-79840500D01*
X86385892Y-79840500D01*
X86513186Y-79806392D01*
X86627314Y-79740500D01*
X86720500Y-79647314D01*
X86786392Y-79533186D01*
X86820500Y-79405892D01*
X86820500Y-79274108D01*
X86786392Y-79146814D01*
X86720500Y-79032686D01*
X86627314Y-78939500D01*
X86570250Y-78906554D01*
X86513187Y-78873608D01*
X86449539Y-78856554D01*
X86385892Y-78839500D01*
X86254108Y-78839500D01*
X86126812Y-78873608D01*
X86012686Y-78939500D01*
X86012683Y-78939502D01*
X85919502Y-79032683D01*
X85919500Y-79032686D01*
X85853608Y-79146812D01*
X85819500Y-79274108D01*
X85220000Y-79274108D01*
X85220000Y-75774108D01*
X110519500Y-75774108D01*
X110519500Y-75905891D01*
X110553608Y-76033187D01*
X110586554Y-76090250D01*
X110619500Y-76147314D01*
X110712686Y-76240500D01*
X110826814Y-76306392D01*
X110954108Y-76340500D01*
X110954110Y-76340500D01*
X111085890Y-76340500D01*
X111085892Y-76340500D01*
X111213186Y-76306392D01*
X111327314Y-76240500D01*
X111420500Y-76147314D01*
X111486392Y-76033186D01*
X111520500Y-75905892D01*
X111520500Y-75774108D01*
X111486392Y-75646814D01*
X111420500Y-75532686D01*
X111327314Y-75439500D01*
X111270250Y-75406554D01*
X111213187Y-75373608D01*
X111149539Y-75356554D01*
X111085892Y-75339500D01*
X110954108Y-75339500D01*
X110826812Y-75373608D01*
X110712686Y-75439500D01*
X110712683Y-75439502D01*
X110619502Y-75532683D01*
X110619500Y-75532686D01*
X110553608Y-75646812D01*
X110519500Y-75774108D01*
X85220000Y-75774108D01*
X85220000Y-73974108D01*
X106919500Y-73974108D01*
X106919500Y-74105891D01*
X106953608Y-74233187D01*
X106986554Y-74290250D01*
X107019500Y-74347314D01*
X107112686Y-74440500D01*
X107226814Y-74506392D01*
X107354108Y-74540500D01*
X107354110Y-74540500D01*
X107485890Y-74540500D01*
X107485892Y-74540500D01*
X107613186Y-74506392D01*
X107727314Y-74440500D01*
X107820500Y-74347314D01*
X107862766Y-74274108D01*
X110419500Y-74274108D01*
X110419500Y-74405891D01*
X110453608Y-74533187D01*
X110486554Y-74590250D01*
X110519500Y-74647314D01*
X110612686Y-74740500D01*
X110726814Y-74806392D01*
X110854108Y-74840500D01*
X110854110Y-74840500D01*
X110985890Y-74840500D01*
X110985892Y-74840500D01*
X111113186Y-74806392D01*
X111227314Y-74740500D01*
X111320500Y-74647314D01*
X111386392Y-74533186D01*
X111420500Y-74405892D01*
X111420500Y-74274108D01*
X111386392Y-74146814D01*
X111320500Y-74032686D01*
X111227314Y-73939500D01*
X111170250Y-73906554D01*
X111113187Y-73873608D01*
X111013188Y-73846814D01*
X110985892Y-73839500D01*
X110854108Y-73839500D01*
X110726812Y-73873608D01*
X110612686Y-73939500D01*
X110612683Y-73939502D01*
X110519502Y-74032683D01*
X110519500Y-74032686D01*
X110453608Y-74146812D01*
X110419500Y-74274108D01*
X107862766Y-74274108D01*
X107886392Y-74233186D01*
X107920500Y-74105892D01*
X107920500Y-73974108D01*
X107886392Y-73846814D01*
X107820500Y-73732686D01*
X107727314Y-73639500D01*
X107670250Y-73606554D01*
X107613187Y-73573608D01*
X107549539Y-73556554D01*
X107485892Y-73539500D01*
X107354108Y-73539500D01*
X107226812Y-73573608D01*
X107112686Y-73639500D01*
X107112683Y-73639502D01*
X107019502Y-73732683D01*
X107019500Y-73732686D01*
X106953608Y-73846812D01*
X106919500Y-73974108D01*
X85220000Y-73974108D01*
X85220000Y-72805353D01*
X110219500Y-72805353D01*
X110219500Y-72937136D01*
X110253608Y-73064432D01*
X110286554Y-73121495D01*
X110319500Y-73178559D01*
X110412686Y-73271745D01*
X110526814Y-73337637D01*
X110654108Y-73371745D01*
X110654110Y-73371745D01*
X110785890Y-73371745D01*
X110785892Y-73371745D01*
X110913186Y-73337637D01*
X111027314Y-73271745D01*
X111120500Y-73178559D01*
X111186392Y-73064431D01*
X111220500Y-72937137D01*
X111220500Y-72805353D01*
X111186392Y-72678059D01*
X111120500Y-72563931D01*
X111027314Y-72470745D01*
X110970250Y-72437799D01*
X110913187Y-72404853D01*
X110849539Y-72387799D01*
X110785892Y-72370745D01*
X110654108Y-72370745D01*
X110526812Y-72404853D01*
X110412686Y-72470745D01*
X110412683Y-72470747D01*
X110319502Y-72563928D01*
X110319500Y-72563931D01*
X110253608Y-72678057D01*
X110219500Y-72805353D01*
X85220000Y-72805353D01*
X85220000Y-70274108D01*
X110319500Y-70274108D01*
X110319500Y-70405891D01*
X110353608Y-70533187D01*
X110386554Y-70590250D01*
X110419500Y-70647314D01*
X110512686Y-70740500D01*
X110626814Y-70806392D01*
X110754108Y-70840500D01*
X110754110Y-70840500D01*
X110885890Y-70840500D01*
X110885892Y-70840500D01*
X111013186Y-70806392D01*
X111127314Y-70740500D01*
X111220500Y-70647314D01*
X111286392Y-70533186D01*
X111320500Y-70405892D01*
X111320500Y-70274108D01*
X111286392Y-70146814D01*
X111220500Y-70032686D01*
X111127314Y-69939500D01*
X111070250Y-69906554D01*
X111013187Y-69873608D01*
X110949539Y-69856554D01*
X110885892Y-69839500D01*
X110754108Y-69839500D01*
X110626812Y-69873608D01*
X110512686Y-69939500D01*
X110512683Y-69939502D01*
X110419502Y-70032683D01*
X110419500Y-70032686D01*
X110353608Y-70146812D01*
X110319500Y-70274108D01*
X85220000Y-70274108D01*
X85220000Y-68774108D01*
X85919500Y-68774108D01*
X85919500Y-68905891D01*
X85953608Y-69033187D01*
X85986554Y-69090250D01*
X86019500Y-69147314D01*
X86112686Y-69240500D01*
X86226814Y-69306392D01*
X86354108Y-69340500D01*
X86354110Y-69340500D01*
X86485890Y-69340500D01*
X86485892Y-69340500D01*
X86613186Y-69306392D01*
X86727314Y-69240500D01*
X86820500Y-69147314D01*
X86886392Y-69033186D01*
X86920500Y-68905892D01*
X86920500Y-68774108D01*
X86886392Y-68646814D01*
X86820500Y-68532686D01*
X86727314Y-68439500D01*
X86670250Y-68406554D01*
X86613187Y-68373608D01*
X86549539Y-68356554D01*
X86485892Y-68339500D01*
X86354108Y-68339500D01*
X86226812Y-68373608D01*
X86112686Y-68439500D01*
X86112683Y-68439502D01*
X86019502Y-68532683D01*
X86019500Y-68532686D01*
X85953608Y-68646812D01*
X85919500Y-68774108D01*
X85220000Y-68774108D01*
X85220000Y-67805691D01*
X98781328Y-67805691D01*
X98781328Y-67924309D01*
X98812029Y-68038886D01*
X98871339Y-68141613D01*
X98955215Y-68225489D01*
X99057942Y-68284799D01*
X99172519Y-68315500D01*
X99172522Y-68315500D01*
X99291134Y-68315500D01*
X99291137Y-68315500D01*
X99405714Y-68284799D01*
X99508441Y-68225489D01*
X99592317Y-68141613D01*
X99651627Y-68038886D01*
X99677088Y-67943863D01*
X105119500Y-67943863D01*
X105119500Y-68062481D01*
X105150201Y-68177058D01*
X105209511Y-68279785D01*
X105293387Y-68363661D01*
X105396114Y-68422971D01*
X105510691Y-68453672D01*
X105510694Y-68453672D01*
X105629306Y-68453672D01*
X105629309Y-68453672D01*
X105743886Y-68422971D01*
X105846613Y-68363661D01*
X105930489Y-68279785D01*
X105989799Y-68177058D01*
X106020500Y-68062481D01*
X106020500Y-67943863D01*
X105989799Y-67829286D01*
X105930489Y-67726559D01*
X105846613Y-67642683D01*
X105743886Y-67583373D01*
X105629309Y-67552672D01*
X105510691Y-67552672D01*
X105396114Y-67583373D01*
X105396112Y-67583373D01*
X105396112Y-67583374D01*
X105293387Y-67642683D01*
X105293384Y-67642685D01*
X105209513Y-67726556D01*
X105209511Y-67726559D01*
X105163823Y-67805693D01*
X105150201Y-67829286D01*
X105119500Y-67943863D01*
X99677088Y-67943863D01*
X99682328Y-67924309D01*
X99682328Y-67805691D01*
X99651627Y-67691114D01*
X99592317Y-67588387D01*
X99508441Y-67504511D01*
X99405714Y-67445201D01*
X99291137Y-67414500D01*
X99172519Y-67414500D01*
X99057942Y-67445201D01*
X99057940Y-67445201D01*
X99057940Y-67445202D01*
X98955215Y-67504511D01*
X98955212Y-67504513D01*
X98871341Y-67588384D01*
X98871339Y-67588387D01*
X98812029Y-67691114D01*
X98781328Y-67805691D01*
X85220000Y-67805691D01*
X85220000Y-66654691D01*
X91233103Y-66654691D01*
X91233103Y-66773309D01*
X91263804Y-66887886D01*
X91323114Y-66990613D01*
X91406990Y-67074489D01*
X91509717Y-67133799D01*
X91624294Y-67164500D01*
X91624297Y-67164500D01*
X91742909Y-67164500D01*
X91742912Y-67164500D01*
X91857489Y-67133799D01*
X91960216Y-67074489D01*
X92044092Y-66990613D01*
X92103402Y-66887886D01*
X92134103Y-66773309D01*
X92134103Y-66654691D01*
X92131079Y-66643405D01*
X92132742Y-66573558D01*
X92171904Y-66515695D01*
X92218761Y-66491539D01*
X92236708Y-66486731D01*
X92339435Y-66427421D01*
X92423311Y-66343545D01*
X92482621Y-66240818D01*
X92513322Y-66126241D01*
X92513322Y-66007623D01*
X92482621Y-65893046D01*
X92423311Y-65790319D01*
X92339435Y-65706443D01*
X92236708Y-65647133D01*
X92122131Y-65616432D01*
X92003513Y-65616432D01*
X91888936Y-65647133D01*
X91888934Y-65647133D01*
X91888934Y-65647134D01*
X91786209Y-65706443D01*
X91786206Y-65706445D01*
X91702335Y-65790316D01*
X91702333Y-65790319D01*
X91682025Y-65825494D01*
X91643023Y-65893046D01*
X91612322Y-66007623D01*
X91612322Y-66007625D01*
X91612322Y-66126240D01*
X91615346Y-66137527D01*
X91613681Y-66207377D01*
X91574516Y-66265238D01*
X91527667Y-66289391D01*
X91509716Y-66294201D01*
X91406990Y-66353511D01*
X91406987Y-66353513D01*
X91323116Y-66437384D01*
X91323114Y-66437387D01*
X91276900Y-66517432D01*
X91263804Y-66540114D01*
X91233103Y-66654691D01*
X85220000Y-66654691D01*
X85220000Y-65489570D01*
X96519550Y-65489570D01*
X96519550Y-65608188D01*
X96550251Y-65722765D01*
X96609561Y-65825492D01*
X96693437Y-65909368D01*
X96796164Y-65968678D01*
X96910741Y-65999379D01*
X96910744Y-65999379D01*
X97029356Y-65999379D01*
X97029359Y-65999379D01*
X97143936Y-65968678D01*
X97246663Y-65909368D01*
X97261783Y-65894247D01*
X97323103Y-65860762D01*
X97392795Y-65865745D01*
X97437145Y-65894247D01*
X97443387Y-65900489D01*
X97546114Y-65959799D01*
X97660691Y-65990500D01*
X97660694Y-65990500D01*
X97779306Y-65990500D01*
X97779309Y-65990500D01*
X97893886Y-65959799D01*
X97996613Y-65900489D01*
X98080489Y-65816613D01*
X98139799Y-65713886D01*
X98170500Y-65599309D01*
X98170500Y-65480691D01*
X98147638Y-65395371D01*
X100257489Y-65395371D01*
X100257489Y-65513989D01*
X100288190Y-65628566D01*
X100347500Y-65731293D01*
X100431376Y-65815169D01*
X100534103Y-65874479D01*
X100648680Y-65905180D01*
X100648683Y-65905180D01*
X100767295Y-65905180D01*
X100767298Y-65905180D01*
X100881875Y-65874479D01*
X100984602Y-65815169D01*
X101068478Y-65731293D01*
X101127788Y-65628566D01*
X101158489Y-65513989D01*
X101158489Y-65395371D01*
X101133481Y-65302042D01*
X102269499Y-65302042D01*
X102269499Y-65420660D01*
X102300200Y-65535237D01*
X102359510Y-65637964D01*
X102443386Y-65721840D01*
X102546113Y-65781150D01*
X102660690Y-65811851D01*
X102660693Y-65811851D01*
X102779306Y-65811851D01*
X102779308Y-65811851D01*
X102839945Y-65795603D01*
X102909793Y-65797264D01*
X102967656Y-65836426D01*
X102991812Y-65883282D01*
X103006711Y-65938884D01*
X103006711Y-65938885D01*
X103024489Y-65969676D01*
X103066022Y-66041613D01*
X103149898Y-66125489D01*
X103252625Y-66184799D01*
X103367202Y-66215500D01*
X103367205Y-66215500D01*
X103485817Y-66215500D01*
X103485820Y-66215500D01*
X103600397Y-66184799D01*
X103703124Y-66125489D01*
X103787000Y-66041613D01*
X103802178Y-66015323D01*
X103852743Y-65967110D01*
X103921350Y-65953886D01*
X103963297Y-65967296D01*
X103963600Y-65966566D01*
X103971109Y-65969676D01*
X103971111Y-65969676D01*
X103971114Y-65969678D01*
X104085691Y-66000379D01*
X104085694Y-66000379D01*
X104204306Y-66000379D01*
X104204309Y-66000379D01*
X104318886Y-65969678D01*
X104421613Y-65910368D01*
X104505489Y-65826492D01*
X104564799Y-65723765D01*
X104595500Y-65609188D01*
X104595500Y-65490570D01*
X104564799Y-65375993D01*
X104505489Y-65273266D01*
X104421613Y-65189390D01*
X104318886Y-65130080D01*
X104204309Y-65099379D01*
X104085691Y-65099379D01*
X103971114Y-65130080D01*
X103971112Y-65130080D01*
X103971112Y-65130081D01*
X103868387Y-65189390D01*
X103868384Y-65189392D01*
X103784513Y-65273263D01*
X103784507Y-65273272D01*
X103769331Y-65299556D01*
X103718763Y-65347770D01*
X103650156Y-65360991D01*
X103608213Y-65347582D01*
X103607911Y-65348313D01*
X103600401Y-65345202D01*
X103591005Y-65342684D01*
X103485820Y-65314500D01*
X103367202Y-65314500D01*
X103306564Y-65330748D01*
X103236714Y-65329085D01*
X103178852Y-65289922D01*
X103154697Y-65243069D01*
X103139798Y-65187465D01*
X103080488Y-65084738D01*
X102996612Y-65000862D01*
X102893885Y-64941552D01*
X102779308Y-64910851D01*
X102660690Y-64910851D01*
X102546113Y-64941552D01*
X102546111Y-64941552D01*
X102546111Y-64941553D01*
X102443386Y-65000862D01*
X102443383Y-65000864D01*
X102359512Y-65084735D01*
X102359510Y-65084738D01*
X102304791Y-65179514D01*
X102300200Y-65187465D01*
X102269499Y-65302042D01*
X101133481Y-65302042D01*
X101127788Y-65280794D01*
X101068478Y-65178067D01*
X100984602Y-65094191D01*
X100881875Y-65034881D01*
X100767298Y-65004180D01*
X100648680Y-65004180D01*
X100534103Y-65034881D01*
X100534101Y-65034881D01*
X100534101Y-65034882D01*
X100431376Y-65094191D01*
X100431373Y-65094193D01*
X100347502Y-65178064D01*
X100347500Y-65178067D01*
X100288190Y-65280794D01*
X100257489Y-65395371D01*
X98147638Y-65395371D01*
X98139799Y-65366114D01*
X98080489Y-65263387D01*
X97996613Y-65179511D01*
X97893886Y-65120201D01*
X97779309Y-65089500D01*
X97660691Y-65089500D01*
X97546114Y-65120201D01*
X97546112Y-65120201D01*
X97546112Y-65120202D01*
X97443387Y-65179511D01*
X97443383Y-65179514D01*
X97428264Y-65194633D01*
X97366940Y-65228117D01*
X97297249Y-65223131D01*
X97252904Y-65194631D01*
X97246665Y-65188392D01*
X97246663Y-65188390D01*
X97143936Y-65129080D01*
X97029359Y-65098379D01*
X96910741Y-65098379D01*
X96796164Y-65129080D01*
X96796162Y-65129080D01*
X96796162Y-65129081D01*
X96693437Y-65188390D01*
X96693434Y-65188392D01*
X96609563Y-65272263D01*
X96609561Y-65272266D01*
X96567452Y-65345201D01*
X96550251Y-65374993D01*
X96519550Y-65489570D01*
X85220000Y-65489570D01*
X85220000Y-63249332D01*
X94162068Y-63249332D01*
X94162068Y-63367950D01*
X94192769Y-63482527D01*
X94252079Y-63585254D01*
X94335955Y-63669130D01*
X94438682Y-63728440D01*
X94553259Y-63759141D01*
X94553262Y-63759141D01*
X94671874Y-63759141D01*
X94671877Y-63759141D01*
X94786454Y-63728440D01*
X94889181Y-63669130D01*
X94973057Y-63585254D01*
X95032367Y-63482527D01*
X95063068Y-63367950D01*
X95063068Y-63249332D01*
X95032367Y-63134755D01*
X94973057Y-63032028D01*
X94889181Y-62948152D01*
X94786454Y-62888842D01*
X94731466Y-62874108D01*
X95319500Y-62874108D01*
X95319500Y-63005892D01*
X95326502Y-63032025D01*
X95353608Y-63133187D01*
X95386554Y-63190250D01*
X95419500Y-63247314D01*
X95512686Y-63340500D01*
X95626814Y-63406392D01*
X95754108Y-63440500D01*
X95754110Y-63440500D01*
X95885890Y-63440500D01*
X95885892Y-63440500D01*
X96013186Y-63406392D01*
X96127314Y-63340500D01*
X96220500Y-63247314D01*
X96286392Y-63133186D01*
X96320500Y-63005892D01*
X96320500Y-62874108D01*
X96293705Y-62774108D01*
X100219500Y-62774108D01*
X100219500Y-62905892D01*
X100230824Y-62948154D01*
X100253608Y-63033187D01*
X100276551Y-63072924D01*
X100319500Y-63147314D01*
X100412686Y-63240500D01*
X100526814Y-63306392D01*
X100654108Y-63340500D01*
X100654110Y-63340500D01*
X100785890Y-63340500D01*
X100785892Y-63340500D01*
X100913186Y-63306392D01*
X101027314Y-63240500D01*
X101120500Y-63147314D01*
X101186392Y-63033186D01*
X101211724Y-62938644D01*
X101226216Y-62914868D01*
X101237785Y-62889536D01*
X101244150Y-62885445D01*
X101248088Y-62878985D01*
X101273137Y-62866816D01*
X101296563Y-62851762D01*
X101307309Y-62850216D01*
X101310934Y-62848456D01*
X101331498Y-62846739D01*
X101399113Y-62846739D01*
X101466152Y-62866424D01*
X101511907Y-62919228D01*
X101521851Y-62988386D01*
X101518888Y-63002830D01*
X101510142Y-63035472D01*
X101510142Y-63154090D01*
X101540843Y-63268667D01*
X101600153Y-63371394D01*
X101684029Y-63455270D01*
X101786756Y-63514580D01*
X101901333Y-63545281D01*
X101901336Y-63545281D01*
X102019948Y-63545281D01*
X102019951Y-63545281D01*
X102134528Y-63514580D01*
X102237255Y-63455270D01*
X102321131Y-63371394D01*
X102380441Y-63268667D01*
X102390022Y-63232910D01*
X102426386Y-63173251D01*
X102489233Y-63142722D01*
X102527367Y-63144542D01*
X102527635Y-63142509D01*
X102535689Y-63143569D01*
X102535691Y-63143570D01*
X102535693Y-63143570D01*
X102654306Y-63143570D01*
X102654309Y-63143570D01*
X102768886Y-63112869D01*
X102871613Y-63053559D01*
X102955489Y-62969683D01*
X103010670Y-62874108D01*
X105919500Y-62874108D01*
X105919500Y-63005892D01*
X105926502Y-63032025D01*
X105953608Y-63133187D01*
X105986554Y-63190250D01*
X106019500Y-63247314D01*
X106112686Y-63340500D01*
X106226814Y-63406392D01*
X106354108Y-63440500D01*
X106354110Y-63440500D01*
X106485890Y-63440500D01*
X106485892Y-63440500D01*
X106613186Y-63406392D01*
X106669110Y-63374104D01*
X107362913Y-63374104D01*
X107362913Y-63492722D01*
X107393614Y-63607299D01*
X107452924Y-63710026D01*
X107536800Y-63793902D01*
X107639527Y-63853212D01*
X107754104Y-63883913D01*
X107754107Y-63883913D01*
X107872719Y-63883913D01*
X107872722Y-63883913D01*
X107987299Y-63853212D01*
X108090026Y-63793902D01*
X108173902Y-63710026D01*
X108233212Y-63607299D01*
X108263913Y-63492722D01*
X108263913Y-63374104D01*
X108233212Y-63259527D01*
X108173902Y-63156800D01*
X108090026Y-63072924D01*
X107987299Y-63013614D01*
X107872722Y-62982913D01*
X107754104Y-62982913D01*
X107639527Y-63013614D01*
X107639525Y-63013614D01*
X107639525Y-63013615D01*
X107536800Y-63072924D01*
X107536797Y-63072926D01*
X107452926Y-63156797D01*
X107452924Y-63156800D01*
X107447547Y-63166114D01*
X107393614Y-63259527D01*
X107362913Y-63374104D01*
X106669110Y-63374104D01*
X106727314Y-63340500D01*
X106820500Y-63247314D01*
X106886392Y-63133186D01*
X106920500Y-63005892D01*
X106920500Y-62874108D01*
X106886392Y-62746814D01*
X106820500Y-62632686D01*
X106727314Y-62539500D01*
X106657949Y-62499452D01*
X106613187Y-62473608D01*
X106549539Y-62456554D01*
X106485892Y-62439500D01*
X106354108Y-62439500D01*
X106226812Y-62473608D01*
X106112686Y-62539500D01*
X106112683Y-62539502D01*
X106019502Y-62632683D01*
X106019500Y-62632686D01*
X105953608Y-62746812D01*
X105923778Y-62858141D01*
X105919500Y-62874108D01*
X103010670Y-62874108D01*
X103014799Y-62866956D01*
X103045500Y-62752379D01*
X103045500Y-62633761D01*
X103014799Y-62519184D01*
X102955489Y-62416457D01*
X102871613Y-62332581D01*
X102770336Y-62274108D01*
X108819500Y-62274108D01*
X108819500Y-62405891D01*
X108853608Y-62533187D01*
X108866168Y-62554941D01*
X108919500Y-62647314D01*
X109012686Y-62740500D01*
X109070897Y-62774108D01*
X109107124Y-62795024D01*
X109155340Y-62845591D01*
X109168562Y-62914198D01*
X109142594Y-62979063D01*
X109132806Y-62990092D01*
X109059511Y-63063387D01*
X109013707Y-63142722D01*
X109000201Y-63166114D01*
X108969500Y-63280691D01*
X108969500Y-63399309D01*
X109000201Y-63513886D01*
X109059511Y-63616613D01*
X109143387Y-63700489D01*
X109246114Y-63759799D01*
X109360691Y-63790500D01*
X109360694Y-63790500D01*
X109479306Y-63790500D01*
X109479309Y-63790500D01*
X109593886Y-63759799D01*
X109696613Y-63700489D01*
X109780489Y-63616613D01*
X109839799Y-63513886D01*
X109870500Y-63399309D01*
X109870500Y-63280691D01*
X109839799Y-63166114D01*
X109780489Y-63063387D01*
X109696613Y-62979511D01*
X109640036Y-62946845D01*
X109591822Y-62896280D01*
X109578600Y-62827672D01*
X109604568Y-62762808D01*
X109626555Y-62741081D01*
X109627302Y-62740506D01*
X109627314Y-62740500D01*
X109720500Y-62647314D01*
X109786392Y-62533186D01*
X109820500Y-62405892D01*
X109820500Y-62274108D01*
X109786392Y-62146814D01*
X109720500Y-62032686D01*
X109627314Y-61939500D01*
X109561032Y-61901232D01*
X109513187Y-61873608D01*
X109449539Y-61856554D01*
X109385892Y-61839500D01*
X109254108Y-61839500D01*
X109126812Y-61873608D01*
X109012686Y-61939500D01*
X109012683Y-61939502D01*
X108919502Y-62032683D01*
X108919500Y-62032686D01*
X108853608Y-62146812D01*
X108819500Y-62274108D01*
X102770336Y-62274108D01*
X102768886Y-62273271D01*
X102654309Y-62242570D01*
X102535691Y-62242570D01*
X102421114Y-62273271D01*
X102421112Y-62273271D01*
X102421112Y-62273272D01*
X102318387Y-62332581D01*
X102318384Y-62332583D01*
X102234513Y-62416454D01*
X102234511Y-62416457D01*
X102175200Y-62519184D01*
X102165619Y-62554941D01*
X102129253Y-62614601D01*
X102066405Y-62645129D01*
X102042624Y-62646803D01*
X102027939Y-62646421D01*
X102019951Y-62644281D01*
X101945566Y-62644281D01*
X101943950Y-62644239D01*
X101912155Y-62633999D01*
X101880132Y-62624596D01*
X101879037Y-62623333D01*
X101877444Y-62622820D01*
X101856225Y-62597006D01*
X101834377Y-62571792D01*
X101834139Y-62570137D01*
X101833077Y-62568845D01*
X101829185Y-62535686D01*
X101824433Y-62502634D01*
X101824988Y-62499925D01*
X101824933Y-62499452D01*
X101825196Y-62498913D01*
X101827396Y-62488188D01*
X101836142Y-62455548D01*
X101836142Y-62336930D01*
X101805441Y-62222353D01*
X101746131Y-62119626D01*
X101662255Y-62035750D01*
X101559528Y-61976440D01*
X101444951Y-61945739D01*
X101326333Y-61945739D01*
X101211756Y-61976440D01*
X101211754Y-61976440D01*
X101211754Y-61976441D01*
X101109029Y-62035750D01*
X101109026Y-62035752D01*
X101025155Y-62119623D01*
X101025153Y-62119626D01*
X100965842Y-62222353D01*
X100956594Y-62256868D01*
X100920228Y-62316528D01*
X100857381Y-62347056D01*
X100804728Y-62344547D01*
X100785892Y-62339500D01*
X100654108Y-62339500D01*
X100526812Y-62373608D01*
X100412686Y-62439500D01*
X100412683Y-62439502D01*
X100319502Y-62532683D01*
X100319500Y-62532686D01*
X100253608Y-62646812D01*
X100253473Y-62647316D01*
X100219500Y-62774108D01*
X96293705Y-62774108D01*
X96286392Y-62746814D01*
X96220500Y-62632686D01*
X96127314Y-62539500D01*
X96057949Y-62499452D01*
X96013187Y-62473608D01*
X95949539Y-62456554D01*
X95885892Y-62439500D01*
X95754108Y-62439500D01*
X95626812Y-62473608D01*
X95512686Y-62539500D01*
X95512683Y-62539502D01*
X95419502Y-62632683D01*
X95419500Y-62632686D01*
X95353608Y-62746812D01*
X95323778Y-62858141D01*
X95319500Y-62874108D01*
X94731466Y-62874108D01*
X94671877Y-62858141D01*
X94553259Y-62858141D01*
X94438682Y-62888842D01*
X94438680Y-62888842D01*
X94438680Y-62888843D01*
X94335955Y-62948152D01*
X94335952Y-62948154D01*
X94252081Y-63032025D01*
X94252079Y-63032028D01*
X94192769Y-63134755D01*
X94162068Y-63249332D01*
X85220000Y-63249332D01*
X85220000Y-61565311D01*
X105854120Y-61565311D01*
X105854120Y-61683929D01*
X105884821Y-61798506D01*
X105944131Y-61901233D01*
X106028007Y-61985109D01*
X106130734Y-62044419D01*
X106245311Y-62075120D01*
X106245314Y-62075120D01*
X106363926Y-62075120D01*
X106363929Y-62075120D01*
X106478506Y-62044419D01*
X106581233Y-61985109D01*
X106665109Y-61901233D01*
X106724419Y-61798506D01*
X106755120Y-61683929D01*
X106755120Y-61565311D01*
X106724419Y-61450734D01*
X106665109Y-61348007D01*
X106581233Y-61264131D01*
X106478506Y-61204821D01*
X106363929Y-61174120D01*
X106245311Y-61174120D01*
X106130734Y-61204821D01*
X106130732Y-61204821D01*
X106130732Y-61204822D01*
X106028007Y-61264131D01*
X106028004Y-61264133D01*
X105944133Y-61348004D01*
X105944131Y-61348007D01*
X105884821Y-61450734D01*
X105854120Y-61565311D01*
X85220000Y-61565311D01*
X85220000Y-60274108D01*
X87219500Y-60274108D01*
X87219500Y-60405891D01*
X87253608Y-60533187D01*
X87286554Y-60590250D01*
X87319500Y-60647314D01*
X87412686Y-60740500D01*
X87526814Y-60806392D01*
X87654108Y-60840500D01*
X87654110Y-60840500D01*
X87785890Y-60840500D01*
X87785892Y-60840500D01*
X87913186Y-60806392D01*
X88027314Y-60740500D01*
X88120500Y-60647314D01*
X88186392Y-60533186D01*
X88220500Y-60405892D01*
X88220500Y-60274108D01*
X88186392Y-60146814D01*
X88120500Y-60032686D01*
X88027314Y-59939500D01*
X87970250Y-59906554D01*
X87913187Y-59873608D01*
X87849539Y-59856554D01*
X87785892Y-59839500D01*
X87654108Y-59839500D01*
X87526812Y-59873608D01*
X87412686Y-59939500D01*
X87412683Y-59939502D01*
X87319502Y-60032683D01*
X87319500Y-60032686D01*
X87253608Y-60146812D01*
X87219500Y-60274108D01*
X85220000Y-60274108D01*
X85220000Y-58674108D01*
X89919500Y-58674108D01*
X89919500Y-58805892D01*
X89928505Y-58839500D01*
X89953608Y-58933187D01*
X89986554Y-58990250D01*
X90019500Y-59047314D01*
X90112686Y-59140500D01*
X90211521Y-59197563D01*
X90225944Y-59205890D01*
X90226814Y-59206392D01*
X90354108Y-59240500D01*
X90354110Y-59240500D01*
X90485890Y-59240500D01*
X90485892Y-59240500D01*
X90613186Y-59206392D01*
X90727314Y-59140500D01*
X90820500Y-59047314D01*
X90886392Y-58933186D01*
X90920500Y-58805892D01*
X90920500Y-58674108D01*
X90886392Y-58546814D01*
X90820500Y-58432686D01*
X90727314Y-58339500D01*
X90710324Y-58329691D01*
X101569500Y-58329691D01*
X101569500Y-58448309D01*
X101600201Y-58562886D01*
X101659511Y-58665613D01*
X101743387Y-58749489D01*
X101846114Y-58808799D01*
X101960691Y-58839500D01*
X101960694Y-58839500D01*
X102079306Y-58839500D01*
X102079309Y-58839500D01*
X102193886Y-58808799D01*
X102296613Y-58749489D01*
X102307321Y-58738780D01*
X102368639Y-58705297D01*
X102438331Y-58710279D01*
X102482682Y-58738781D01*
X102493390Y-58749489D01*
X102596117Y-58808799D01*
X102710694Y-58839500D01*
X102710697Y-58839500D01*
X102829309Y-58839500D01*
X102829312Y-58839500D01*
X102943889Y-58808799D01*
X103046616Y-58749489D01*
X103064650Y-58731455D01*
X104320264Y-58731455D01*
X104320264Y-58850073D01*
X104350965Y-58964650D01*
X104410275Y-59067377D01*
X104494151Y-59151253D01*
X104596878Y-59210563D01*
X104711455Y-59241264D01*
X104711458Y-59241264D01*
X104830070Y-59241264D01*
X104830073Y-59241264D01*
X104944650Y-59210563D01*
X105047377Y-59151253D01*
X105124522Y-59074108D01*
X105619500Y-59074108D01*
X105619500Y-59205891D01*
X105653608Y-59333187D01*
X105686554Y-59390250D01*
X105719500Y-59447314D01*
X105812686Y-59540500D01*
X105926814Y-59606392D01*
X106054108Y-59640500D01*
X106054110Y-59640500D01*
X106185890Y-59640500D01*
X106185892Y-59640500D01*
X106313186Y-59606392D01*
X106427314Y-59540500D01*
X106520500Y-59447314D01*
X106586392Y-59333186D01*
X106620500Y-59205892D01*
X106620500Y-59074108D01*
X106586392Y-58946814D01*
X106520500Y-58832686D01*
X106427314Y-58739500D01*
X106368073Y-58705297D01*
X106313187Y-58673608D01*
X106249539Y-58656554D01*
X106185892Y-58639500D01*
X106054108Y-58639500D01*
X105926812Y-58673608D01*
X105812686Y-58739500D01*
X105812683Y-58739502D01*
X105719502Y-58832683D01*
X105719500Y-58832686D01*
X105653608Y-58946812D01*
X105619500Y-59074108D01*
X105124522Y-59074108D01*
X105131253Y-59067377D01*
X105190563Y-58964650D01*
X105221264Y-58850073D01*
X105221264Y-58731455D01*
X105190563Y-58616878D01*
X105131253Y-58514151D01*
X105047377Y-58430275D01*
X104944650Y-58370965D01*
X104830073Y-58340264D01*
X104711455Y-58340264D01*
X104596878Y-58370965D01*
X104596876Y-58370965D01*
X104596876Y-58370966D01*
X104494151Y-58430275D01*
X104494148Y-58430277D01*
X104410277Y-58514148D01*
X104410275Y-58514151D01*
X104350965Y-58616878D01*
X104320264Y-58731455D01*
X103064650Y-58731455D01*
X103130492Y-58665613D01*
X103189802Y-58562886D01*
X103220503Y-58448309D01*
X103220503Y-58329691D01*
X103189802Y-58215114D01*
X103130492Y-58112387D01*
X103046616Y-58028511D01*
X102943889Y-57969201D01*
X102829312Y-57938500D01*
X102710694Y-57938500D01*
X102596117Y-57969201D01*
X102596115Y-57969201D01*
X102596115Y-57969202D01*
X102493390Y-58028511D01*
X102493389Y-58028511D01*
X102482680Y-58039221D01*
X102421355Y-58072704D01*
X102351664Y-58067717D01*
X102307320Y-58039218D01*
X102296615Y-58028513D01*
X102296613Y-58028511D01*
X102193886Y-57969201D01*
X102079309Y-57938500D01*
X101960691Y-57938500D01*
X101846114Y-57969201D01*
X101846112Y-57969201D01*
X101846112Y-57969202D01*
X101743387Y-58028511D01*
X101743384Y-58028513D01*
X101659513Y-58112384D01*
X101659511Y-58112387D01*
X101654496Y-58121074D01*
X101600201Y-58215114D01*
X101569500Y-58329691D01*
X90710324Y-58329691D01*
X90670250Y-58306554D01*
X90613187Y-58273608D01*
X90549539Y-58256554D01*
X90485892Y-58239500D01*
X90354108Y-58239500D01*
X90226812Y-58273608D01*
X90112686Y-58339500D01*
X90112683Y-58339502D01*
X90019502Y-58432683D01*
X90019500Y-58432686D01*
X89953608Y-58546812D01*
X89922925Y-58661327D01*
X89919500Y-58674108D01*
X85220000Y-58674108D01*
X85220000Y-56930691D01*
X89169500Y-56930691D01*
X89169500Y-57049309D01*
X89200201Y-57163886D01*
X89259511Y-57266613D01*
X89343387Y-57350489D01*
X89446114Y-57409799D01*
X89560691Y-57440500D01*
X89560694Y-57440500D01*
X89679306Y-57440500D01*
X89679309Y-57440500D01*
X89793886Y-57409799D01*
X89896613Y-57350489D01*
X89980489Y-57266613D01*
X90039799Y-57163886D01*
X90070500Y-57049309D01*
X90070500Y-56930691D01*
X90769500Y-56930691D01*
X90769500Y-57049309D01*
X90800201Y-57163886D01*
X90859511Y-57266613D01*
X90943387Y-57350489D01*
X91046114Y-57409799D01*
X91160691Y-57440500D01*
X91160694Y-57440500D01*
X91279306Y-57440500D01*
X91279309Y-57440500D01*
X91393886Y-57409799D01*
X91496613Y-57350489D01*
X91580489Y-57266613D01*
X91639799Y-57163886D01*
X91670500Y-57049309D01*
X91670500Y-56930691D01*
X92369500Y-56930691D01*
X92369500Y-57049309D01*
X92400201Y-57163886D01*
X92459511Y-57266613D01*
X92543387Y-57350489D01*
X92646114Y-57409799D01*
X92760691Y-57440500D01*
X92760694Y-57440500D01*
X92879306Y-57440500D01*
X92879309Y-57440500D01*
X92993886Y-57409799D01*
X93096613Y-57350489D01*
X93180489Y-57266613D01*
X93239799Y-57163886D01*
X93270500Y-57049309D01*
X93270500Y-56930691D01*
X93969500Y-56930691D01*
X93969500Y-57049309D01*
X94000201Y-57163886D01*
X94059511Y-57266613D01*
X94143387Y-57350489D01*
X94246114Y-57409799D01*
X94360691Y-57440500D01*
X94360694Y-57440500D01*
X94479306Y-57440500D01*
X94479309Y-57440500D01*
X94593886Y-57409799D01*
X94696613Y-57350489D01*
X94780489Y-57266613D01*
X94839799Y-57163886D01*
X94870500Y-57049309D01*
X94870500Y-56930691D01*
X95569500Y-56930691D01*
X95569500Y-57049309D01*
X95600201Y-57163886D01*
X95659511Y-57266613D01*
X95743387Y-57350489D01*
X95846114Y-57409799D01*
X95960691Y-57440500D01*
X95960694Y-57440500D01*
X96079306Y-57440500D01*
X96079309Y-57440500D01*
X96193886Y-57409799D01*
X96296613Y-57350489D01*
X96380489Y-57266613D01*
X96439799Y-57163886D01*
X96470500Y-57049309D01*
X96470500Y-56930691D01*
X97169500Y-56930691D01*
X97169500Y-57049309D01*
X97200201Y-57163886D01*
X97259511Y-57266613D01*
X97343387Y-57350489D01*
X97446114Y-57409799D01*
X97560691Y-57440500D01*
X97560694Y-57440500D01*
X97679306Y-57440500D01*
X97679309Y-57440500D01*
X97793886Y-57409799D01*
X97896613Y-57350489D01*
X97980489Y-57266613D01*
X98039799Y-57163886D01*
X98070500Y-57049309D01*
X98070500Y-56930691D01*
X101969500Y-56930691D01*
X101969500Y-57049309D01*
X102000201Y-57163886D01*
X102059511Y-57266613D01*
X102143387Y-57350489D01*
X102246114Y-57409799D01*
X102360691Y-57440500D01*
X102360694Y-57440500D01*
X102479306Y-57440500D01*
X102479309Y-57440500D01*
X102593886Y-57409799D01*
X102696613Y-57350489D01*
X102780489Y-57266613D01*
X102839799Y-57163886D01*
X102870500Y-57049309D01*
X102870500Y-56930691D01*
X103569500Y-56930691D01*
X103569500Y-57049309D01*
X103600201Y-57163886D01*
X103659511Y-57266613D01*
X103743387Y-57350489D01*
X103846114Y-57409799D01*
X103960691Y-57440500D01*
X103960694Y-57440500D01*
X104079306Y-57440500D01*
X104079309Y-57440500D01*
X104193886Y-57409799D01*
X104296613Y-57350489D01*
X104380489Y-57266613D01*
X104439799Y-57163886D01*
X104470500Y-57049309D01*
X104470500Y-56930691D01*
X105169500Y-56930691D01*
X105169500Y-57049309D01*
X105200201Y-57163886D01*
X105259511Y-57266613D01*
X105343387Y-57350489D01*
X105444490Y-57408861D01*
X105492706Y-57459428D01*
X105505929Y-57528035D01*
X105479960Y-57592900D01*
X105470172Y-57603929D01*
X105403526Y-57670575D01*
X105344216Y-57773302D01*
X105313515Y-57887879D01*
X105313515Y-58006497D01*
X105344216Y-58121074D01*
X105403526Y-58223801D01*
X105487402Y-58307677D01*
X105590129Y-58366987D01*
X105704706Y-58397688D01*
X105704709Y-58397688D01*
X105823321Y-58397688D01*
X105823324Y-58397688D01*
X105937901Y-58366987D01*
X106040628Y-58307677D01*
X106124504Y-58223801D01*
X106183814Y-58121074D01*
X106214515Y-58006497D01*
X106214515Y-57887879D01*
X106183814Y-57773302D01*
X106124504Y-57670575D01*
X106040628Y-57586699D01*
X106040626Y-57586698D01*
X106040624Y-57586696D01*
X105939524Y-57528326D01*
X105891308Y-57477759D01*
X105878086Y-57409152D01*
X105904054Y-57344287D01*
X105913827Y-57333274D01*
X105980489Y-57266613D01*
X106039799Y-57163886D01*
X106070500Y-57049309D01*
X106070500Y-56930691D01*
X108369500Y-56930691D01*
X108369500Y-57049309D01*
X108400201Y-57163886D01*
X108459511Y-57266613D01*
X108543387Y-57350489D01*
X108646114Y-57409799D01*
X108760691Y-57440500D01*
X108760694Y-57440500D01*
X108879306Y-57440500D01*
X108879309Y-57440500D01*
X108993886Y-57409799D01*
X109096613Y-57350489D01*
X109180489Y-57266613D01*
X109239799Y-57163886D01*
X109270500Y-57049309D01*
X109270500Y-56930691D01*
X109239799Y-56816114D01*
X109180489Y-56713387D01*
X109096613Y-56629511D01*
X108993886Y-56570201D01*
X108879309Y-56539500D01*
X108760691Y-56539500D01*
X108646114Y-56570201D01*
X108646112Y-56570201D01*
X108646112Y-56570202D01*
X108543387Y-56629511D01*
X108543384Y-56629513D01*
X108459513Y-56713384D01*
X108459511Y-56713387D01*
X108410539Y-56798209D01*
X108400201Y-56816114D01*
X108369500Y-56930691D01*
X106070500Y-56930691D01*
X106039799Y-56816114D01*
X105980489Y-56713387D01*
X105896613Y-56629511D01*
X105793886Y-56570201D01*
X105679309Y-56539500D01*
X105560691Y-56539500D01*
X105446114Y-56570201D01*
X105446112Y-56570201D01*
X105446112Y-56570202D01*
X105343387Y-56629511D01*
X105343384Y-56629513D01*
X105259513Y-56713384D01*
X105259511Y-56713387D01*
X105210539Y-56798209D01*
X105200201Y-56816114D01*
X105169500Y-56930691D01*
X104470500Y-56930691D01*
X104439799Y-56816114D01*
X104437089Y-56811420D01*
X104433618Y-56798209D01*
X104434387Y-56771374D01*
X104431518Y-56744677D01*
X104435373Y-56736975D01*
X104435620Y-56728368D01*
X104450776Y-56706206D01*
X104462795Y-56682199D01*
X104470200Y-56677805D01*
X104475063Y-56670696D01*
X104499798Y-56660245D01*
X104522886Y-56646549D01*
X104536168Y-56644880D01*
X104539425Y-56643505D01*
X104542660Y-56644065D01*
X104553547Y-56642698D01*
X104619123Y-56642698D01*
X104619126Y-56642698D01*
X104733703Y-56611997D01*
X104836430Y-56552687D01*
X104920306Y-56468811D01*
X104979616Y-56366084D01*
X105010317Y-56251507D01*
X105010317Y-56132889D01*
X104979812Y-56019045D01*
X105896324Y-56019045D01*
X105896324Y-56137663D01*
X105927025Y-56252240D01*
X105986335Y-56354967D01*
X106070211Y-56438843D01*
X106172938Y-56498153D01*
X106287515Y-56528854D01*
X106287518Y-56528854D01*
X106406130Y-56528854D01*
X106406133Y-56528854D01*
X106520710Y-56498153D01*
X106623437Y-56438843D01*
X106707313Y-56354967D01*
X106766623Y-56252240D01*
X106797324Y-56137663D01*
X106797324Y-56019045D01*
X106766623Y-55904468D01*
X106707313Y-55801741D01*
X106623437Y-55717865D01*
X106520710Y-55658555D01*
X106406133Y-55627854D01*
X106287515Y-55627854D01*
X106172938Y-55658555D01*
X106172936Y-55658555D01*
X106172936Y-55658556D01*
X106070211Y-55717865D01*
X106070208Y-55717867D01*
X105986337Y-55801738D01*
X105986335Y-55801741D01*
X105927025Y-55904468D01*
X105896324Y-56019045D01*
X104979812Y-56019045D01*
X104979616Y-56018312D01*
X104920306Y-55915585D01*
X104836430Y-55831709D01*
X104733703Y-55772399D01*
X104619126Y-55741698D01*
X104500508Y-55741698D01*
X104385931Y-55772399D01*
X104385929Y-55772399D01*
X104385929Y-55772400D01*
X104283204Y-55831709D01*
X104283201Y-55831711D01*
X104199330Y-55915582D01*
X104199328Y-55915585D01*
X104140018Y-56018312D01*
X104109317Y-56132889D01*
X104109317Y-56251507D01*
X104109514Y-56252241D01*
X104140019Y-56366088D01*
X104140833Y-56368052D01*
X104141025Y-56369840D01*
X104142122Y-56373934D01*
X104141483Y-56374105D01*
X104148299Y-56437521D01*
X104117022Y-56499999D01*
X104056931Y-56535649D01*
X104026270Y-56539500D01*
X103960691Y-56539500D01*
X103846114Y-56570201D01*
X103846112Y-56570201D01*
X103846112Y-56570202D01*
X103743387Y-56629511D01*
X103743384Y-56629513D01*
X103659513Y-56713384D01*
X103659511Y-56713387D01*
X103610539Y-56798209D01*
X103600201Y-56816114D01*
X103569500Y-56930691D01*
X102870500Y-56930691D01*
X102839799Y-56816114D01*
X102780489Y-56713387D01*
X102696613Y-56629511D01*
X102593886Y-56570201D01*
X102479309Y-56539500D01*
X102360691Y-56539500D01*
X102246114Y-56570201D01*
X102246112Y-56570201D01*
X102246112Y-56570202D01*
X102143387Y-56629511D01*
X102143384Y-56629513D01*
X102059513Y-56713384D01*
X102059511Y-56713387D01*
X102010539Y-56798209D01*
X102000201Y-56816114D01*
X101969500Y-56930691D01*
X98070500Y-56930691D01*
X98039799Y-56816114D01*
X97980489Y-56713387D01*
X97896613Y-56629511D01*
X97793886Y-56570201D01*
X97679309Y-56539500D01*
X97560691Y-56539500D01*
X97446114Y-56570201D01*
X97446112Y-56570201D01*
X97446112Y-56570202D01*
X97343387Y-56629511D01*
X97343384Y-56629513D01*
X97259513Y-56713384D01*
X97259511Y-56713387D01*
X97210539Y-56798209D01*
X97200201Y-56816114D01*
X97169500Y-56930691D01*
X96470500Y-56930691D01*
X96439799Y-56816114D01*
X96380489Y-56713387D01*
X96296613Y-56629511D01*
X96193886Y-56570201D01*
X96079309Y-56539500D01*
X95960691Y-56539500D01*
X95846114Y-56570201D01*
X95846112Y-56570201D01*
X95846112Y-56570202D01*
X95743387Y-56629511D01*
X95743384Y-56629513D01*
X95659513Y-56713384D01*
X95659511Y-56713387D01*
X95610539Y-56798209D01*
X95600201Y-56816114D01*
X95569500Y-56930691D01*
X94870500Y-56930691D01*
X94839799Y-56816114D01*
X94780489Y-56713387D01*
X94696613Y-56629511D01*
X94593886Y-56570201D01*
X94479309Y-56539500D01*
X94360691Y-56539500D01*
X94246114Y-56570201D01*
X94246112Y-56570201D01*
X94246112Y-56570202D01*
X94143387Y-56629511D01*
X94143384Y-56629513D01*
X94059513Y-56713384D01*
X94059511Y-56713387D01*
X94010539Y-56798209D01*
X94000201Y-56816114D01*
X93969500Y-56930691D01*
X93270500Y-56930691D01*
X93239799Y-56816114D01*
X93180489Y-56713387D01*
X93096613Y-56629511D01*
X92993886Y-56570201D01*
X92879309Y-56539500D01*
X92760691Y-56539500D01*
X92646114Y-56570201D01*
X92646112Y-56570201D01*
X92646112Y-56570202D01*
X92543387Y-56629511D01*
X92543384Y-56629513D01*
X92459513Y-56713384D01*
X92459511Y-56713387D01*
X92410539Y-56798209D01*
X92400201Y-56816114D01*
X92369500Y-56930691D01*
X91670500Y-56930691D01*
X91639799Y-56816114D01*
X91580489Y-56713387D01*
X91496613Y-56629511D01*
X91393886Y-56570201D01*
X91279309Y-56539500D01*
X91160691Y-56539500D01*
X91046114Y-56570201D01*
X91046112Y-56570201D01*
X91046112Y-56570202D01*
X90943387Y-56629511D01*
X90943384Y-56629513D01*
X90859513Y-56713384D01*
X90859511Y-56713387D01*
X90810539Y-56798209D01*
X90800201Y-56816114D01*
X90769500Y-56930691D01*
X90070500Y-56930691D01*
X90039799Y-56816114D01*
X89980489Y-56713387D01*
X89896613Y-56629511D01*
X89793886Y-56570201D01*
X89679309Y-56539500D01*
X89560691Y-56539500D01*
X89446114Y-56570201D01*
X89446112Y-56570201D01*
X89446112Y-56570202D01*
X89343387Y-56629511D01*
X89343384Y-56629513D01*
X89259513Y-56713384D01*
X89259511Y-56713387D01*
X89210539Y-56798209D01*
X89200201Y-56816114D01*
X89169500Y-56930691D01*
X85220000Y-56930691D01*
X85220000Y-54350360D01*
X108499831Y-54350360D01*
X108499831Y-54468978D01*
X108530532Y-54583555D01*
X108589842Y-54686282D01*
X108673718Y-54770158D01*
X108776445Y-54829468D01*
X108891022Y-54860169D01*
X108891025Y-54860169D01*
X109009637Y-54860169D01*
X109009640Y-54860169D01*
X109124217Y-54829468D01*
X109226944Y-54770158D01*
X109310820Y-54686282D01*
X109370130Y-54583555D01*
X109400831Y-54468978D01*
X109400831Y-54350360D01*
X109370130Y-54235783D01*
X109310820Y-54133056D01*
X109226944Y-54049180D01*
X109124217Y-53989870D01*
X109009640Y-53959169D01*
X108891022Y-53959169D01*
X108776445Y-53989870D01*
X108776443Y-53989870D01*
X108776443Y-53989871D01*
X108673718Y-54049180D01*
X108673715Y-54049182D01*
X108589844Y-54133053D01*
X108589842Y-54133056D01*
X108530532Y-54235783D01*
X108499831Y-54350360D01*
X85220000Y-54350360D01*
X85220000Y-51535578D01*
X87724500Y-51535578D01*
X87724500Y-53175083D01*
X87736131Y-53233560D01*
X87736132Y-53233561D01*
X87780447Y-53299883D01*
X87846769Y-53344198D01*
X87846770Y-53344199D01*
X87905247Y-53355830D01*
X87905250Y-53355831D01*
X87905252Y-53355831D01*
X89544750Y-53355831D01*
X89544751Y-53355830D01*
X89559568Y-53352883D01*
X89603229Y-53344199D01*
X89603229Y-53344198D01*
X89603231Y-53344198D01*
X89669552Y-53299883D01*
X89713867Y-53233562D01*
X89713867Y-53233560D01*
X89713868Y-53233560D01*
X89725499Y-53175083D01*
X89725500Y-53175081D01*
X89725500Y-52453874D01*
X90494499Y-52453874D01*
X90532947Y-52647160D01*
X90532950Y-52647170D01*
X90608364Y-52829238D01*
X90608371Y-52829251D01*
X90717860Y-52993112D01*
X90717863Y-52993116D01*
X90857214Y-53132467D01*
X90857218Y-53132470D01*
X91021079Y-53241959D01*
X91021092Y-53241966D01*
X91175278Y-53305831D01*
X91203165Y-53317382D01*
X91203169Y-53317382D01*
X91203170Y-53317383D01*
X91396456Y-53355831D01*
X91396459Y-53355831D01*
X91593543Y-53355831D01*
X91723582Y-53329963D01*
X91786835Y-53317382D01*
X91968914Y-53241963D01*
X92132782Y-53132470D01*
X92272139Y-52993113D01*
X92381632Y-52829245D01*
X92457051Y-52647166D01*
X92495500Y-52453874D01*
X93264499Y-52453874D01*
X93302947Y-52647160D01*
X93302950Y-52647170D01*
X93378364Y-52829238D01*
X93378371Y-52829251D01*
X93487860Y-52993112D01*
X93487863Y-52993116D01*
X93627214Y-53132467D01*
X93627218Y-53132470D01*
X93791079Y-53241959D01*
X93791092Y-53241966D01*
X93945278Y-53305831D01*
X93973165Y-53317382D01*
X93973169Y-53317382D01*
X93973170Y-53317383D01*
X94166456Y-53355831D01*
X94166459Y-53355831D01*
X94363543Y-53355831D01*
X94493582Y-53329963D01*
X94556835Y-53317382D01*
X94738914Y-53241963D01*
X94902782Y-53132470D01*
X95042139Y-52993113D01*
X95151632Y-52829245D01*
X95227051Y-52647166D01*
X95265500Y-52453872D01*
X95265500Y-52261710D01*
X96084500Y-52261710D01*
X96084500Y-52448951D01*
X96121025Y-52632574D01*
X96121027Y-52632582D01*
X96192676Y-52805559D01*
X96192681Y-52805568D01*
X96296697Y-52961238D01*
X96296700Y-52961242D01*
X96429088Y-53093630D01*
X96429092Y-53093633D01*
X96584762Y-53197649D01*
X96584768Y-53197652D01*
X96584769Y-53197653D01*
X96757749Y-53269304D01*
X96941379Y-53305830D01*
X96941383Y-53305831D01*
X96941384Y-53305831D01*
X97128617Y-53305831D01*
X97128618Y-53305830D01*
X97312251Y-53269304D01*
X97485231Y-53197653D01*
X97640908Y-53093633D01*
X97773302Y-52961239D01*
X97877322Y-52805562D01*
X97948973Y-52632582D01*
X97985500Y-52448947D01*
X97985500Y-52261715D01*
X97985500Y-52261712D01*
X97983770Y-52253013D01*
X98505000Y-52253013D01*
X98505000Y-52457648D01*
X98537009Y-52659748D01*
X98600244Y-52854362D01*
X98693141Y-53036681D01*
X98693147Y-53036690D01*
X98725523Y-53081252D01*
X98725524Y-53081253D01*
X99322037Y-52484740D01*
X99339075Y-52548324D01*
X99404901Y-52662338D01*
X99497993Y-52755430D01*
X99612007Y-52821256D01*
X99675590Y-52838293D01*
X99079076Y-53434805D01*
X99123650Y-53467190D01*
X99305968Y-53560086D01*
X99500582Y-53623321D01*
X99702683Y-53655331D01*
X99907317Y-53655331D01*
X100109417Y-53623321D01*
X100304031Y-53560086D01*
X100486349Y-53467190D01*
X100530921Y-53434805D01*
X99934409Y-52838293D01*
X99997993Y-52821256D01*
X100112007Y-52755430D01*
X100205099Y-52662338D01*
X100270925Y-52548324D01*
X100287962Y-52484741D01*
X100884474Y-53081253D01*
X100884474Y-53081252D01*
X100916859Y-53036680D01*
X101009755Y-52854362D01*
X101072069Y-52662583D01*
X101111507Y-52604908D01*
X101175866Y-52577710D01*
X101244712Y-52589625D01*
X101296188Y-52636869D01*
X101307931Y-52662583D01*
X101370244Y-52854362D01*
X101463141Y-53036681D01*
X101463147Y-53036690D01*
X101495523Y-53081252D01*
X101495524Y-53081253D01*
X102092037Y-52484739D01*
X102109075Y-52548324D01*
X102174901Y-52662338D01*
X102267993Y-52755430D01*
X102382007Y-52821256D01*
X102445590Y-52838293D01*
X101849076Y-53434805D01*
X101893650Y-53467190D01*
X102075968Y-53560086D01*
X102270582Y-53623321D01*
X102472683Y-53655331D01*
X102677317Y-53655331D01*
X102879417Y-53623321D01*
X103074031Y-53560086D01*
X103256349Y-53467190D01*
X103300921Y-53434805D01*
X102704409Y-52838293D01*
X102767993Y-52821256D01*
X102882007Y-52755430D01*
X102975099Y-52662338D01*
X103040925Y-52548324D01*
X103057962Y-52484740D01*
X103654474Y-53081252D01*
X103686859Y-53036680D01*
X103779755Y-52854362D01*
X103842069Y-52662583D01*
X103881507Y-52604908D01*
X103945866Y-52577710D01*
X104014712Y-52589625D01*
X104066188Y-52636869D01*
X104077931Y-52662583D01*
X104140244Y-52854362D01*
X104233141Y-53036681D01*
X104233147Y-53036690D01*
X104265523Y-53081252D01*
X104265524Y-53081253D01*
X104862037Y-52484740D01*
X104879075Y-52548324D01*
X104944901Y-52662338D01*
X105037993Y-52755430D01*
X105152007Y-52821256D01*
X105215590Y-52838293D01*
X104619076Y-53434805D01*
X104663650Y-53467190D01*
X104845968Y-53560086D01*
X105040582Y-53623321D01*
X105242683Y-53655331D01*
X105447317Y-53655331D01*
X105649417Y-53623321D01*
X105844031Y-53560086D01*
X106026349Y-53467190D01*
X106070921Y-53434805D01*
X105474409Y-52838293D01*
X105537993Y-52821256D01*
X105652007Y-52755430D01*
X105745099Y-52662338D01*
X105810925Y-52548324D01*
X105827962Y-52484740D01*
X106424474Y-53081252D01*
X106456859Y-53036680D01*
X106549755Y-52854362D01*
X106612069Y-52662583D01*
X106651507Y-52604908D01*
X106715866Y-52577710D01*
X106784712Y-52589625D01*
X106836188Y-52636869D01*
X106847931Y-52662583D01*
X106910244Y-52854362D01*
X107003141Y-53036681D01*
X107003147Y-53036690D01*
X107035523Y-53081252D01*
X107035524Y-53081253D01*
X107632037Y-52484740D01*
X107649075Y-52548324D01*
X107714901Y-52662338D01*
X107807993Y-52755430D01*
X107922007Y-52821256D01*
X107985590Y-52838293D01*
X107389076Y-53434805D01*
X107433650Y-53467190D01*
X107615968Y-53560086D01*
X107810582Y-53623321D01*
X108012683Y-53655331D01*
X108217317Y-53655331D01*
X108419417Y-53623321D01*
X108614031Y-53560086D01*
X108796349Y-53467190D01*
X108840921Y-53434805D01*
X108244409Y-52838293D01*
X108307993Y-52821256D01*
X108422007Y-52755430D01*
X108515099Y-52662338D01*
X108580925Y-52548324D01*
X108597962Y-52484741D01*
X109194474Y-53081253D01*
X109194474Y-53081252D01*
X109226859Y-53036680D01*
X109319755Y-52854362D01*
X109382990Y-52659748D01*
X109415000Y-52457648D01*
X109415000Y-52253013D01*
X109382990Y-52050913D01*
X109319755Y-51856299D01*
X109226859Y-51673981D01*
X109194474Y-51629408D01*
X109194474Y-51629407D01*
X108597962Y-52225920D01*
X108580925Y-52162338D01*
X108515099Y-52048324D01*
X108422007Y-51955232D01*
X108307993Y-51889406D01*
X108244408Y-51872368D01*
X108840922Y-51275855D01*
X108840921Y-51275854D01*
X108796359Y-51243478D01*
X108796350Y-51243472D01*
X108614031Y-51150575D01*
X108419417Y-51087340D01*
X108217317Y-51055331D01*
X108072911Y-51055331D01*
X108005872Y-51035646D01*
X107960117Y-50982842D01*
X107950173Y-50913684D01*
X107965524Y-50869330D01*
X107986391Y-50833187D01*
X107986392Y-50833186D01*
X108020500Y-50705892D01*
X108020500Y-50574108D01*
X107986392Y-50446814D01*
X107920500Y-50332686D01*
X107827314Y-50239500D01*
X107713186Y-50173608D01*
X107642952Y-50154789D01*
X107583294Y-50118425D01*
X107552765Y-50055578D01*
X107561060Y-49986202D01*
X107571956Y-49966110D01*
X107572320Y-49965565D01*
X107572323Y-49965559D01*
X107643973Y-49792582D01*
X107680500Y-49608947D01*
X107680500Y-49421715D01*
X107643973Y-49238080D01*
X107572322Y-49065100D01*
X107572321Y-49065099D01*
X107572318Y-49065093D01*
X107468302Y-48909423D01*
X107468299Y-48909419D01*
X107335911Y-48777031D01*
X107335907Y-48777028D01*
X107180237Y-48673012D01*
X107180228Y-48673007D01*
X107007251Y-48601358D01*
X107007243Y-48601356D01*
X106823620Y-48564831D01*
X106823616Y-48564831D01*
X106636384Y-48564831D01*
X106636379Y-48564831D01*
X106452756Y-48601356D01*
X106452748Y-48601358D01*
X106279771Y-48673007D01*
X106279762Y-48673012D01*
X106124092Y-48777028D01*
X106124088Y-48777031D01*
X105991700Y-48909419D01*
X105991697Y-48909423D01*
X105887681Y-49065093D01*
X105887676Y-49065102D01*
X105816027Y-49238079D01*
X105816025Y-49238087D01*
X105779500Y-49421710D01*
X105779500Y-49608951D01*
X105816025Y-49792574D01*
X105816027Y-49792582D01*
X105887676Y-49965559D01*
X105887681Y-49965568D01*
X105991697Y-50121238D01*
X105991700Y-50121242D01*
X106124088Y-50253630D01*
X106124092Y-50253633D01*
X106279762Y-50357649D01*
X106279771Y-50357654D01*
X106284182Y-50359481D01*
X106452749Y-50429304D01*
X106619995Y-50462571D01*
X106636379Y-50465830D01*
X106636383Y-50465831D01*
X106636384Y-50465831D01*
X106823616Y-50465831D01*
X106871309Y-50456344D01*
X106940899Y-50462571D01*
X106996077Y-50505433D01*
X107019322Y-50571322D01*
X107019500Y-50577961D01*
X107019500Y-50705892D01*
X107028506Y-50739502D01*
X107053608Y-50833187D01*
X107074476Y-50869330D01*
X107119500Y-50947314D01*
X107212686Y-51040500D01*
X107270897Y-51074108D01*
X107331372Y-51109024D01*
X107379588Y-51159591D01*
X107392990Y-51226140D01*
X107389077Y-51275855D01*
X107985591Y-51872368D01*
X107922007Y-51889406D01*
X107807993Y-51955232D01*
X107714901Y-52048324D01*
X107649075Y-52162338D01*
X107632037Y-52225921D01*
X107035524Y-51629408D01*
X107035523Y-51629408D01*
X107003143Y-51673975D01*
X106910244Y-51856299D01*
X106847931Y-52048078D01*
X106808493Y-52105753D01*
X106744134Y-52132951D01*
X106675288Y-52121036D01*
X106623812Y-52073792D01*
X106612069Y-52048078D01*
X106549755Y-51856299D01*
X106456859Y-51673981D01*
X106424474Y-51629408D01*
X106424474Y-51629407D01*
X105827962Y-52225920D01*
X105810925Y-52162338D01*
X105745099Y-52048324D01*
X105652007Y-51955232D01*
X105537993Y-51889406D01*
X105474408Y-51872368D01*
X106070922Y-51275855D01*
X106070921Y-51275854D01*
X106026359Y-51243478D01*
X106026350Y-51243472D01*
X105844031Y-51150575D01*
X105785237Y-51131472D01*
X105727562Y-51092034D01*
X105700364Y-51027675D01*
X105703781Y-50981450D01*
X105720500Y-50919057D01*
X105720500Y-50760943D01*
X105679577Y-50608216D01*
X105665949Y-50584612D01*
X105600524Y-50471290D01*
X105600518Y-50471282D01*
X105488717Y-50359481D01*
X105488709Y-50359475D01*
X105351790Y-50280426D01*
X105351786Y-50280424D01*
X105351784Y-50280423D01*
X105199057Y-50239500D01*
X105040943Y-50239500D01*
X104918808Y-50272226D01*
X104848958Y-50270563D01*
X104791096Y-50231400D01*
X104763592Y-50167172D01*
X104775179Y-50098270D01*
X104783613Y-50083560D01*
X104846628Y-49989251D01*
X104846628Y-49989250D01*
X104846632Y-49989245D01*
X104847893Y-49986202D01*
X104922049Y-49807170D01*
X104922051Y-49807166D01*
X104960500Y-49613872D01*
X104960500Y-49416790D01*
X104960500Y-49416787D01*
X104922052Y-49223501D01*
X104922051Y-49223500D01*
X104922051Y-49223496D01*
X104856439Y-49065093D01*
X104846635Y-49041423D01*
X104846628Y-49041410D01*
X104737139Y-48877549D01*
X104737136Y-48877545D01*
X104597785Y-48738194D01*
X104597781Y-48738191D01*
X104433920Y-48628702D01*
X104433907Y-48628695D01*
X104251839Y-48553281D01*
X104251829Y-48553278D01*
X104058543Y-48514831D01*
X104058541Y-48514831D01*
X103861459Y-48514831D01*
X103861457Y-48514831D01*
X103668170Y-48553278D01*
X103668160Y-48553281D01*
X103486092Y-48628695D01*
X103486079Y-48628702D01*
X103322218Y-48738191D01*
X103322214Y-48738194D01*
X103182863Y-48877545D01*
X103182860Y-48877549D01*
X103073371Y-49041410D01*
X103073364Y-49041423D01*
X102997950Y-49223491D01*
X102997947Y-49223501D01*
X102959500Y-49416787D01*
X102959500Y-49416790D01*
X102959500Y-49613872D01*
X102959500Y-49613874D01*
X102959499Y-49613874D01*
X102997947Y-49807160D01*
X102997950Y-49807170D01*
X103073364Y-49989238D01*
X103073371Y-49989251D01*
X103182860Y-50153112D01*
X103182863Y-50153116D01*
X103322214Y-50292467D01*
X103322218Y-50292470D01*
X103486079Y-50401959D01*
X103486092Y-50401966D01*
X103640278Y-50465831D01*
X103668165Y-50477382D01*
X103668169Y-50477382D01*
X103668170Y-50477383D01*
X103861456Y-50515831D01*
X103861459Y-50515831D01*
X104058543Y-50515831D01*
X104214296Y-50484849D01*
X104251835Y-50477382D01*
X104419209Y-50408053D01*
X104488678Y-50400585D01*
X104551157Y-50431860D01*
X104586809Y-50491949D01*
X104584315Y-50561774D01*
X104574050Y-50584612D01*
X104560424Y-50608213D01*
X104560423Y-50608216D01*
X104519500Y-50760943D01*
X104519500Y-50919057D01*
X104556015Y-51055331D01*
X104560423Y-51071783D01*
X104560423Y-51071784D01*
X104606924Y-51152327D01*
X104623396Y-51220227D01*
X104623154Y-51224055D01*
X104619077Y-51275855D01*
X105215591Y-51872368D01*
X105152007Y-51889406D01*
X105037993Y-51955232D01*
X104944901Y-52048324D01*
X104879075Y-52162338D01*
X104862037Y-52225921D01*
X104265524Y-51629408D01*
X104265523Y-51629408D01*
X104233143Y-51673975D01*
X104140244Y-51856299D01*
X104077931Y-52048078D01*
X104038493Y-52105753D01*
X103974134Y-52132951D01*
X103905288Y-52121036D01*
X103853812Y-52073792D01*
X103842069Y-52048078D01*
X103779755Y-51856299D01*
X103686859Y-51673981D01*
X103654474Y-51629408D01*
X103654474Y-51629407D01*
X103057962Y-52225920D01*
X103040925Y-52162338D01*
X102975099Y-52048324D01*
X102882007Y-51955232D01*
X102767993Y-51889406D01*
X102704408Y-51872368D01*
X103300922Y-51275855D01*
X103300921Y-51275854D01*
X103256359Y-51243478D01*
X103256350Y-51243472D01*
X103074031Y-51150575D01*
X102879417Y-51087340D01*
X102677317Y-51055331D01*
X102472683Y-51055331D01*
X102270581Y-51087341D01*
X102270578Y-51087341D01*
X102168063Y-51120651D01*
X102098222Y-51122646D01*
X102038389Y-51086566D01*
X102009971Y-51034814D01*
X101986392Y-50946814D01*
X101920500Y-50832686D01*
X101827314Y-50739500D01*
X101769100Y-50705890D01*
X101713187Y-50673608D01*
X101652987Y-50657478D01*
X101637899Y-50653435D01*
X101578240Y-50617071D01*
X101547711Y-50554224D01*
X101556006Y-50484849D01*
X101600491Y-50430971D01*
X101622542Y-50419100D01*
X101663908Y-50401966D01*
X101663911Y-50401964D01*
X101663914Y-50401963D01*
X101827782Y-50292470D01*
X101967139Y-50153113D01*
X102076632Y-49989245D01*
X102077893Y-49986202D01*
X102152049Y-49807170D01*
X102152051Y-49807166D01*
X102190500Y-49613872D01*
X102190500Y-49416790D01*
X102190500Y-49416787D01*
X102152052Y-49223501D01*
X102152051Y-49223500D01*
X102152051Y-49223496D01*
X102086439Y-49065093D01*
X102076635Y-49041423D01*
X102076628Y-49041410D01*
X101967139Y-48877549D01*
X101967136Y-48877545D01*
X101827785Y-48738194D01*
X101827781Y-48738191D01*
X101663920Y-48628702D01*
X101663907Y-48628695D01*
X101481839Y-48553281D01*
X101481829Y-48553278D01*
X101288543Y-48514831D01*
X101288541Y-48514831D01*
X101091459Y-48514831D01*
X101091457Y-48514831D01*
X100898170Y-48553278D01*
X100898160Y-48553281D01*
X100716092Y-48628695D01*
X100716079Y-48628702D01*
X100552218Y-48738191D01*
X100552214Y-48738194D01*
X100412863Y-48877545D01*
X100412860Y-48877549D01*
X100303371Y-49041410D01*
X100303364Y-49041423D01*
X100227950Y-49223491D01*
X100227947Y-49223501D01*
X100189500Y-49416787D01*
X100189500Y-49416790D01*
X100189500Y-49613872D01*
X100189500Y-49613874D01*
X100189499Y-49613874D01*
X100227947Y-49807160D01*
X100227950Y-49807170D01*
X100303364Y-49989238D01*
X100303371Y-49989251D01*
X100412860Y-50153112D01*
X100412863Y-50153116D01*
X100552214Y-50292467D01*
X100552218Y-50292470D01*
X100716079Y-50401959D01*
X100716092Y-50401966D01*
X100870278Y-50465831D01*
X100898165Y-50477382D01*
X100898169Y-50477382D01*
X100898170Y-50477383D01*
X101091456Y-50515831D01*
X101138885Y-50515831D01*
X101205924Y-50535516D01*
X101251679Y-50588320D01*
X101261623Y-50657478D01*
X101232598Y-50721034D01*
X101214374Y-50738205D01*
X101212684Y-50739501D01*
X101119502Y-50832683D01*
X101119500Y-50832686D01*
X101053608Y-50946812D01*
X101030029Y-51034812D01*
X101019500Y-51074108D01*
X101019500Y-51205892D01*
X101029570Y-51243474D01*
X101053608Y-51333187D01*
X101072821Y-51366464D01*
X101119500Y-51447314D01*
X101212686Y-51540500D01*
X101326814Y-51606392D01*
X101329157Y-51607019D01*
X101330911Y-51608089D01*
X101334318Y-51609500D01*
X101334097Y-51610031D01*
X101388816Y-51643385D01*
X101419345Y-51706232D01*
X101411050Y-51775607D01*
X101407547Y-51783088D01*
X101370245Y-51856296D01*
X101307931Y-52048078D01*
X101268493Y-52105753D01*
X101204134Y-52132951D01*
X101135288Y-52121036D01*
X101083812Y-52073792D01*
X101072069Y-52048078D01*
X101009755Y-51856299D01*
X100916859Y-51673981D01*
X100884474Y-51629408D01*
X100884474Y-51629407D01*
X100287962Y-52225920D01*
X100270925Y-52162338D01*
X100205099Y-52048324D01*
X100112007Y-51955232D01*
X99997993Y-51889406D01*
X99934408Y-51872368D01*
X100530922Y-51275855D01*
X100530921Y-51275854D01*
X100486359Y-51243478D01*
X100486350Y-51243472D01*
X100304031Y-51150575D01*
X100109417Y-51087340D01*
X99907317Y-51055331D01*
X99702683Y-51055331D01*
X99500582Y-51087340D01*
X99305968Y-51150575D01*
X99123644Y-51243474D01*
X99079077Y-51275854D01*
X99079077Y-51275855D01*
X99675591Y-51872368D01*
X99612007Y-51889406D01*
X99497993Y-51955232D01*
X99404901Y-52048324D01*
X99339075Y-52162338D01*
X99322037Y-52225921D01*
X98725524Y-51629408D01*
X98725523Y-51629408D01*
X98693143Y-51673975D01*
X98600244Y-51856299D01*
X98537009Y-52050913D01*
X98505000Y-52253013D01*
X97983770Y-52253013D01*
X97948974Y-52078087D01*
X97948973Y-52078080D01*
X97877322Y-51905100D01*
X97877321Y-51905099D01*
X97877318Y-51905093D01*
X97773302Y-51749423D01*
X97773299Y-51749419D01*
X97640911Y-51617031D01*
X97640907Y-51617028D01*
X97485237Y-51513012D01*
X97485228Y-51513007D01*
X97354221Y-51458742D01*
X97312251Y-51441358D01*
X97312249Y-51441357D01*
X97312248Y-51441357D01*
X97312246Y-51441356D01*
X97128620Y-51404831D01*
X97128616Y-51404831D01*
X96941384Y-51404831D01*
X96941379Y-51404831D01*
X96757756Y-51441356D01*
X96757748Y-51441358D01*
X96584771Y-51513007D01*
X96584762Y-51513012D01*
X96429092Y-51617028D01*
X96429088Y-51617031D01*
X96296700Y-51749419D01*
X96296697Y-51749423D01*
X96192681Y-51905093D01*
X96192676Y-51905102D01*
X96121027Y-52078079D01*
X96121025Y-52078087D01*
X96084500Y-52261710D01*
X95265500Y-52261710D01*
X95265500Y-52256790D01*
X95265500Y-52256787D01*
X95227052Y-52063501D01*
X95227051Y-52063500D01*
X95227051Y-52063496D01*
X95220665Y-52048078D01*
X95151635Y-51881423D01*
X95151628Y-51881410D01*
X95042139Y-51717549D01*
X95042136Y-51717545D01*
X94902785Y-51578194D01*
X94902781Y-51578191D01*
X94738920Y-51468702D01*
X94738907Y-51468695D01*
X94556839Y-51393281D01*
X94556829Y-51393278D01*
X94363543Y-51354831D01*
X94363541Y-51354831D01*
X94166459Y-51354831D01*
X94166457Y-51354831D01*
X93973170Y-51393278D01*
X93973160Y-51393281D01*
X93791092Y-51468695D01*
X93791079Y-51468702D01*
X93627218Y-51578191D01*
X93627214Y-51578194D01*
X93487863Y-51717545D01*
X93487860Y-51717549D01*
X93378371Y-51881410D01*
X93378364Y-51881423D01*
X93302950Y-52063491D01*
X93302947Y-52063501D01*
X93264500Y-52256787D01*
X93264500Y-52256790D01*
X93264500Y-52453872D01*
X93264500Y-52453874D01*
X93264499Y-52453874D01*
X92495500Y-52453874D01*
X92495500Y-52453872D01*
X92495500Y-52256790D01*
X92495500Y-52256787D01*
X92457052Y-52063501D01*
X92457051Y-52063500D01*
X92457051Y-52063496D01*
X92450665Y-52048078D01*
X92381635Y-51881423D01*
X92381628Y-51881410D01*
X92272139Y-51717549D01*
X92272136Y-51717545D01*
X92132785Y-51578194D01*
X92132781Y-51578191D01*
X91968920Y-51468702D01*
X91968907Y-51468695D01*
X91786839Y-51393281D01*
X91786829Y-51393278D01*
X91593543Y-51354831D01*
X91593541Y-51354831D01*
X91396459Y-51354831D01*
X91396457Y-51354831D01*
X91203170Y-51393278D01*
X91203160Y-51393281D01*
X91021092Y-51468695D01*
X91021079Y-51468702D01*
X90857218Y-51578191D01*
X90857214Y-51578194D01*
X90717863Y-51717545D01*
X90717860Y-51717549D01*
X90608371Y-51881410D01*
X90608364Y-51881423D01*
X90532950Y-52063491D01*
X90532947Y-52063501D01*
X90494500Y-52256787D01*
X90494500Y-52256790D01*
X90494500Y-52453872D01*
X90494500Y-52453874D01*
X90494499Y-52453874D01*
X89725500Y-52453874D01*
X89725500Y-51535580D01*
X89725499Y-51535578D01*
X89713868Y-51477101D01*
X89713867Y-51477100D01*
X89669552Y-51410778D01*
X89603230Y-51366463D01*
X89603229Y-51366462D01*
X89544752Y-51354831D01*
X89544748Y-51354831D01*
X87905252Y-51354831D01*
X87905247Y-51354831D01*
X87846770Y-51366462D01*
X87846769Y-51366463D01*
X87780447Y-51410778D01*
X87736132Y-51477100D01*
X87736131Y-51477101D01*
X87724500Y-51535578D01*
X85220000Y-51535578D01*
X85220000Y-49421710D01*
X89159500Y-49421710D01*
X89159500Y-49608951D01*
X89196025Y-49792574D01*
X89196027Y-49792582D01*
X89267676Y-49965559D01*
X89267681Y-49965568D01*
X89371697Y-50121238D01*
X89371700Y-50121242D01*
X89504088Y-50253630D01*
X89504092Y-50253633D01*
X89659762Y-50357649D01*
X89659771Y-50357654D01*
X89664182Y-50359481D01*
X89832749Y-50429304D01*
X89999995Y-50462571D01*
X90016379Y-50465830D01*
X90016383Y-50465831D01*
X90016384Y-50465831D01*
X90203617Y-50465831D01*
X90203618Y-50465830D01*
X90387251Y-50429304D01*
X90560231Y-50357653D01*
X90715908Y-50253633D01*
X90848302Y-50121239D01*
X90952322Y-49965562D01*
X91023973Y-49792582D01*
X91060500Y-49608947D01*
X91060500Y-49421715D01*
X91060499Y-49421710D01*
X91929500Y-49421710D01*
X91929500Y-49608951D01*
X91966025Y-49792574D01*
X91966027Y-49792582D01*
X92037676Y-49965559D01*
X92037681Y-49965568D01*
X92141697Y-50121238D01*
X92141700Y-50121242D01*
X92274088Y-50253630D01*
X92274092Y-50253633D01*
X92429762Y-50357649D01*
X92429771Y-50357654D01*
X92434182Y-50359481D01*
X92602749Y-50429304D01*
X92769995Y-50462571D01*
X92786379Y-50465830D01*
X92786383Y-50465831D01*
X92786384Y-50465831D01*
X92973617Y-50465831D01*
X92973618Y-50465830D01*
X93157251Y-50429304D01*
X93330231Y-50357653D01*
X93485908Y-50253633D01*
X93618302Y-50121239D01*
X93722322Y-49965562D01*
X93793973Y-49792582D01*
X93830500Y-49608947D01*
X93830500Y-49421715D01*
X93830499Y-49421710D01*
X94699500Y-49421710D01*
X94699500Y-49608951D01*
X94736025Y-49792574D01*
X94736027Y-49792582D01*
X94807676Y-49965559D01*
X94807681Y-49965568D01*
X94911697Y-50121238D01*
X94911700Y-50121242D01*
X95044088Y-50253630D01*
X95044092Y-50253633D01*
X95199762Y-50357649D01*
X95199771Y-50357654D01*
X95204182Y-50359481D01*
X95372749Y-50429304D01*
X95539995Y-50462571D01*
X95556379Y-50465830D01*
X95556383Y-50465831D01*
X95556384Y-50465831D01*
X95743617Y-50465831D01*
X95743618Y-50465830D01*
X95927251Y-50429304D01*
X96100231Y-50357653D01*
X96255908Y-50253633D01*
X96388302Y-50121239D01*
X96492322Y-49965562D01*
X96563973Y-49792582D01*
X96600500Y-49608947D01*
X96600500Y-49421715D01*
X96600499Y-49421710D01*
X97469500Y-49421710D01*
X97469500Y-49608951D01*
X97506025Y-49792574D01*
X97506027Y-49792582D01*
X97577676Y-49965559D01*
X97577681Y-49965568D01*
X97681697Y-50121238D01*
X97681700Y-50121242D01*
X97814088Y-50253630D01*
X97814092Y-50253633D01*
X97969762Y-50357649D01*
X97969771Y-50357654D01*
X97974182Y-50359481D01*
X98142749Y-50429304D01*
X98309995Y-50462571D01*
X98326379Y-50465830D01*
X98326383Y-50465831D01*
X98326384Y-50465831D01*
X98513617Y-50465831D01*
X98513618Y-50465830D01*
X98697251Y-50429304D01*
X98870231Y-50357653D01*
X99025908Y-50253633D01*
X99158302Y-50121239D01*
X99262322Y-49965562D01*
X99333973Y-49792582D01*
X99370500Y-49608947D01*
X99370500Y-49421715D01*
X99333973Y-49238080D01*
X99262322Y-49065100D01*
X99262321Y-49065099D01*
X99262318Y-49065093D01*
X99158302Y-48909423D01*
X99158299Y-48909419D01*
X99025911Y-48777031D01*
X99025907Y-48777028D01*
X98870237Y-48673012D01*
X98870228Y-48673007D01*
X98697251Y-48601358D01*
X98697243Y-48601356D01*
X98513620Y-48564831D01*
X98513616Y-48564831D01*
X98326384Y-48564831D01*
X98326379Y-48564831D01*
X98142756Y-48601356D01*
X98142748Y-48601358D01*
X97969771Y-48673007D01*
X97969762Y-48673012D01*
X97814092Y-48777028D01*
X97814088Y-48777031D01*
X97681700Y-48909419D01*
X97681697Y-48909423D01*
X97577681Y-49065093D01*
X97577676Y-49065102D01*
X97506027Y-49238079D01*
X97506025Y-49238087D01*
X97469500Y-49421710D01*
X96600499Y-49421710D01*
X96563973Y-49238080D01*
X96492322Y-49065100D01*
X96492321Y-49065099D01*
X96492318Y-49065093D01*
X96388302Y-48909423D01*
X96388299Y-48909419D01*
X96255911Y-48777031D01*
X96255907Y-48777028D01*
X96100237Y-48673012D01*
X96100228Y-48673007D01*
X95927251Y-48601358D01*
X95927243Y-48601356D01*
X95743620Y-48564831D01*
X95743616Y-48564831D01*
X95556384Y-48564831D01*
X95556379Y-48564831D01*
X95372756Y-48601356D01*
X95372748Y-48601358D01*
X95199771Y-48673007D01*
X95199762Y-48673012D01*
X95044092Y-48777028D01*
X95044088Y-48777031D01*
X94911700Y-48909419D01*
X94911697Y-48909423D01*
X94807681Y-49065093D01*
X94807676Y-49065102D01*
X94736027Y-49238079D01*
X94736025Y-49238087D01*
X94699500Y-49421710D01*
X93830499Y-49421710D01*
X93793973Y-49238080D01*
X93722322Y-49065100D01*
X93722321Y-49065099D01*
X93722318Y-49065093D01*
X93618302Y-48909423D01*
X93618299Y-48909419D01*
X93485911Y-48777031D01*
X93485907Y-48777028D01*
X93330237Y-48673012D01*
X93330228Y-48673007D01*
X93157251Y-48601358D01*
X93157243Y-48601356D01*
X92973620Y-48564831D01*
X92973616Y-48564831D01*
X92786384Y-48564831D01*
X92786379Y-48564831D01*
X92602756Y-48601356D01*
X92602748Y-48601358D01*
X92429771Y-48673007D01*
X92429762Y-48673012D01*
X92274092Y-48777028D01*
X92274088Y-48777031D01*
X92141700Y-48909419D01*
X92141697Y-48909423D01*
X92037681Y-49065093D01*
X92037676Y-49065102D01*
X91966027Y-49238079D01*
X91966025Y-49238087D01*
X91929500Y-49421710D01*
X91060499Y-49421710D01*
X91023973Y-49238080D01*
X90952322Y-49065100D01*
X90952321Y-49065099D01*
X90952318Y-49065093D01*
X90848302Y-48909423D01*
X90848299Y-48909419D01*
X90715911Y-48777031D01*
X90715907Y-48777028D01*
X90560237Y-48673012D01*
X90560228Y-48673007D01*
X90387251Y-48601358D01*
X90387243Y-48601356D01*
X90203620Y-48564831D01*
X90203616Y-48564831D01*
X90016384Y-48564831D01*
X90016379Y-48564831D01*
X89832756Y-48601356D01*
X89832748Y-48601358D01*
X89659771Y-48673007D01*
X89659762Y-48673012D01*
X89504092Y-48777028D01*
X89504088Y-48777031D01*
X89371700Y-48909419D01*
X89371697Y-48909423D01*
X89267681Y-49065093D01*
X89267676Y-49065102D01*
X89196027Y-49238079D01*
X89196025Y-49238087D01*
X89159500Y-49421710D01*
X85220000Y-49421710D01*
X85220000Y-45763531D01*
X85239685Y-45696492D01*
X85292489Y-45650737D01*
X85343529Y-45639532D01*
X111496292Y-45540468D01*
X111563404Y-45559898D01*
G37*
%TD.AperFunction*%
%TD*%
M02*
