%TF.GenerationSoftware,KiCad,Pcbnew,9.0.3*%
%TF.CreationDate,2025-12-13T00:06:23+05:30*%
%TF.ProjectId,vga,7667612e-6b69-4636-9164-5f7063625858,rev?*%
%TF.SameCoordinates,Original*%
%TF.FileFunction,Copper,L4,Bot*%
%TF.FilePolarity,Positive*%
%FSLAX46Y46*%
G04 Gerber Fmt 4.6, Leading zero omitted, Abs format (unit mm)*
G04 Created by KiCad (PCBNEW 9.0.3) date 2025-12-13 00:06:23*
%MOMM*%
%LPD*%
G01*
G04 APERTURE LIST*
%TA.AperFunction,ComponentPad*%
%ADD10R,1.700000X1.700000*%
%TD*%
%TA.AperFunction,ComponentPad*%
%ADD11C,1.700000*%
%TD*%
%TA.AperFunction,ComponentPad*%
%ADD12R,1.600000X1.600000*%
%TD*%
%TA.AperFunction,ComponentPad*%
%ADD13C,1.600000*%
%TD*%
%TA.AperFunction,ViaPad*%
%ADD14C,0.600000*%
%TD*%
%TA.AperFunction,ViaPad*%
%ADD15C,0.800000*%
%TD*%
%TA.AperFunction,Conductor*%
%ADD16C,0.300000*%
%TD*%
%TA.AperFunction,Conductor*%
%ADD17C,0.250000*%
%TD*%
%TA.AperFunction,Conductor*%
%ADD18C,0.500000*%
%TD*%
G04 APERTURE END LIST*
D10*
%TO.P,J_PROG1,1,Pin_1*%
%TO.N,GND*%
X92220000Y-92590000D03*
D11*
%TO.P,J_PROG1,2,Pin_2*%
%TO.N,+3.3V*%
X94760000Y-92590000D03*
%TO.P,J_PROG1,3,Pin_3*%
%TO.N,/SCK*%
X97300000Y-92590000D03*
%TO.P,J_PROG1,4,Pin_4*%
%TO.N,/SDI*%
X99840000Y-92590000D03*
%TO.P,J_PROG1,5,Pin_5*%
%TO.N,/SDO*%
X102380000Y-92590000D03*
%TO.P,J_PROG1,6,Pin_6*%
%TO.N,/SS*%
X104920000Y-92590000D03*
%TD*%
D12*
%TO.P,J1,1*%
%TO.N,/VGA_RED_OUT*%
X88725000Y-52355331D03*
D13*
%TO.P,J1,2*%
%TO.N,/VGA_GREEN_OUT*%
X91495000Y-52355331D03*
%TO.P,J1,3*%
%TO.N,/VGA_BLUE_OUT*%
X94265000Y-52355331D03*
%TO.P,J1,4*%
%TO.N,unconnected-(J1-Pad4)*%
X97035000Y-52355331D03*
%TO.P,J1,5*%
%TO.N,GND*%
X99805000Y-52355331D03*
%TO.P,J1,6*%
X102575000Y-52355331D03*
%TO.P,J1,7*%
X105345000Y-52355331D03*
%TO.P,J1,8*%
X108115000Y-52355331D03*
%TO.P,J1,9*%
%TO.N,unconnected-(J1-Pad9)*%
X90110000Y-49515331D03*
%TO.P,J1,10*%
%TO.N,unconnected-(J1-Pad10)*%
X92880000Y-49515331D03*
%TO.P,J1,11*%
%TO.N,unconnected-(J1-Pad11)*%
X95650000Y-49515331D03*
%TO.P,J1,12*%
%TO.N,unconnected-(J1-Pad12)*%
X98420000Y-49515331D03*
%TO.P,J1,13*%
%TO.N,/HSYNC*%
X101190000Y-49515331D03*
%TO.P,J1,14*%
%TO.N,/VSYNC*%
X103960000Y-49515331D03*
%TO.P,J1,15*%
%TO.N,unconnected-(J1-Pad15)*%
X106730000Y-49515331D03*
%TD*%
D14*
%TO.N,VCCINT*%
X109320000Y-62340000D03*
X107520000Y-50640000D03*
X101520000Y-51140000D03*
X90420000Y-58740000D03*
%TO.N,+3.3V*%
X94120000Y-91440000D03*
%TO.N,VCCINT*%
X107420000Y-74040000D03*
X110720000Y-72871245D03*
%TO.N,Net-(U1A-IOT_78)*%
X96020000Y-56990000D03*
X108950331Y-54409669D03*
X107813413Y-63433413D03*
X103426511Y-65765000D03*
%TO.N,Net-(U1A-IOT_77)*%
X94420000Y-56990000D03*
X106346824Y-56078354D03*
X105764015Y-57947188D03*
X106304620Y-61624620D03*
%TO.N,Net-(U1A-IOT_76)*%
X92820000Y-56990000D03*
X104770764Y-58790764D03*
X104559817Y-56192198D03*
X104145000Y-65549879D03*
%TO.N,Net-(U1A-IOT_75)*%
X91220000Y-56990000D03*
X92062822Y-66066932D03*
%TO.N,Net-(U1A-IOT_74)*%
X89620000Y-56990000D03*
X91683603Y-66714000D03*
%TO.N,Net-(U1A-IOT_85_GBIN0)*%
X108820000Y-56990000D03*
X105570000Y-68003172D03*
X99231828Y-67865000D03*
X96970050Y-65548879D03*
%TO.N,Net-(U1A-IOT_84_GBIN1)*%
X105620000Y-56990000D03*
X97720000Y-65540000D03*
%TO.N,Net-(U1A-IOT_87)*%
X109420000Y-63340000D03*
X94612568Y-63308641D03*
%TO.N,Net-(U1A-IOT_79)*%
X97620000Y-56990000D03*
X102719999Y-65361351D03*
%TO.N,Net-(U1A-IOT_80)*%
X102770003Y-58389000D03*
X102595000Y-62693070D03*
%TO.N,Net-(U1A-IOT_81)*%
X102020000Y-58389000D03*
X101960642Y-63094781D03*
%TO.N,Net-(U1A-IOT_82)*%
X101385642Y-62396239D03*
X102420000Y-56990000D03*
%TO.N,Net-(U1A-IOT_83)*%
X104020000Y-56990000D03*
X100707989Y-65454680D03*
%TO.N,GND*%
X108100330Y-53559669D03*
X104710000Y-51710417D03*
X101620000Y-54240000D03*
D15*
%TO.N,/HSYNC*%
X105120000Y-50840000D03*
D14*
%TO.N,+3.3V*%
X111020000Y-75840000D03*
X86320000Y-80840000D03*
X110820000Y-70340000D03*
X101220000Y-87140000D03*
X108320000Y-86140000D03*
X100720000Y-62840000D03*
X86420000Y-68840000D03*
X106120000Y-59140000D03*
X93220000Y-87140000D03*
X95820000Y-62940000D03*
%TO.N,GND*%
X86220000Y-84540000D03*
X110920000Y-77240000D03*
X87220000Y-85740000D03*
X98720000Y-90440000D03*
X92720000Y-62940000D03*
X109020000Y-61340000D03*
X86420000Y-67940000D03*
X100720000Y-84640000D03*
X108920000Y-89640000D03*
X100720000Y-59140000D03*
%TO.N,VCCINT*%
X87720000Y-60340000D03*
X106420000Y-62940000D03*
X86320000Y-79340000D03*
X110920000Y-74340000D03*
X96020000Y-87240000D03*
%TO.N,/SDI*%
X105982836Y-87002837D03*
X105220000Y-84540000D03*
%TO.N,/SDO*%
X104420000Y-84440000D03*
X103420000Y-90940000D03*
%TO.N,/SCK*%
X106728072Y-84527500D03*
X98220000Y-91640000D03*
%TO.N,Net-(U1C-IOB_42_CBSEL0)*%
X100570000Y-87766101D03*
X102620000Y-86840000D03*
%TO.N,VCCPLL*%
X90720000Y-89540000D03*
%TD*%
D16*
%TO.N,VCCINT*%
X90420000Y-56869346D02*
X90420000Y-58740000D01*
X92949346Y-54340000D02*
X90420000Y-56869346D01*
X99448091Y-54340000D02*
X92949346Y-54340000D01*
X100956000Y-51604000D02*
X100956000Y-52832091D01*
X101520000Y-51040000D02*
X100956000Y-51604000D01*
X100956000Y-52832091D02*
X99448091Y-54340000D01*
X108027429Y-50640000D02*
X107520000Y-50640000D01*
X109601331Y-52213902D02*
X108027429Y-50640000D01*
X109601331Y-54679323D02*
X109601331Y-52213902D01*
X107320000Y-56960654D02*
X109601331Y-54679323D01*
X107320000Y-60560654D02*
X107320000Y-56960654D01*
X109320000Y-62340000D02*
X109099346Y-62340000D01*
X109099346Y-62340000D02*
X107320000Y-60560654D01*
%TO.N,+3.3V*%
X94120000Y-91340000D02*
X93220000Y-90440000D01*
X93220000Y-90440000D02*
X93220000Y-87140000D01*
X94120000Y-91440000D02*
X94120000Y-91340000D01*
D17*
%TO.N,/SCK*%
X106728072Y-87072189D02*
X106728072Y-84527500D01*
X105984261Y-87816000D02*
X106728072Y-87072189D01*
%TO.N,Net-(U1A-IOT_78)*%
X92423564Y-57975252D02*
X95034748Y-57975252D01*
X91843000Y-57394688D02*
X92423564Y-57975252D01*
X91843000Y-56585312D02*
X91843000Y-57394688D01*
X93612312Y-54816000D02*
X91843000Y-56585312D01*
X108950331Y-54409669D02*
X108544000Y-54816000D01*
X108544000Y-54816000D02*
X93612312Y-54816000D01*
X95034748Y-57975252D02*
X96020000Y-56990000D01*
X105006826Y-66240000D02*
X107813413Y-63433413D01*
X103426511Y-65765000D02*
X103901511Y-66240000D01*
X103901511Y-66240000D02*
X105006826Y-66240000D01*
%TO.N,Net-(U1A-IOT_76)*%
X104770764Y-64924115D02*
X104770764Y-58790764D01*
X104145000Y-65549879D02*
X104770764Y-64924115D01*
%TO.N,Net-(U1A-IOT_77)*%
X93835748Y-57574252D02*
X94420000Y-56990000D01*
X92244000Y-56751412D02*
X92244000Y-57228588D01*
X93379214Y-55616198D02*
X92244000Y-56751412D01*
X106346824Y-56078354D02*
X105884668Y-55616198D01*
X92589664Y-57574252D02*
X93835748Y-57574252D01*
X92244000Y-57228588D02*
X92589664Y-57574252D01*
X105884668Y-55616198D02*
X93379214Y-55616198D01*
X105494000Y-58217203D02*
X105764015Y-57947188D01*
X105494000Y-60814000D02*
X105494000Y-58217203D01*
X106304620Y-61624620D02*
X105494000Y-60814000D01*
%TO.N,Net-(U1A-IOT_76)*%
X93617802Y-56192198D02*
X92820000Y-56990000D01*
X104559817Y-56192198D02*
X93617802Y-56192198D01*
%TO.N,Net-(U1A-IOT_75)*%
X91220000Y-65224110D02*
X91220000Y-56990000D01*
X92062822Y-66066932D02*
X91220000Y-65224110D01*
%TO.N,Net-(U1A-IOT_74)*%
X91683603Y-66714000D02*
X89620000Y-64650397D01*
X89620000Y-64650397D02*
X89620000Y-56990000D01*
%TO.N,Net-(U1A-IOT_85_GBIN0)*%
X109996000Y-58166000D02*
X108820000Y-56990000D01*
X109996000Y-63577172D02*
X109996000Y-58166000D01*
X105570000Y-68003172D02*
X109996000Y-63577172D01*
X96970050Y-65603224D02*
X99231828Y-67865000D01*
X96970050Y-65548879D02*
X96970050Y-65603224D01*
%TO.N,Net-(U1A-IOT_84_GBIN1)*%
X106746000Y-58116000D02*
X105620000Y-56990000D01*
X106746000Y-61166000D02*
X106746000Y-58116000D01*
X108820000Y-63240000D02*
X106746000Y-61166000D01*
X104021000Y-68039000D02*
X108820000Y-63240000D01*
X100219000Y-68039000D02*
X104021000Y-68039000D01*
X97720000Y-65540000D02*
X100219000Y-68039000D01*
%TO.N,Net-(U1A-IOT_87)*%
X104320000Y-68440000D02*
X109420000Y-63340000D01*
X94612568Y-68432568D02*
X94620000Y-68440000D01*
X94612568Y-63308641D02*
X94612568Y-68432568D01*
X94620000Y-68440000D02*
X104320000Y-68440000D01*
%TO.N,Net-(U1A-IOT_79)*%
X102050670Y-66030680D02*
X100469401Y-66030680D01*
X100469401Y-66030680D02*
X97620000Y-63181279D01*
X102719999Y-65361351D02*
X102050670Y-66030680D01*
X97620000Y-63181279D02*
X97620000Y-56990000D01*
%TO.N,Net-(U1A-IOT_80)*%
X102770003Y-62518067D02*
X102770003Y-58389000D01*
X102595000Y-62693070D02*
X102770003Y-62518067D01*
%TO.N,Net-(U1A-IOT_81)*%
X102020000Y-63035423D02*
X102020000Y-58389000D01*
X101960642Y-63094781D02*
X102020000Y-63035423D01*
%TO.N,Net-(U1A-IOT_82)*%
X101385642Y-58024358D02*
X102420000Y-56990000D01*
X101385642Y-62396239D02*
X101385642Y-58024358D01*
%TO.N,Net-(U1A-IOT_83)*%
X104020000Y-62142669D02*
X104020000Y-56990000D01*
X100707989Y-65454680D02*
X104020000Y-62142669D01*
%TO.N,GND*%
X107419999Y-54240000D02*
X101620000Y-54240000D01*
X108100330Y-53559669D02*
X107419999Y-54240000D01*
X104710000Y-51710417D02*
X102180417Y-54240000D01*
X102180417Y-54240000D02*
X101620000Y-54240000D01*
D18*
%TO.N,/HSYNC*%
X102514669Y-50840000D02*
X101190000Y-49515331D01*
X105120000Y-50840000D02*
X102514669Y-50840000D01*
D17*
%TO.N,GND*%
X87220000Y-85740000D02*
X87220000Y-85540000D01*
X87220000Y-85540000D02*
X86220000Y-84540000D01*
D16*
%TO.N,VCCINT*%
X107420000Y-74040000D02*
X109520000Y-74040000D01*
X109520000Y-74040000D02*
X110720000Y-72840000D01*
D17*
%TO.N,/SDI*%
X105587100Y-84540000D02*
X105220000Y-84540000D01*
X105587100Y-84540000D02*
X105587100Y-86607101D01*
X105587100Y-86607101D02*
X105982836Y-87002837D01*
%TO.N,/SDO*%
X104908500Y-83951500D02*
X104420000Y-84440000D01*
X107304072Y-84288912D02*
X106966660Y-83951500D01*
X103927361Y-90440000D02*
X107304072Y-87063289D01*
X103420000Y-90940000D02*
X103427361Y-90940000D01*
X103920000Y-90440000D02*
X103927361Y-90440000D01*
X103420000Y-90940000D02*
X103920000Y-90440000D01*
X107304072Y-87063289D02*
X107304072Y-84288912D01*
X106966660Y-83951500D02*
X104908500Y-83951500D01*
%TO.N,/SCK*%
X103044000Y-87816000D02*
X105984261Y-87816000D01*
X98220000Y-91640000D02*
X99220000Y-91640000D01*
X106730286Y-84529714D02*
X106728072Y-84527500D01*
X99220000Y-91640000D02*
X103044000Y-87816000D01*
%TO.N,Net-(U1C-IOB_42_CBSEL0)*%
X100570000Y-87766101D02*
X101693899Y-87766101D01*
X101693899Y-87766101D02*
X102620000Y-86840000D01*
%TD*%
M02*
